<svg width="15" height="19" viewBox="0 0 15 19" fill="none" xmlns="http://www.w3.org/2000/svg">
<g clip-path="url(#clip0_526_2705)">
<path d="M3.87206e-05 11.4986C0.00793207 10.573 0.181586 9.81401 0.707809 9.17576C1.28139 8.47903 2.03258 8.02514 2.95215 7.89545C3.58099 7.80645 4.20193 7.93359 4.80841 8.11286C5.16755 8.21839 5.52407 8.33282 5.89637 8.39003C6.31341 8.45487 6.72123 8.40275 7.13431 8.3468C7.98022 8.23238 8.75377 7.89672 9.55626 7.65007C10.5627 7.34112 11.5743 7.2839 12.5715 7.65643C13.7924 8.11286 14.5001 9.01302 14.833 10.2043C15.1105 11.2011 15.025 12.1839 14.6817 13.1578C14.237 14.4178 13.6345 15.5951 12.7807 16.6466C12.144 17.4298 11.3941 18.0871 10.4982 18.5957C9.78253 19.0012 9.06292 19.1373 8.26701 18.8385C7.72237 18.6351 7.15405 18.6173 6.59493 18.7927C5.628 19.0966 4.76631 18.869 3.9625 18.3338C3.07845 17.7451 2.35752 17.0077 1.76552 16.1418C1.10905 15.1819 0.569676 14.1762 0.260519 13.0625C0.202635 12.8565 0.140804 12.6493 0.105283 12.4395C0.0460833 12.0873 -0.00785463 11.7338 3.87206e-05 11.4986Z" fill="#FFA02F"/>
<path d="M6.31346 4.54412C6.25952 3.64396 6.73576 2.86331 7.59087 2.25558C8.44467 1.64784 9.3695 1.16725 10.3259 0.732422C10.91 0.467968 11.5073 0.237842 12.1085 0.0166164C12.1901 -0.0138975 12.2493 -0.00881187 12.2979 0.0751014C12.7018 0.760393 13.0018 1.48383 13.1188 2.26702C13.3267 3.66812 12.8571 4.79459 11.6441 5.62863C10.8548 6.17153 9.99308 6.57584 9.09981 6.92548C8.44861 7.18103 7.76847 7.35649 7.09227 7.54338C7.00281 7.56754 6.96729 7.55355 6.93441 7.46964C6.58447 6.57202 6.30952 5.65915 6.31083 4.54539L6.31346 4.54412Z" fill="#FFA02F"/>
<path d="M6.24765 7.65893C6.0569 7.67928 5.86877 7.59918 5.68591 7.49746C4.38219 6.7753 3.07584 6.0595 1.73002 5.41235C1.55769 5.3297 1.559 5.33225 1.71161 5.22418C2.11417 4.93811 2.57856 4.81351 3.06663 4.75375C3.16661 4.74104 3.25739 4.78681 3.34816 4.82495C4.57031 5.32843 5.47805 6.18791 6.25291 7.19868C6.33448 7.30421 6.4121 7.41355 6.4884 7.52162C6.50945 7.55086 6.55549 7.57756 6.53708 7.6157C6.51734 7.65639 6.46735 7.6602 6.42262 7.6602C6.37395 7.6602 6.32395 7.6602 6.24765 7.6602V7.65893Z" fill="#FFA02F"/>
</g>
<defs>
<clipPath id="clip0_526_2705">
<rect width="15" height="19" fill="white"/>
</clipPath>
</defs>
</svg>
