<svg width="17" height="16" viewBox="0 0 17 16" fill="none" xmlns="http://www.w3.org/2000/svg">
<path d="M13.762 9.46936C11.973 9.46936 10.5239 10.9306 10.5239 12.7347C10.5239 13.3469 10.6939 13.9265 10.9934 14.4163C11.552 15.3632 12.5801 16 13.762 16C14.9439 16 15.972 15.3632 16.5306 14.4163C16.8301 13.9265 17.0001 13.3469 17.0001 12.7347C17.0001 10.9306 15.5511 9.46936 13.762 9.46936ZM15.4377 12.3836L13.7134 13.9918C13.6001 14.0979 13.4463 14.1551 13.3006 14.1551C13.1468 14.1551 12.993 14.0979 12.8715 13.9755L12.0701 13.1673C11.8354 12.9306 11.8354 12.5388 12.0701 12.302C12.3049 12.0653 12.6934 12.0653 12.9282 12.302L13.3168 12.6939L14.612 11.4857C14.8549 11.2571 15.2435 11.2734 15.4701 11.5183C15.6968 11.7632 15.6806 12.1469 15.4377 12.3836Z" fill="#E4002B"/>
<path d="M16.1905 3.38776V3.75511C16.1905 4.20409 15.8262 4.57143 15.381 4.57143H0.809524C0.364286 4.57143 0 4.20409 0 3.75511V3.3796C0 1.51021 1.49762 0 3.35143 0H12.831C14.6848 0 16.1905 1.51837 16.1905 3.38776Z" fill="#E4002B"/>
<path d="M0 6.61221V10.6612C0 12.5306 1.49762 14.0408 3.35143 14.0408H8.41905C8.88857 14.0408 9.29333 13.6408 9.25286 13.1673C9.13952 11.9183 9.53619 10.5632 10.6371 9.48568C11.0905 9.0367 11.649 8.69385 12.2562 8.49793C13.2681 8.1714 14.2476 8.21221 15.1138 8.50609C15.64 8.68568 16.1905 8.30201 16.1905 7.73874V6.60405C16.1905 6.15507 15.8262 5.78772 15.381 5.78772H0.809524C0.364286 5.79588 0 6.16323 0 6.61221ZM4.85714 11.3061H3.2381C2.90619 11.3061 2.63095 11.0285 2.63095 10.6938C2.63095 10.3592 2.90619 10.0816 3.2381 10.0816H4.85714C5.18905 10.0816 5.46429 10.3592 5.46429 10.6938C5.46429 11.0285 5.18905 11.3061 4.85714 11.3061Z" fill="#E4002B"/>
</svg>
