<svg width="16" height="15" viewBox="0 0 16 15" fill="none" xmlns="http://www.w3.org/2000/svg">
<path d="M16 1.82503V11.8249C16 12.6407 15.3168 13.3892 14.4778 13.4901L14.2097 13.5237C12.7914 13.7088 10.7935 14.2807 9.18486 14.9367C8.6227 15.1638 8 14.7516 8 14.1545V2.4558C8 2.14462 8.18162 1.85867 8.46703 1.70729C10.0497 0.87467 12.4454 0.134565 14.0714 0H14.1232C15.1611 0 16 0.815798 16 1.82503Z" fill="#FFB761"/>
<path d="M7.54162 1.70729C5.95892 0.87467 3.56324 0.134565 1.9373 0H1.87676C0.838919 0 0 0.815798 0 1.82503V11.8249C0 12.6407 0.683243 13.3892 1.52216 13.4901L1.79027 13.5237C3.20865 13.7088 5.20649 14.2807 6.81514 14.9367C7.3773 15.1638 8 14.7516 8 14.1545V2.4558C8 2.13621 7.82703 1.85867 7.54162 1.70729ZM2.60324 4.25561H4.54919C4.90378 4.25561 5.19784 4.54156 5.19784 4.88638C5.19784 5.23961 4.90378 5.51715 4.54919 5.51715H2.60324C2.24865 5.51715 1.95459 5.23961 1.95459 4.88638C1.95459 4.54156 2.24865 4.25561 2.60324 4.25561ZM5.19784 8.04024H2.60324C2.24865 8.04024 1.95459 7.7627 1.95459 7.40946C1.95459 7.06464 2.24865 6.77869 2.60324 6.77869H5.19784C5.55243 6.77869 5.84649 7.06464 5.84649 7.40946C5.84649 7.7627 5.55243 8.04024 5.19784 8.04024Z" fill="#FFB761"/>
</svg>
