<svg width="34" height="34" viewBox="0 0 34 34" fill="none" xmlns="http://www.w3.org/2000/svg">
<circle cx="17" cy="17" r="17" fill="white" fill-opacity="0.3"/>
<path d="M10.8373 8.42281L11.3952 7.86494C11.7857 7.47442 12.4189 7.47442 12.8094 7.86494L15.3509 10.4064C15.7414 10.7969 15.7414 11.4301 15.3509 11.8206L13.5862 13.5853C13.2906 13.8809 13.2173 14.3325 13.4043 14.7063C14.4849 16.8676 16.2374 18.6201 18.3987 19.7008C18.7726 19.8877 19.2241 19.8144 19.5197 19.5189L21.2844 17.7541C21.6749 17.3636 22.3081 17.3636 22.6986 17.7541L25.2401 20.2956C25.6306 20.6861 25.6306 21.3193 25.2401 21.7098L24.6822 22.2677C22.5709 24.379 19.2283 24.6166 16.8396 22.825L15.7198 21.9852C13.9763 20.6776 12.4275 19.1288 11.1198 17.3852L10.28 16.2655C8.48844 13.8767 8.72598 10.5342 10.8373 8.42281Z" fill="white"/>
</svg>
