<svg width="34" height="34" viewBox="0 0 34 34" fill="none" xmlns="http://www.w3.org/2000/svg">
<circle cx="17" cy="17" r="17" fill="white" fill-opacity="0.3"/>
<path opacity="0.4" d="M25.9473 11.8552V16.4184C25.9473 17.5547 25.5716 18.5121 24.9005 19.1742C24.2384 19.8452 23.281 20.221 22.1447 20.221V21.8405C22.1447 22.4489 21.4647 22.8158 20.9637 22.4758L20.0958 21.9031C20.1763 21.6258 20.2121 21.3215 20.2121 20.9994V17.3579C20.2121 15.5326 18.9952 14.3158 17.17 14.3158H11.0947C10.9694 14.3158 10.8531 14.3247 10.7368 14.3337V11.8552C10.7368 9.57366 12.2579 8.05261 14.5394 8.05261H22.1447C24.4263 8.05261 25.9473 9.57366 25.9473 11.8552Z" fill="white"/>
<path d="M20.2122 17.3579V20.9995C20.2122 21.3216 20.1764 21.6258 20.0959 21.9031C19.7648 23.2184 18.6733 24.0416 17.1701 24.0416H14.7364L12.0343 25.84C11.6317 26.1174 11.0948 25.8221 11.0948 25.339V24.0416C10.1822 24.0416 9.42168 23.7374 8.89379 23.2095C8.35695 22.6726 8.05273 21.9121 8.05273 20.9995V17.3579C8.05273 15.6579 9.10852 14.4858 10.7369 14.3337C10.8533 14.3248 10.9696 14.3158 11.0948 14.3158H17.1701C18.9954 14.3158 20.2122 15.5327 20.2122 17.3579Z" fill="white"/>
</svg>
