<svg width="18" height="21" viewBox="0 0 18 21" fill="none" xmlns="http://www.w3.org/2000/svg">
<path d="M13.8203 0.910034H4.18031C2.06031 0.910034 0.320312 2.65003 0.320312 4.77003V18.86C0.320312 20.66 1.61031 21.42 3.19031 20.55L8.07031 17.84C8.59031 17.55 9.43031 17.55 9.94031 17.84L14.8203 20.55C16.4003 21.43 17.6903 20.67 17.6903 18.86V4.77003C17.6803 2.65003 15.9503 0.910034 13.8203 0.910034ZM12.6203 8.03003L8.62031 12.03C8.47031 12.18 8.28031 12.25 8.09031 12.25C7.90031 12.25 7.71031 12.18 7.56031 12.03L6.06031 10.53C5.77031 10.24 5.77031 9.76003 6.06031 9.47003C6.35031 9.18003 6.83031 9.18003 7.12031 9.47003L8.09031 10.44L11.5603 6.97003C11.8503 6.68003 12.3303 6.68003 12.6203 6.97003C12.9103 7.26003 12.9103 7.74003 12.6203 8.03003Z" fill="#E4002B"/>
</svg>
