<svg width="24" height="24" viewBox="0 0 24 24" fill="none" xmlns="http://www.w3.org/2000/svg">
<g clip-path="url(#clip0_558_7538)">
<path d="M12.1652 0.000430031C5.28731 -0.0830798 -0.0254419 5.54113 -2.20084e-05 11.9532C-0.0399675 18.5541 5.31273 23.9387 11.882 24.0004C18.5746 24.0622 23.9273 18.634 24 12.1529C24.0762 5.46851 18.6473 0.0766781 12.1652 0.000430031ZM19.6568 9.05217C18.7744 9.95989 17.5179 11.2452 16.748 12.015C14.6273 14.1426 12.4993 16.2667 10.3858 18.398C10.2042 18.5796 10.1135 18.5977 9.92826 18.4053C8.42848 16.8912 5.86834 14.3242 4.46661 12.919C4.19063 12.6431 4.05626 12.2873 4.05626 11.9278C4.05626 11.5684 4.19063 11.2125 4.46298 10.9366C5.01133 10.3774 5.90829 10.3702 6.46389 10.9257C7.32454 11.7862 8.54832 13.0062 9.31455 13.7723C9.53243 13.9865 9.75758 14.1971 9.96457 14.4222C10.0663 14.5275 10.2224 14.5348 10.3241 14.4331C11.3445 13.4019 12.3758 12.378 13.3999 11.3541C14.5656 10.1886 16.5084 8.24249 17.6595 7.08787C18.1861 6.55777 19.0358 6.53598 19.5878 7.03704C20.1797 7.56715 20.2124 8.48576 19.6568 9.05217Z" fill="#FF2750"/>
<path d="M19.6568 9.05217C18.7744 9.95989 17.5179 11.2452 16.7481 12.015C14.6273 14.1426 12.4993 16.2667 10.3858 18.398C10.2043 18.5796 10.1135 18.5977 9.92827 18.4053C8.42849 16.8912 5.86835 14.3242 4.46662 12.919C4.19064 12.6431 4.05627 12.2873 4.05627 11.9278C4.05627 11.5684 4.19064 11.2125 4.46299 10.9366C5.01134 10.3774 5.90829 10.3702 6.4639 10.9257C7.32454 11.7862 8.54833 13.0062 9.31456 13.7723C9.53244 13.9865 9.75759 14.1971 9.96458 14.4222C10.0663 14.5275 10.2224 14.5348 10.3241 14.4331C11.3445 13.4019 12.3758 12.378 13.3999 11.3541C14.5656 10.1886 16.5084 8.24249 17.6595 7.08788C18.1861 6.55777 19.0358 6.53598 19.5878 7.03704C20.1797 7.56715 20.2124 8.48576 19.6568 9.05217Z" fill="white"/>
</g>
<defs>
<clipPath id="clip0_558_7538">
<rect width="24" height="24" fill="white" transform="translate(0 0.000488281)"/>
</clipPath>
</defs>
</svg>
