<svg width="30" height="31" viewBox="0 0 30 31" fill="none" xmlns="http://www.w3.org/2000/svg">
<circle cx="15" cy="15.5" r="15" fill="#E4002B" fill-opacity="0.1"/>
<path d="M18 12.2C19.1046 12.2 20 11.2598 20 10.1C20 8.9402 19.1046 8 18 8C16.8954 8 16 8.9402 16 10.1C16 11.2598 16.8954 12.2 18 12.2Z" fill="#E4002B"/>
<path d="M10 17.1C11.1046 17.1 12 16.1598 12 15C12 13.8402 11.1046 12.9 10 12.9C8.89543 12.9 8 13.8402 8 15C8 16.1598 8.89543 17.1 10 17.1Z" fill="#E4002B"/>
<path d="M18 22C19.1046 22 20 21.0598 20 19.9C20 18.7402 19.1046 17.8 18 17.8C16.8954 17.8 16 18.7402 16 19.9C16 21.0598 16.8954 22 18 22Z" fill="#E4002B"/>
<path d="M11.7267 16.057L16.28 18.843M16.2733 11.157L11.7267 13.943M20 10.1C20 11.2598 19.1046 12.2 18 12.2C16.8954 12.2 16 11.2598 16 10.1C16 8.9402 16.8954 8 18 8C19.1046 8 20 8.9402 20 10.1ZM12 15C12 16.1598 11.1046 17.1 10 17.1C8.89543 17.1 8 16.1598 8 15C8 13.8402 8.89543 12.9 10 12.9C11.1046 12.9 12 13.8402 12 15ZM20 19.9C20 21.0598 19.1046 22 18 22C16.8954 22 16 21.0598 16 19.9C16 18.7402 16.8954 17.8 18 17.8C19.1046 17.8 20 18.7402 20 19.9Z" stroke="#E4002B" stroke-width="2" stroke-linecap="round" stroke-linejoin="round"/>
</svg>
