<svg width="20" height="18" viewBox="0 0 20 18" fill="none" xmlns="http://www.w3.org/2000/svg">
<path d="M8.85036 2.85984C9.22192 2.80643 9.60522 2.77778 10 2.77778C14.6672 2.77778 17.7298 6.78208 18.7587 8.36606C18.8833 8.55778 18.9455 8.65364 18.9804 8.80149C19.0066 8.91252 19.0065 9.0877 18.9803 9.19873C18.9455 9.34658 18.8828 9.44307 18.7574 9.63606C18.4832 10.0579 18.0653 10.6508 17.5115 11.2937M5.17635 4.30226C3.19968 5.60596 1.85775 7.41722 1.24214 8.3647C1.11706 8.55722 1.05451 8.65348 1.01965 8.80132C0.99346 8.91235 0.99345 9.0875 1.01962 9.19854C1.05447 9.34638 1.11673 9.44223 1.24126 9.63394C2.27016 11.2179 5.33276 15.2222 10 15.2222C11.8819 15.2222 13.5029 14.5712 14.8349 13.6903M1.77178 1L18.2282 17M8.06059 7.11438C7.56425 7.59695 7.25726 8.26362 7.25726 9C7.25726 10.4728 8.48522 11.6667 10 11.6667C10.7574 11.6667 11.4431 11.3682 11.9394 10.8856" stroke="#979797" stroke-width="1.3" stroke-linecap="round" stroke-linejoin="round"/>
</svg>
