<svg width="30" height="31" viewBox="0 0 30 31" fill="none" xmlns="http://www.w3.org/2000/svg">
<circle cx="15" cy="15.5" r="15" fill="#E4002B" fill-opacity="0.1"/>
<path d="M11.9917 20.4081V11.9414C11.9917 11.6081 12.0917 11.2831 12.275 11.0081L14.55 7.62478C14.9084 7.08311 15.8 6.69978 16.5584 6.98311C17.375 7.25811 17.9167 8.17478 17.7417 8.99144L17.3084 11.7164C17.275 11.9664 17.3417 12.1914 17.4834 12.3664C17.625 12.5248 17.8334 12.6248 18.0584 12.6248H21.4834C22.1417 12.6248 22.7084 12.8914 23.0417 13.3581C23.3584 13.8081 23.4167 14.3914 23.2084 14.9831L21.1584 21.2248C20.9 22.2581 19.775 23.0998 18.6584 23.0998H15.4084C14.85 23.0998 14.0667 22.9081 13.7084 22.5498L12.6417 21.7248C12.2334 21.4164 11.9917 20.9248 11.9917 20.4081Z" fill="#E4002B"/>
<path d="M9.34175 10.3169H8.48341C7.19175 10.3169 6.66675 10.8169 6.66675 12.0502V20.4336C6.66675 21.6669 7.19175 22.1669 8.48341 22.1669H9.34175C10.6334 22.1669 11.1584 21.6669 11.1584 20.4336V12.0502C11.1584 10.8169 10.6334 10.3169 9.34175 10.3169Z" fill="#E4002B"/>
</svg>
