<svg width="12" height="13" viewBox="0 0 12 13" fill="none" xmlns="http://www.w3.org/2000/svg">
<path d="M5.53671 10.4165H4.14782C3.46881 10.4165 2.91325 10.9565 2.91325 11.6165V11.7665H2.29597C2.04288 11.7665 1.83301 11.9705 1.83301 12.2165C1.83301 12.4625 2.04288 12.6665 2.29597 12.6665H9.70338C9.95647 12.6665 10.1663 12.4625 10.1663 12.2165C10.1663 11.9705 9.95647 11.7665 9.70338 11.7665H9.08609V11.6165C9.08609 10.9565 8.53054 10.4165 7.85153 10.4165H6.46264V9.04248C6.30832 9.06048 6.154 9.06648 5.99967 9.06648C5.84535 9.06648 5.69103 9.06048 5.53671 9.04248V10.4165Z" fill="#2D2D2D"/>
<path d="M10 6.45052C10.4074 6.30052 10.7654 6.05451 11.0494 5.77851C11.6235 5.16051 12 4.42251 12 3.55851C12 2.69451 11.3025 2.01651 10.4136 2.01651H10.0679C9.66667 1.2185 8.82716 0.666504 7.85185 0.666504H4.14815C3.17284 0.666504 2.33333 1.2185 1.9321 2.01651H1.58642C0.697531 2.01651 0 2.69451 0 3.55851C0 4.42251 0.376543 5.16051 0.950617 5.77851C1.23457 6.05451 1.59259 6.30052 2 6.45052C2.64198 7.98652 4.18519 9.06652 6 9.06652C7.81482 9.06652 9.35802 7.98652 10 6.45052ZM7.75309 4.53651L7.37037 4.99251C7.30864 5.05851 7.26543 5.19051 7.27161 5.28051L7.30864 5.86851C7.33333 6.22851 7.0679 6.41451 6.72222 6.28251L6.16049 6.06651C6.07407 6.03651 5.92593 6.03651 5.83951 6.06651L5.27778 6.28251C4.9321 6.41451 4.66667 6.22851 4.69136 5.86851L4.7284 5.28051C4.73457 5.19051 4.69136 5.05851 4.62963 4.99251L4.24691 4.53651C4.00617 4.26051 4.11111 3.95451 4.46914 3.86451L5.05556 3.72051C5.14815 3.69651 5.25926 3.61251 5.30864 3.53451L5.6358 3.04251C5.83951 2.73651 6.16049 2.73651 6.3642 3.04251L6.69136 3.53451C6.74074 3.61251 6.85185 3.69651 6.94445 3.72051L7.53086 3.86451C7.88889 3.95451 7.99383 4.26051 7.75309 4.53651Z" fill="#2D2D2D"/>
</svg>
