<svg width="30" height="31" viewBox="0 0 30 31" fill="none" xmlns="http://www.w3.org/2000/svg">
<circle cx="15" cy="15.5" r="15" fill="#E4002B" fill-opacity="0.1"/>
<path d="M19 7.6665H16.8333C14.1667 7.6665 12.5 9.33317 12.5 11.9998V15.3748H17.7083C18.05 15.3748 18.3333 15.6582 18.3333 15.9998C18.3333 16.3415 18.05 16.6248 17.7083 16.6248H12.5V19.9998C12.5 22.6665 14.1667 24.3332 16.8333 24.3332H18.9917C21.6583 24.3332 23.325 22.6665 23.325 19.9998V11.9998C23.3333 9.33317 21.6667 7.6665 19 7.6665Z" fill="#E4002B"/>
<path d="M8.79995 15.375L10.525 13.65C10.65 13.525 10.7083 13.3667 10.7083 13.2084C10.7083 13.05 10.65 12.8834 10.525 12.7667C10.2833 12.525 9.88328 12.525 9.64162 12.7667L6.84995 15.5584C6.60828 15.8 6.60828 16.2 6.84995 16.4417L9.64162 19.2334C9.88328 19.475 10.2833 19.475 10.525 19.2334C10.7666 18.9917 10.7666 18.5917 10.525 18.35L8.79995 16.625H12.5V15.375H8.79995Z" fill="#E4002B"/>
</svg>
