<svg width="24" height="24" viewBox="0 0 24 24" fill="none" xmlns="http://www.w3.org/2000/svg">
<path d="M8.15 14.9333C8.15 16.3509 9.29914 17.5 10.7167 17.5H13.1C14.6188 17.5 15.85 16.2688 15.85 14.75C15.85 13.2312 14.6188 12 13.1 12H10.9C9.38122 12 8.15 10.7688 8.15 9.25C8.15 7.73122 9.38122 6.5 10.9 6.5H13.2833C14.7009 6.5 15.85 7.64914 15.85 9.06667M12 4.85V6.5M12 17.5V19.15M23 12C23 18.0751 18.0751 23 12 23C5.92487 23 1 18.0751 1 12C1 5.92487 5.92487 1 12 1C18.0751 1 23 5.92487 23 12Z" stroke="white" stroke-width="1.5" stroke-linecap="round" stroke-linejoin="round"/>
</svg>
