<svg width="52" height="47" viewBox="0 0 52 47" fill="none" xmlns="http://www.w3.org/2000/svg">
<path d="M22.4222 21.9634C22.8266 21.5098 23.1705 21.0983 23.5377 20.7149C24.1093 20.1163 24.7972 19.7469 25.6384 19.7562C26.6656 19.7703 27.4464 20.2566 27.9669 21.1264C28.1435 21.4257 28.3015 21.4584 28.5851 21.3368C29.589 20.916 30.5417 21.089 31.3458 21.7577C32.1777 22.4544 32.5542 23.3803 32.2567 24.498C32.201 24.7177 32.187 24.9422 32.0429 25.1339C31.9453 25.2695 32.0615 25.2929 32.1638 25.3537C32.8795 25.7839 33.4001 26.3825 33.6185 27.2102C33.8788 28.1922 33.5627 29.0526 32.9074 29.7447C31.8059 30.9138 30.644 32.022 29.5007 33.1537C29.4495 33.2005 29.3891 33.2425 29.4077 33.3127C29.4309 33.4156 29.5285 33.3969 29.6029 33.4109C30.9043 33.5979 31.7501 34.3415 32.1359 35.5947C32.4194 36.5206 31.9221 37.7691 31.0344 38.4238C30.5092 38.8119 29.9654 39.1673 29.3705 39.5789C30.221 39.8407 31.0065 40.0745 31.8291 40.2101C33.2653 40.444 34.7107 40.3364 36.1515 40.3645C36.4861 40.3691 36.7185 40.5468 36.9416 40.7666C38.0431 41.8655 39.1399 42.9691 40.2461 44.0681C40.6179 44.4375 40.999 44.7929 41.3708 45.1576C41.6079 45.3914 41.8403 45.6486 41.8728 45.9947C41.9053 46.322 41.752 46.6073 41.4545 46.7569C41.1059 46.9346 40.7341 46.9533 40.4181 46.668C40.102 46.3828 39.7999 46.0742 39.4978 45.7702C38.3359 44.6152 37.1786 43.4601 36.026 42.2911C35.9098 42.1695 35.7983 42.1274 35.6449 42.1321C34.5202 42.1695 33.3954 42.1414 32.2753 42.0526C31.4899 41.9918 30.709 41.8562 29.9468 41.5943C29.259 41.3605 28.5665 41.1407 27.9065 40.8414C27.4696 40.6404 27.2186 40.9817 26.9584 41.1641C25.8011 41.9591 24.5788 42.5389 23.1891 42.8148C21.9389 43.0627 20.6933 43.072 19.4431 43.0393C18.8435 43.0206 18.4066 43.1749 17.9744 43.6378C17.003 44.69 15.9666 45.6814 14.9302 46.668C14.3399 47.2292 13.6753 47.0515 13.4522 46.3407C13.3499 46.004 13.4754 45.7281 13.6939 45.499C14.6792 44.4936 15.6691 43.4929 16.6591 42.4968C16.9333 42.2209 17.2215 41.9684 17.4864 41.6878C17.7606 41.3979 18.0906 41.2623 18.481 41.2623C19.2293 41.2623 19.9822 41.2436 20.7305 41.2623C22.7057 41.3278 24.4904 40.804 26.1125 39.649C27.3116 38.7932 28.5572 38.0076 29.7795 37.1893C30.3186 36.8245 30.5092 36.3569 30.3837 35.9174C30.1978 35.2767 29.4402 34.9821 28.7896 35.3235C28.1342 35.6695 27.5393 36.1138 26.8747 36.4364C26.2891 36.7217 25.8569 36.5066 25.4804 36.0576C25.1318 35.6461 25.1504 35.1411 25.5594 34.6781C26.0056 34.1684 26.489 33.6915 26.9677 33.2098C27.6973 32.4803 28.441 31.7695 29.166 31.0354C29.9933 30.1983 30.7974 29.3379 31.6386 28.5102C32.0755 28.08 31.9825 27.4206 31.5968 27.0699C31.2389 26.7426 30.5929 26.7706 30.1792 27.1774C29.0591 28.2857 27.953 29.408 26.8422 30.521C26.5773 30.7875 26.3123 31.0634 26.0335 31.3159C25.6152 31.6994 25.1551 31.6994 24.7833 31.344C24.4393 31.012 24.4114 30.4555 24.7833 30.0767C26.1218 28.7253 27.4836 27.3879 28.8314 26.0458C29.3333 25.5454 29.826 25.0451 30.3093 24.526C30.6951 24.1098 30.6486 23.5113 30.235 23.0857C29.9468 22.7911 29.2636 22.7818 28.9243 23.1138C28.0087 24.007 27.1164 24.9282 26.2008 25.826C25.2294 26.78 24.3185 27.7994 23.2867 28.6925C22.8963 29.0292 22.4222 28.9872 22.0829 28.6318C21.8041 28.3418 21.7251 27.8461 22.1155 27.4533C22.8405 26.7192 23.5702 25.985 24.2999 25.2508C24.9552 24.5962 25.6152 23.9415 26.2659 23.2821C26.6934 22.8472 26.7213 22.258 26.3774 21.8372C26.0428 21.435 25.248 21.4444 24.8483 21.8512C23.9792 22.7397 23.0961 23.6141 22.2177 24.4933C21.6786 25.031 21.1441 25.5688 20.591 26.0926C20.2378 26.4246 19.7916 26.3451 19.457 25.999C19.1549 25.6857 19.1131 25.2462 19.4198 24.8721C19.7405 24.4793 20.1216 24.1332 20.4702 23.7685C21.0372 23.1746 20.9024 22.3329 20.1913 22.0616C19.866 21.9354 19.5453 21.9494 19.2572 22.1926C18.4252 22.8893 17.7095 23.7077 16.938 24.4605C16.1525 25.2275 15.367 25.9944 14.5955 26.7753C13.4104 27.9724 12.4901 29.3285 12.0811 31.0073C11.8255 32.0594 11.858 33.121 11.9138 34.1731C11.9556 34.9727 11.6349 35.5245 11.1191 36.0389C10.0222 37.1238 8.93 38.2087 7.83779 39.2936C7.45203 39.6771 7.0105 39.8173 6.66657 39.649C6.0159 39.331 5.96477 38.6062 6.52714 38.0871C7.7123 36.9882 8.84169 35.8285 9.96643 34.6641C10.0919 34.5332 10.1291 34.3976 10.1198 34.2292C10.0873 33.2893 10.0733 32.34 10.2174 31.4094C10.3615 30.4648 10.6496 29.553 11.0633 28.6879C11.3979 27.9864 11.8162 27.3411 12.3042 26.7426C12.4576 26.5508 12.2949 26.476 12.2113 26.3872C11.7186 25.8774 11.3003 25.3257 11.1144 24.6195C10.8402 23.5627 10.9843 22.562 11.6303 21.6875C12.0718 21.0936 12.6342 20.612 13.3639 20.3829C13.5266 20.3314 13.5219 20.2566 13.4243 20.121C12.2066 18.4329 12.6667 16.2304 14.405 15.0847C14.5909 14.9631 14.8 14.8742 15.0138 14.8088C15.288 14.7246 15.3159 14.5656 15.1718 14.3692C14.8883 13.9811 14.7814 13.5322 14.7164 13.0786C14.5398 11.816 15.0138 10.8012 15.9341 9.9595C16.9565 9.02426 18.7738 8.88864 19.8939 9.59476C20.0751 9.71166 20.2146 9.78648 20.354 9.44512C20.9907 7.88325 22.399 7.0462 24.0815 7.23325C25.2898 7.36419 26.0567 8.17786 26.8375 8.95879C27.2512 9.37497 27.7113 9.74907 28.0413 10.2448C28.2923 10.6235 28.2644 10.9789 27.9483 11.2829C27.5765 11.643 27.2372 11.6804 26.8515 11.3764C26.1404 10.8199 25.5548 10.1325 24.918 9.49656C23.8723 8.45375 22.3525 8.93073 21.9389 10.1279C21.7018 10.8153 21.8924 11.4185 22.385 11.9189C23.4029 12.943 24.4393 13.9483 25.4572 14.9678C26.0846 15.5944 26.7027 16.2304 27.3116 16.871C27.6788 17.2591 27.6973 17.8016 27.3813 18.1289C27.0513 18.4796 26.5447 18.4937 26.1311 18.1009C25.3224 17.3339 24.5369 16.539 23.7468 15.7487C22.4222 14.4253 21.1069 13.0973 19.787 11.7739C19.4617 11.4466 19.1781 11.0491 18.6808 10.9602C17.5793 10.7545 16.7985 11.1145 16.5104 12.1059C16.3105 12.7886 16.4918 13.4386 17.0449 13.9764C18.2811 15.1782 19.4895 16.4127 20.7072 17.6379C21.265 18.1991 21.1255 18.8771 20.4051 19.167C20.0194 19.3214 19.7498 19.1156 19.4988 18.8678C18.7227 18.1196 18.0209 17.2919 17.175 16.6185C16.4685 16.0573 15.4135 16.2584 14.8279 16.9926C14.2516 17.708 14.3724 18.6854 15.0231 19.3073C15.7528 20.0041 16.4639 20.7242 17.161 21.4537C17.3284 21.6314 17.3609 21.5566 17.4817 21.435C17.9837 20.9206 18.5135 20.4764 19.2525 20.28C20.5027 19.948 21.8041 20.7336 22.4036 21.9447L22.4222 21.9634ZM14.563 22.0102C13.6242 22.0102 13.099 22.3936 12.8108 23.2541C12.5924 23.9088 12.8666 24.6569 13.4847 25.148C13.6009 25.2368 13.652 25.2882 13.7729 25.1667C14.4933 24.4325 15.2183 23.7077 15.948 22.9829C16.041 22.8893 16.0688 22.8379 15.9619 22.7257C15.5715 22.3048 15.1579 21.9354 14.563 22.0102Z" fill="#FC4D32"/>
<path d="M34.4361 16.5437C34.5198 16.352 34.4965 16.207 34.4687 16.0667C34.148 14.3879 35.3378 12.6577 36.9273 12.2135C38.6934 11.7225 40.2132 12.5455 41.0591 13.8408C41.9979 15.2811 42.9739 16.6886 43.9221 18.1196C44.7958 19.4336 45.6975 20.7289 46.2366 22.23C46.6131 23.2822 46.9105 24.3437 47.0453 25.466C47.2451 27.1354 47.1522 28.8001 47.1615 30.4695C47.1615 30.9559 47.5333 31.1523 47.7889 31.4375C48.3002 32.0127 48.9694 32.4429 49.3831 33.1116C49.6201 33.4951 49.555 33.9113 49.2065 34.2152C48.9276 34.4537 48.4257 34.4724 48.1468 34.2059C47.5984 33.6868 47.0639 33.1584 46.5433 32.6113C46.2691 32.3213 45.9577 32.0735 45.7021 31.7602C45.4558 31.4562 45.3675 31.1289 45.3721 30.7595C45.3814 29.7494 45.3861 28.7393 45.3954 27.7293C45.4047 26.8034 45.3954 25.8681 45.2327 24.9563C45.0375 23.8293 44.6239 22.7678 44.1219 21.739C43.5456 20.5512 42.7415 19.5178 42.0072 18.4329C41.1846 17.2124 40.3573 15.9919 39.5765 14.7433C38.8468 13.5696 37.2526 13.4807 36.4625 14.5422C36.0489 15.094 36.0814 15.9872 36.4858 16.6886C36.9691 17.5304 37.5733 18.2973 37.9684 19.1904C38.2519 19.8311 38.0985 20.3034 37.578 20.7289C37.1783 21.0516 36.5741 21.0983 36.1325 20.6775C35.533 20.1023 34.9288 19.5318 34.3385 18.9473C33.5902 18.2038 32.8466 17.4509 32.1169 16.6886C31.6893 16.2444 31.1735 15.889 30.8481 15.3372C30.5878 14.893 30.7273 14.6264 30.9829 14.3412C31.2711 14.0232 31.6661 13.9905 32.0193 14.2476C32.6654 14.7106 33.1487 15.3512 33.7297 15.8843C33.9528 16.0901 34.1759 16.3005 34.4268 16.539L34.4361 16.5437Z" fill="#FC4D32"/>
<path d="M38.5821 25.4986C38.675 25.8774 38.4101 26.0878 38.1917 26.3123C37.5968 26.9155 37.2342 27.5982 37.2947 28.4867C37.3272 28.9871 37.5363 29.3892 37.7966 29.7914C37.9035 29.9597 38.0197 30.1187 38.1173 30.2918C38.3729 30.7547 38.2986 31.1054 37.8896 31.4047C37.5735 31.6338 37.0948 31.5964 36.7927 31.3018C35.6773 30.2076 35.1288 28.1874 35.8864 26.6396C36.2257 25.9522 36.644 25.363 37.2017 24.8626C37.4899 24.6054 37.8245 24.54 38.1452 24.7223C38.4241 24.8813 38.6704 25.1105 38.5821 25.5033V25.4986Z" fill="#FC4D32"/>
<path d="M51.0985 36.8152C50.6105 36.8152 50.1736 36.4223 50.169 35.9688C50.1643 35.5432 50.578 35.1224 51.0009 35.1177C51.4936 35.1177 52.0048 35.5526 52.0002 35.9734C52.0002 36.3709 51.5215 36.8058 51.0985 36.8105V36.8152Z" fill="#FC4D32"/>
<path d="M30.3094 12.8306C30.3094 13.2936 29.9144 13.7284 29.4868 13.7284C29.0638 13.7284 28.627 13.2749 28.627 12.8353C28.627 12.3677 28.9895 11.9936 29.4542 11.9889C29.933 11.9795 30.3094 12.349 30.3141 12.8353L30.3094 12.8306Z" fill="#FC4D32"/>
<path d="M5.2303 15.1827C5.41621 14.874 5.61141 14.6028 5.8438 14.3597C6.18308 14.0043 6.56419 13.7143 7.03361 13.5647C7.6564 13.3636 8.2513 13.4712 8.83226 13.7471C9.7525 14.1866 10.2266 14.9535 10.3939 15.9309C10.5937 17.1093 10.208 18.1194 9.47364 19.0219C8.99028 19.6158 8.38144 20.0647 7.78188 20.5229C7.0522 21.0841 6.30392 21.6265 5.6486 22.2812C5.51381 22.4168 5.38833 22.5524 5.28143 22.7068C5.24889 22.7582 5.22566 22.7722 5.17918 22.7068C4.47738 21.8183 3.54319 21.1963 2.66478 20.5089C2.02805 20.0132 1.38202 19.5363 0.884718 18.8909C0.364177 18.2316 0.0295438 17.4834 0.0016577 16.6276C-0.0215807 15.7532 0.19686 14.9348 0.824298 14.3082C1.633 13.4992 2.84139 13.1345 3.91501 13.7892C4.38907 14.0791 4.76089 14.4766 5.06764 14.9395C5.11876 15.0143 5.16524 15.0891 5.2303 15.1827Z" fill="url(#paint0_linear_1_3215)"/>
<path d="M45.084 2.19717C45.3164 1.80905 45.5673 1.45833 45.8601 1.14969C46.2877 0.700775 46.7711 0.331351 47.3706 0.139625C48.1654 -0.117568 48.9183 0.0180428 49.6527 0.373438C50.8192 0.934587 51.4234 1.90257 51.6326 3.14178C51.8835 4.6335 51.3955 5.91947 50.4614 7.06047C49.8479 7.81335 49.0717 8.37917 48.3141 8.9637C47.3892 9.67917 46.4411 10.3619 45.6092 11.1943C45.4419 11.3626 45.2792 11.5403 45.1444 11.7367C45.0979 11.8022 45.0747 11.8162 45.0143 11.7414C44.1219 10.6191 42.9414 9.82413 41.826 8.95903C41.0219 8.33241 40.1993 7.72917 39.5672 6.90615C38.9119 6.05508 38.4843 5.11048 38.4517 4.02559C38.4192 2.91732 38.6981 1.87451 39.4928 1.08423C40.52 0.060129 42.0537 -0.402819 43.4108 0.429553C44.0104 0.798976 44.4844 1.30401 44.8702 1.88854C44.9353 1.98207 44.9957 2.07559 45.0747 2.19717H45.084Z" fill="url(#paint1_linear_1_3215)"/>
<defs>
<linearGradient id="paint0_linear_1_3215" x1="5.22314" y1="13.4516" x2="5.22314" y2="22.7508" gradientUnits="userSpaceOnUse">
<stop stop-color="#FF9383"/>
<stop offset="1" stop-color="#FC4D32"/>
</linearGradient>
<linearGradient id="paint1_linear_1_3215" x1="45.0736" y1="-6.10352e-05" x2="45.0736" y2="11.7919" gradientUnits="userSpaceOnUse">
<stop stop-color="#FF9383"/>
<stop offset="1" stop-color="#FC4D32"/>
</linearGradient>
</defs>
</svg>
