<svg width="46" height="46" viewBox="0 0 46 46" fill="none" xmlns="http://www.w3.org/2000/svg">
<path d="M45.9446 18.565C45.6864 17.0314 45.2494 15.8486 44.5741 14.8562C43.6803 13.5331 42.6177 12.6209 41.3366 12.0496C41.0884 11.9393 41.0089 11.809 41.0387 11.5183C41.1182 10.4658 41.0387 9.61381 40.8202 8.81192C40.5024 7.66921 39.9761 6.65682 39.2214 5.72462C37.6523 3.79004 35.5866 2.76762 33.084 2.67741C31.8526 2.62729 30.8099 2.82777 29.8962 3.25878C29.7075 3.349 29.5884 3.349 29.4096 3.10843C29.1216 2.72753 28.784 2.3767 28.4165 2.04592C26.8971 0.742835 25.1194 0.0511993 23.1233 0.00108077C21.9813 -0.0189666 20.8591 0.211579 19.7667 0.692716C18.4856 1.26407 17.4428 2.05594 16.6682 3.04829C16.4299 3.35902 16.2908 3.35902 15.9532 3.21869C14.5231 2.60724 12.9441 2.49698 11.2559 2.89793C9.47823 3.31893 7.9886 4.25113 6.82668 5.6745C5.44628 7.3685 4.84049 9.1427 4.96959 11.1073C5.00932 11.7689 4.9398 12.0596 4.41346 12.1598C4.33402 12.1799 4.29429 12.22 4.29429 12.23C2.96355 12.9818 1.90094 14.0242 1.13626 15.3474C0.659574 16.1693 0.311991 17.1516 0.0935111 18.3445C-0.0653837 19.1965 -0.02566 20.0986 0.242475 21.1812C0.500679 22.2437 0.897916 23.1859 1.45405 24.068C2.22866 25.2809 3.36079 26.2431 4.91001 27.025C5.0689 27.1052 5.0689 27.1353 5.0689 27.3157C5.08877 28.4183 5.23773 29.3004 5.55552 30.1023C5.774 30.6435 6.20103 30.8941 6.65785 30.7338C6.8664 30.6636 7.05509 30.4832 7.1544 30.2526C7.24378 30.0421 7.25371 29.8116 7.16433 29.6111C6.78695 28.729 6.76709 27.8169 6.78695 26.8045C6.79688 25.9925 6.7373 25.9023 5.98255 25.6317C5.00932 25.2909 4.16519 24.7396 3.5594 24.0379C1.99032 22.2537 1.43419 20.3492 1.86122 18.2242C2.11942 16.9311 2.70534 15.8185 3.63885 14.8261C4.28436 14.1445 5.0987 13.6233 6.062 13.2725C6.27055 13.1923 6.90613 12.9718 6.78695 12.2801C6.75716 12.1298 6.74723 11.9794 6.7373 11.8291C6.7373 11.7188 6.71744 11.6085 6.70751 11.4983C6.51882 10.0749 6.82668 8.7217 7.60129 7.47876C8.793 5.58428 10.5309 4.54182 12.7753 4.40149C13.9074 4.33132 15.0296 4.56187 16.2213 5.12319C16.8073 5.40386 17.1846 5.28357 17.5521 4.7022C17.7706 4.35137 18.0486 3.95042 18.4161 3.60961C19.4985 2.57717 20.7101 1.98577 22.1302 1.77528C23.3716 1.59485 24.5633 1.77528 25.7848 2.32658C26.9567 2.85784 27.9001 3.6898 28.5655 4.80244C28.8237 5.23345 29.2308 5.36376 29.7175 5.16329C30.5914 4.80244 31.3461 4.54182 32.1704 4.44158C33.7792 4.25113 35.2192 4.57189 36.4705 5.41388C38.7645 6.96756 39.7874 9.39329 39.271 12.0796C39.1618 12.6309 39.3902 13.0219 39.9264 13.2424C40.2343 13.3727 40.572 13.503 40.8699 13.6634C42.0119 14.2648 42.8859 15.1469 43.5214 16.3698C44.5841 18.3946 44.5841 20.4294 43.5214 22.4241C42.6773 24.0079 41.4062 25.1004 39.7477 25.6718C39.2511 25.8422 39.0029 26.2131 39.0823 26.6742C39.122 26.9348 39.1121 27.1854 39.0923 27.456C39.0923 27.5963 39.0724 27.7467 39.0724 27.887C39.0724 29.3906 38.4269 30.7338 37.1458 31.8765C36.103 32.8187 34.7326 33.3399 33.084 33.4201C32.3392 33.4602 31.5646 33.3299 30.651 33.0192C30.1445 32.8387 29.6877 32.5781 29.2706 32.3075C30.7701 31.8765 31.6937 30.8741 32.0016 29.3304C32.1307 28.6689 32.0016 28.0675 31.5845 27.5362C31.2667 27.1152 30.79 26.9548 30.4226 26.8646C30.2935 26.8345 30.2637 26.8045 30.2637 26.8045C30.2637 26.8045 30.2637 26.7644 30.3133 26.6742C30.5417 26.2933 30.641 25.8622 30.7205 25.4813C30.9191 24.499 30.9489 23.637 30.8198 22.7749C30.5715 21.1711 29.7472 19.838 28.3669 18.8256C27.3638 18.0838 26.182 17.5927 24.7619 17.3321C23.2425 17.0514 21.8422 17.3822 20.3526 18.3846C20.2334 18.4647 20.1242 18.565 20.0149 18.6552C19.7667 18.8757 19.5581 19.0762 19.1807 19.0561C17.3733 18.986 15.6354 20.2991 15.1389 22.1234C14.7019 23.7172 14.8906 25.3009 15.695 26.8446C15.3077 26.9648 14.9204 27.0952 14.6225 27.4059C13.9174 28.1176 13.8379 29.0899 14.3841 30.2927C14.8509 31.3051 15.6553 31.9667 16.837 32.2774C15.7446 33.0292 14.5529 33.4101 13.2619 33.4101C13.2321 33.4101 13.2023 33.4101 13.1725 33.4101C11.4446 33.39 9.95492 32.8588 8.75328 31.8564C8.32625 31.5056 7.77012 31.5156 7.47219 31.8765C7.18419 32.2173 7.25371 32.6884 7.65094 33.0693C8.63411 34.0215 9.89533 34.643 11.524 34.9738C12.3483 35.1342 13.1924 35.1743 14.0465 35.0941C15.3474 34.9638 16.559 34.5327 17.6514 33.811C17.7805 33.7309 17.8202 33.7208 17.8202 33.7208C17.85 33.7409 17.8997 33.8311 17.9195 33.8712C18.2274 34.4024 18.5054 34.7733 18.8332 35.064C19.2602 35.4449 19.4787 35.7556 19.2801 36.2468C19.2403 36.337 19.2503 36.4272 19.2602 36.5375C19.2801 36.9785 19.1907 37.2592 18.7239 37.4697C17.1747 38.1613 15.6255 38.9231 14.1358 39.6649L13.9769 39.7451C12.8051 40.3264 12.1099 41.2687 11.961 42.4815C11.8815 43.1632 11.9014 43.8548 11.9212 44.5264C11.9212 44.7469 11.9312 44.9574 11.9411 45.1779C11.9411 45.6089 12.1993 45.8896 12.6263 45.9598C12.6959 45.9698 12.7654 45.9798 12.825 45.9798C13.0832 45.9798 13.2619 45.8896 13.3612 45.7994C13.5598 45.629 13.6592 45.3583 13.6691 44.9975C13.6691 44.7369 13.6691 44.4662 13.6691 44.2056C13.6691 43.7946 13.6592 43.3737 13.6691 42.9627C13.7088 42.1909 13.9472 41.7298 14.4437 41.4591C14.6522 41.3388 14.8807 41.2386 15.0991 41.1384C15.3375 41.0281 15.5758 40.9078 15.8042 40.7875C16.4398 40.4367 17.1052 40.126 17.7507 39.8253C18.2572 39.5847 18.7835 39.3341 19.2999 39.0735C19.3794 39.0334 19.3992 39.0434 19.4092 39.0434C19.4092 39.0434 19.439 39.0534 19.4886 39.1637C19.6177 39.4143 19.7865 39.6348 19.9951 39.8353C20.9485 40.7374 22.1104 41.1083 23.5206 40.968C24.9109 40.8276 25.8941 40.2563 26.5296 39.2138C26.6488 39.0133 26.6885 39.0234 26.8276 39.1036C27.2347 39.304 27.6419 39.5045 28.0491 39.705C28.4264 39.8854 28.8137 40.0759 29.1911 40.2663C29.6877 40.5169 30.2239 40.3966 30.4523 39.9856C30.5616 39.7952 30.5814 39.5747 30.5119 39.3742C30.4325 39.1236 30.2339 38.9031 29.9558 38.7728C29.0322 38.3217 28.2576 37.9508 27.5426 37.6301C26.9368 37.3594 26.6985 37.159 26.7978 36.6477C26.8176 36.5475 26.7878 36.4473 26.758 36.3771C26.758 36.3571 26.7382 36.317 26.7382 36.2969C26.7382 36.1867 26.7382 36.0864 26.7183 35.9862C26.6885 35.7757 26.6885 35.6754 26.7779 35.5953C27.1553 35.2444 27.5227 34.8335 27.92 34.3122C28.1715 33.9848 28.4794 33.9313 28.8435 34.1518C30.0849 34.9136 31.4951 35.2545 33.1635 35.1843C34.0672 35.1442 34.9709 34.9638 35.825 34.623C37.2352 34.0817 38.3772 33.2497 39.2114 32.1571C40.3733 30.6435 40.8897 28.9997 40.7706 27.2555C40.7706 27.1653 40.7706 27.1353 40.8997 27.0751C41.5551 26.7644 42.0715 26.4536 42.5284 26.1028C43.9187 25.0202 44.8423 23.7974 45.3785 22.364C45.7956 21.2112 46.1631 19.9583 45.9247 18.585L45.9446 18.565ZM20.8591 34.643C19.9057 33.9915 19.2205 33.0292 18.7041 31.6058C18.1777 30.1724 17.989 28.8593 18.1181 27.5963C18.1777 26.9849 18.4161 26.1329 19.2006 25.5515C19.8461 25.0704 20.3228 24.509 20.6605 23.8375C20.6605 23.8375 20.6605 23.8174 20.6803 23.8074C20.6902 23.8074 20.7101 23.8274 20.73 23.8375C21.872 24.479 23.173 24.9501 24.8017 25.321C25.3677 25.4513 25.9338 25.5515 26.4998 25.6618C26.7878 25.7219 27.0858 25.772 27.3738 25.8322C27.6915 25.8923 27.8008 26.183 27.9398 26.614C28.0292 26.9047 28.0193 27.2054 28.0193 27.5262C28.0193 27.6866 28.0193 27.8469 28.0193 28.0073C28.0689 29.2102 27.8802 30.423 27.4532 31.6259C26.8077 33.4301 25.8047 34.5628 24.3746 35.074C23.1134 35.5251 21.9316 35.3848 20.8591 34.653V34.643ZM16.6384 30.3829C16.0326 30.1023 15.7049 29.3304 15.7744 28.709C15.7744 28.6789 15.8737 28.5787 16.0525 28.5085C16.1816 28.4584 16.2908 28.4484 16.3405 28.4484C16.3604 28.4484 16.3802 28.4484 16.3802 28.4484C16.3902 28.6188 16.41 28.7892 16.42 28.9596C16.4299 29.16 16.4497 29.3605 16.4696 29.561C16.4795 29.7214 16.5292 29.8717 16.559 30.0121C16.5888 30.1424 16.6285 30.2626 16.6384 30.3829ZM21.3656 22.2337L21.2464 22.1535C20.8889 21.9129 20.4718 21.8427 20.0944 21.963C19.7369 22.0733 19.4588 22.3439 19.3099 22.7048C19.0318 23.4064 18.6743 23.8675 18.1678 24.2083C17.6117 24.5792 17.2541 25.1205 17.0059 25.6517C16.5888 24.5592 16.5093 23.5768 16.7675 22.6045C16.9264 22.0031 17.3833 21.4217 17.9692 21.0809C18.2274 20.9306 18.5948 20.7802 19.0219 20.7802C19.1807 20.7802 19.3396 20.8003 19.5085 20.8504C19.9554 20.9707 20.3228 20.8504 20.6307 20.4595C21.4152 19.4671 22.5076 18.9659 23.7291 18.976C24.9903 18.996 26.2118 19.407 27.4532 20.2389C28.6151 21.0108 29.638 23.2962 29.1216 24.7496C29.0819 24.8498 29.062 24.9501 29.0521 25.0603C28.9627 24.9401 28.8634 24.8298 28.7641 24.7195C28.2775 24.2184 27.6518 24.1081 27.0361 23.9978L26.9269 23.9778C25.0301 23.637 23.3319 23.2861 21.7429 22.4642C21.6039 22.394 21.4847 22.3038 21.3556 22.2236L21.3656 22.2337ZM29.7274 28.4985C29.7274 28.4985 29.7274 28.4484 29.7175 28.4383C29.9161 28.3982 30.3034 28.6087 30.3332 28.6989C30.4126 29.2102 30.0551 30.1123 29.489 30.3829C29.499 30.2326 29.5387 30.0822 29.5884 29.9218C29.6479 29.7013 29.7075 29.4708 29.6976 29.2202C29.6976 29.0698 29.7175 28.8894 29.7473 28.729C29.7572 28.6488 29.7473 28.5686 29.7373 28.4985H29.7274ZM20.9286 37.5599C20.8988 37.4095 20.9286 37.2291 20.9584 37.0487C20.9782 36.9184 21.008 36.7781 21.008 36.6277L21.157 36.6778C21.3159 36.738 21.4649 36.7881 21.6238 36.8382C22.6764 37.159 23.7688 37.1088 24.8513 36.6878C24.9109 36.6678 25.0102 36.6277 25.0797 36.6077C25.0896 36.6678 25.0996 36.768 25.1194 36.8582C25.1294 36.9886 25.1592 37.1088 25.189 37.2391C25.2386 37.4797 25.2783 37.7002 25.2485 37.9208C25.1691 38.4821 24.8017 38.8931 24.2257 39.0935C23.3219 39.4043 22.4877 39.3742 21.733 39.0033C21.1173 38.7026 20.869 38.2716 20.9485 37.6301V37.6V37.5699L20.9286 37.5599Z" fill="#00C092"/>
<path d="M36.6632 16.6393C36.8349 16.3437 37.0203 16.0765 37.2367 15.8414C37.5526 15.4994 37.9098 15.218 38.3528 15.072C38.94 14.8761 39.4964 14.9794 40.039 15.2501C40.9009 15.6776 41.3474 16.4149 41.5019 17.3589C41.6873 18.4952 41.3268 19.4748 40.6365 20.344C40.1832 20.9175 39.6097 21.3485 39.0499 21.7938C38.3665 22.3388 37.666 22.8589 37.0513 23.493C36.9276 23.6212 36.8074 23.7566 36.7078 23.9062C36.6735 23.956 36.6563 23.9667 36.6117 23.9097C35.9523 23.0548 35.0801 22.4492 34.2559 21.7902C33.6618 21.3129 33.0539 20.8534 32.5869 20.2264C32.1027 19.5781 31.7867 18.8586 31.7627 18.0321C31.7386 17.1879 31.9447 16.3935 32.5319 15.7915C33.2909 15.0114 34.4241 14.6588 35.4269 15.2928C35.8699 15.5742 36.2202 15.959 36.5052 16.4042C36.5533 16.4755 36.598 16.5467 36.6563 16.6393H36.6632Z" fill="url(#paint0_linear_12_447)"/>
<path d="M26.0728 42.3212H24.0767C22.7559 42.3212 21.4251 42.3212 20.0944 42.3212C19.1907 42.3212 18.565 42.6519 18.1877 43.3135C17.8301 43.945 17.8997 44.6166 17.9692 45.2982C18.0188 45.7793 18.3366 46.0299 18.8431 45.9898C19.4886 45.9397 19.6078 45.4987 19.6078 45.2481C19.6078 45.1178 19.6078 44.9975 19.6078 44.8672C19.6078 44.7469 19.6078 44.6166 19.6078 44.4963C19.6144 44.1956 19.7667 44.0452 20.0646 44.0452C20.7796 44.0452 21.4947 44.0452 22.2097 44.0452H23.0141H23.7688H26.043C26.2516 44.0452 26.3707 44.0553 26.3906 44.0853C26.4105 44.1054 26.4303 44.2357 26.4303 44.4863C26.4303 44.8572 26.4303 45.228 26.6289 45.5989C26.7779 45.8595 27.0063 45.9999 27.3043 45.9999C27.334 45.9999 27.3738 45.9999 27.4036 45.9999C28.0391 45.9397 28.1285 45.5688 28.1384 45.4085V45.3183C28.1782 44.8171 28.208 44.2958 28.1087 43.7846C27.9796 43.083 27.1255 42.3212 26.0629 42.3212H26.0728Z" fill="#00C092"/>
<path d="M34.0573 43.1732C34.0573 42.1007 33.7395 41.2487 33.0741 40.557C32.6173 40.0859 32.2101 40.2363 31.9519 40.4468C31.7831 40.5871 31.6739 40.8076 31.654 41.0382C31.6341 41.2587 31.6937 41.4692 31.8228 41.6196C32.1903 42.0506 32.3492 42.5818 32.3492 43.3336C32.3492 43.5341 32.3492 43.7245 32.3492 43.925C32.3492 44.2859 32.3392 44.6467 32.3492 45.0076C32.3591 45.4887 32.5378 45.7193 32.6868 45.8395C32.7861 45.9197 32.945 45.9999 33.1734 45.9999C33.2529 45.9999 33.3423 45.9999 33.4316 45.9699C33.9977 45.8395 34.0374 45.3384 34.0573 45.0577C34.0771 44.8071 34.0672 44.5565 34.0573 44.3159C34.0573 44.2157 34.0573 44.1054 34.0573 44.0052V43.1732Z" fill="#00C092"/>
<path d="M8.66068 14.5511C9.05124 13.9171 9.97297 13.9171 10.3635 14.5511L11.3854 16.21C11.5225 16.4326 11.7413 16.5926 11.995 16.6558L13.8879 17.1277C14.6041 17.3062 14.8867 18.1725 14.4136 18.739L13.1479 20.2546C12.9819 20.4533 12.8995 20.7086 12.918 20.9669L13.0587 22.9349C13.1117 23.6751 12.3682 24.2131 11.6816 23.9313L9.89181 23.1967C9.64852 23.0968 9.37569 23.0968 9.1324 23.1967L7.34263 23.9313C6.65604 24.2131 5.91253 23.6751 5.96547 22.9349L6.10621 20.9669C6.12468 20.7086 6.04227 20.4533 5.8763 20.2546L4.6106 18.739C4.13748 18.1725 4.42011 17.3062 5.13629 17.1277L7.02925 16.6558C7.2829 16.5926 7.50171 16.4326 7.63882 16.21L8.66068 14.5511Z" fill="url(#paint1_linear_12_447)"/>
<path d="M22.8585 5.98291C24.072 5.98291 25.2908 5.98291 26.5096 5.98843C27.0626 5.98843 27.4814 6.30325 27.8143 6.72853C28.1096 7.10411 28.2063 7.55148 28.2063 8.02647C28.2009 9.46801 28.2009 10.9095 28.2063 12.3511C28.2063 13.2127 27.5566 14.0688 26.7405 14.2069C26.515 14.2455 26.2948 14.2842 26.064 14.2787C25.0116 14.2787 23.9592 14.2787 22.9015 14.2731C22.7404 14.2731 22.6706 14.2897 22.7243 14.4885C22.7887 14.7095 22.8424 14.9304 22.9391 15.1458C23.0196 15.3281 23.1163 15.5269 22.9606 15.7147C22.8156 15.8969 22.6223 15.8583 22.4183 15.8362C21.8599 15.7699 21.382 15.5324 20.9417 15.1955C20.6733 14.9911 20.4585 14.7316 20.2921 14.4388C20.233 14.3284 20.1578 14.2787 20.0236 14.2787C19.6585 14.2842 19.2934 14.2787 18.9229 14.2069C18.2893 14.0798 17.6074 13.3453 17.5645 12.6825C17.4839 11.379 17.543 10.07 17.5323 8.76105C17.5323 8.28054 17.4839 7.7945 17.6128 7.32503C17.747 6.82243 18.0585 6.46895 18.488 6.20936C18.7779 6.03262 19.084 5.98291 19.4169 5.98291C20.5605 5.99396 21.7095 5.98291 22.8532 5.98291H22.8585Z" fill="url(#paint2_linear_12_447)"/>
<defs>
<linearGradient id="paint0_linear_12_447" x1="36.6555" y1="14.9656" x2="36.6555" y2="23.9482" gradientUnits="userSpaceOnUse">
<stop stop-color="#BAFFEF"/>
<stop offset="1" stop-color="#00C092"/>
</linearGradient>
<linearGradient id="paint1_linear_12_447" x1="9.5121" y1="13.1689" x2="9.5121" y2="25.7446" gradientUnits="userSpaceOnUse">
<stop stop-color="#BAFFEF"/>
<stop offset="1" stop-color="#00C092"/>
</linearGradient>
<linearGradient id="paint2_linear_12_447" x1="22.8638" y1="5.98291" x2="22.8638" y2="15.8555" gradientUnits="userSpaceOnUse">
<stop stop-color="#BAFFEF"/>
<stop offset="1" stop-color="#00C092"/>
</linearGradient>
</defs>
</svg>
