<svg width="53" height="50" viewBox="0 0 53 50" fill="none" xmlns="http://www.w3.org/2000/svg">
<path d="M49.23 32.3479C49.23 36.5698 49.2098 40.7917 49.2401 45.0137C49.2401 46.333 48.1772 47.5204 46.7296 47.5204C41.9312 47.5204 37.1328 47.5204 32.3242 47.5204C31.7067 47.5204 31.2512 47.7437 30.8867 48.2308C30.249 49.0732 29.3682 49.5197 28.3762 49.8039C27.2019 50.1388 26.0579 50.0272 24.9545 49.6009C24.2155 49.3269 23.5474 48.9007 23.0817 48.2207C22.7477 47.7335 22.2921 47.5204 21.6948 47.5204C16.8964 47.5204 12.098 47.5204 7.28948 47.5204C5.99371 47.5204 5.17373 46.7796 4.82954 45.7545C4.72831 45.4399 4.69794 45.105 4.69794 44.7701C4.69794 36.8134 4.69794 28.8465 4.71818 20.8898C4.71818 20.3317 4.6372 19.7633 4.7688 19.195C4.97126 18.312 5.4673 17.7133 6.26704 17.3276C6.7732 17.084 7.30973 17.1246 7.83614 17.1449C8.18033 17.1551 8.27144 17.0536 8.27144 16.7085C8.27144 15.7139 8.93957 14.9325 9.89115 14.6889C11.521 14.2728 13.1812 14.1713 14.8515 14.1409C16.532 14.1104 18.2023 14.2119 19.8423 14.5367C20.9457 14.7599 22.0593 15.0035 23.1222 15.3993C24.2661 15.8256 25.4202 16.2823 26.5034 16.8608C26.8476 17.0434 27.1513 17.0333 27.5056 16.8608C28.8013 16.2011 30.1174 15.5617 31.5144 15.1253C32.7393 14.7396 33.9844 14.4149 35.2498 14.1916C36.9505 13.8973 38.6614 13.8262 40.3823 13.9785C41.5262 14.08 42.6499 14.2931 43.7736 14.5265C44.6543 14.7193 45.3731 15.1354 45.6464 16.0894C45.7071 16.3127 45.7071 16.5258 45.6869 16.739C45.6565 17.084 45.7982 17.1754 46.1121 17.1449C46.3145 17.1246 46.517 17.1449 46.7195 17.1449C48.1165 17.0637 49.2908 18.3932 49.2806 19.7024C49.23 23.9244 49.2604 28.1463 49.2604 32.3682L49.23 32.3479ZM27.8194 43.5928C28.032 43.5116 28.1838 43.471 28.3256 43.4C29.0241 43.0752 29.7124 42.7403 30.4514 42.4967C30.988 42.3141 31.5447 42.172 32.0813 41.9893C33.7111 41.4413 35.3916 41.1672 37.1024 41.0658C39.2384 40.9338 41.3744 41.0658 43.48 41.5123C43.7736 41.5732 43.9052 41.492 43.9558 41.1875C44.0166 40.7917 43.9356 40.4061 43.9457 40.0103C43.9457 32.9568 43.9457 25.8932 43.9558 18.8398C43.9558 18.17 43.9659 17.5001 43.9761 16.8303C43.9761 16.4852 43.9052 16.2721 43.4901 16.2214C42.6803 16.1097 41.8907 15.9169 41.0808 15.8053C39.5623 15.5921 38.054 15.5921 36.5456 15.7545C35.0777 15.9169 33.6402 16.2417 32.223 16.6679C30.8462 17.0942 29.5707 17.7234 28.2648 18.3222C27.9307 18.4744 27.8295 18.647 27.8295 19.0022C27.8295 26.2586 27.8295 33.5252 27.8295 40.7816C27.8295 41.695 27.8295 42.6185 27.8295 43.5928H27.8194ZM26.0478 43.4913C26.0681 43.4101 26.0782 43.3797 26.0782 43.3492C26.0782 35.1591 26.0782 26.9589 26.0782 18.7687C26.0782 18.5556 25.9871 18.4744 25.815 18.3932C24.5698 17.8249 23.3247 17.2464 22.0188 16.8405C20.0751 16.2214 18.0707 15.9372 16.0461 15.8256C14.1733 15.7241 12.3309 15.988 10.4884 16.262C10.1645 16.3127 9.97214 16.4649 9.97214 16.8709C9.99238 19.8953 9.97214 22.9298 9.97214 25.9541C9.97214 30.9474 9.97214 35.9406 9.97214 40.9338C9.97214 41.4819 10.0734 41.5529 10.62 41.4413C12.179 41.1469 13.7481 40.944 15.3273 40.9034C17.3216 40.8526 19.2956 41.0658 21.219 41.6036C22.4743 41.9487 23.7195 42.3445 24.8837 42.9331C25.2481 43.1158 25.6226 43.3086 26.0276 43.5116L26.0478 43.4913ZM47.5091 32.2971C47.5091 32.2971 47.4989 32.2971 47.4888 32.2971V21.9453C47.4888 21.1436 47.4888 20.3418 47.4888 19.54C47.4888 19.1036 47.256 18.8702 46.8308 18.8601C46.5676 18.8601 46.3044 18.8804 46.0513 18.8601C45.7375 18.8296 45.6666 18.9616 45.6768 19.266C45.6869 23.7011 45.6869 28.1463 45.6869 32.5813C45.6869 35.5042 45.6869 38.4271 45.6666 41.3601C45.6666 42.4866 44.5227 43.3594 43.4598 43.2478C42.4475 43.1361 41.4351 43.0042 40.4228 42.8519C38.6917 42.5881 36.991 42.8114 35.2903 43.0346C34.116 43.1869 32.962 43.4913 31.8181 43.8465C30.8665 44.1409 29.9453 44.4758 29.0645 44.9325C28.4167 45.2674 27.7991 45.3689 27.131 45.1151C26.9589 45.0441 26.7969 45.0543 26.6248 45.105C26.1592 45.2471 25.6733 45.2572 25.2481 45.0035C23.76 44.1307 22.1301 43.5827 20.4699 43.1767C19.3766 42.9128 18.2428 42.7505 17.109 42.6693C15.2362 42.5475 13.3938 42.72 11.5514 43.0346C11.0553 43.1158 10.5593 43.2985 10.0531 43.197C8.9092 42.9737 8.23094 42.1111 8.23094 40.9135C8.23094 33.8398 8.23094 26.766 8.23094 19.6923C8.23094 19.1375 7.95087 18.8601 7.39072 18.8601C6.66184 18.8601 6.40876 19.1036 6.40876 19.8445C6.40876 28.1666 6.40876 36.4988 6.40876 44.8208C6.40876 45.5515 6.62135 45.7647 7.32998 45.7647C12.1284 45.7647 16.9369 45.7647 21.7353 45.7647C22.4338 45.7647 23.0412 46.0184 23.6284 46.3939C24.0738 46.6781 24.2965 47.1652 24.7014 47.4595C25.9365 48.3831 27.2829 48.4034 28.6596 47.8553C29.0038 47.7132 29.2771 47.4697 29.5201 47.1754C30.2692 46.2518 31.2107 45.7545 32.4255 45.7545C37.1429 45.7748 41.8502 45.7545 46.5676 45.7545C47.337 45.7545 47.5091 45.5921 47.5091 44.8107C47.5091 40.6294 47.5091 36.4582 47.5091 32.2769V32.2971Z" fill="#4EAEEA"/>
<path d="M37.8009 34.9359C37.3049 34.9663 36.8392 34.804 36.4748 34.5096C36.0799 34.195 35.7256 34.1138 35.2701 34.327C34.2881 34.7735 33.3264 34.6416 32.4153 34.1646C32.0509 33.9718 31.7371 33.9921 31.3828 34.0834C30.8564 34.2153 30.3603 33.7688 30.5527 33.2918C30.7248 32.8757 30.6235 32.5915 30.4616 32.2059C30.0465 31.2214 29.9453 30.2065 30.3907 29.1917C30.5324 28.877 30.4919 28.6538 30.2895 28.3696C29.3075 27.0401 29.7631 25.3351 31.2107 24.5232C32.4862 23.8128 33.6605 24.1172 34.855 24.6754C34.9158 24.7059 34.9765 24.7566 35.0474 24.7871C35.3511 24.9291 35.5738 25.0103 35.8471 24.6348C36.4545 23.8128 37.3049 23.3764 38.3577 23.4981C38.8436 23.5489 38.8132 23.1226 38.9954 22.8892C39.1169 22.7268 39.0764 22.4325 39.3396 22.3716C39.5218 22.331 39.7142 22.3006 39.8762 22.4427C40.0584 22.5949 40.0989 22.8486 39.9976 23.0009C39.613 23.5996 39.7749 24.0157 40.3519 24.3405C40.3621 24.3405 40.3722 24.3608 40.3823 24.371C40.7333 24.7566 41.1652 24.8547 41.6781 24.6653C41.9312 24.5739 42.1336 24.645 42.2754 24.8682C42.4171 25.0915 42.407 25.2945 42.1944 25.4873C42.0324 25.6396 41.8299 25.7309 41.6275 25.7816C41.2833 25.8527 41.2124 26.0658 41.2327 26.3804C41.2732 26.8371 41.1821 27.2532 40.9796 27.6795C40.7265 28.2275 40.3519 28.6538 39.8559 28.9582C39.6737 29.0699 39.6636 29.1308 39.7547 29.3236C40.1495 30.2268 40.6253 31.0996 40.5443 32.1551C40.4532 33.4846 39.3396 34.946 37.811 34.946L37.8009 34.9359ZM39.5117 31.8811C39.5016 31.1808 38.9752 29.76 38.4488 28.9988C38.2261 28.6842 38.0236 28.3493 37.7908 28.0448C37.6592 27.8622 37.5276 27.8013 37.3757 28.0651C37.0417 28.6335 36.7278 29.212 36.5051 29.831C36.2115 30.6429 35.8977 31.4548 36.0799 32.3479C36.2925 33.373 37.2441 34.1747 38.3779 33.7891C39.0461 33.5557 39.532 32.764 39.5117 31.8811ZM32.8101 28.5827C34.1768 28.5827 35.2903 27.9839 36.414 27.4156C36.8594 27.1923 36.8291 26.9894 36.3836 26.695C35.7762 26.2891 35.1486 25.9237 34.4704 25.6193C33.7212 25.2742 32.9721 25.0611 32.1521 25.2438C31.5042 25.396 31.0082 25.741 30.826 26.3906C30.664 26.9488 30.745 27.5171 31.1803 27.9636C31.646 28.4406 32.2129 28.6335 32.8101 28.5827ZM40.2305 26.4109C40.1799 26.2079 40.1394 25.9745 40.0584 25.7613C39.7547 24.9697 39.1574 24.5536 38.3273 24.4927C37.6086 24.442 37.0518 24.7363 36.6064 25.2945C36.4849 25.4467 36.5051 25.5685 36.6468 25.6599C37.5681 26.2891 38.2969 27.1111 39.0056 27.9738C39.1675 28.1768 39.289 28.1666 39.4712 28.0245C39.9976 27.6287 40.1394 27.0401 40.2406 26.4109H40.2305ZM34.0148 33.5658C34.3185 33.5049 34.6222 33.444 34.936 33.3933C35.1891 33.3527 35.1284 33.2512 34.9968 33.1193C33.8832 32.0029 32.7696 30.8865 31.6561 29.76C31.4131 29.5164 31.2917 29.6281 31.2309 29.9021C31.0588 30.6937 31.1702 31.4041 31.5549 32.145C31.7877 32.6017 31.9699 32.9163 32.4862 33.1294C32.9924 33.3324 33.4884 33.4542 34.0249 33.5658H34.0148ZM34.9968 31.6984C35.098 30.9981 35.2397 30.4197 35.4624 29.8513C35.5738 29.5773 35.8471 29.2119 35.6649 28.9887C35.5232 28.8263 35.1587 29.1308 34.8854 29.2018C34.2983 29.3642 33.7314 29.557 33.1138 29.7397C33.6909 30.4501 34.359 30.9981 34.9968 31.6883V31.6984Z" fill="#4EAEEA"/>
<path d="M12.422 28.5624C12.422 26.5428 12.422 24.513 12.422 22.4934C12.422 21.4379 13.3634 20.5347 14.4264 20.5245C15.5602 20.5245 16.694 20.4941 17.8176 20.5245C19.8625 20.5956 21.3506 21.5698 22.2415 23.4169C22.8489 24.6855 22.8691 25.9643 22.2617 27.2431C22.1808 27.4156 22.1605 27.5577 22.3225 27.7403C23.3753 28.8973 23.8612 30.2776 23.7195 31.8303C23.5778 33.2816 22.9299 34.4893 21.7758 35.4027C20.6825 36.2654 19.4374 36.6409 18.0404 36.5901C16.8964 36.5495 15.7525 36.5597 14.6086 36.5901C13.3533 36.6307 12.3713 35.697 12.4118 34.4386C12.4726 32.4799 12.4321 30.511 12.4321 28.5421L12.422 28.5624ZM13.3735 28.5929C13.3735 30.5719 13.3735 32.5509 13.3735 34.5299C13.3735 35.1795 13.7481 35.5448 14.396 35.5448C15.6918 35.5448 16.9774 35.5245 18.2732 35.5448C19.5386 35.5753 20.6319 35.1896 21.5329 34.2864C22.778 33.0482 23.021 31.0793 22.3427 29.557C22.0795 28.9785 21.6948 28.5117 21.2393 28.0753C21.0166 27.8621 20.9255 27.6592 21.1178 27.3242C21.7657 26.1977 21.8872 25.0103 21.3405 23.8026C20.7939 22.605 19.8727 21.8236 18.5668 21.6612C17.2305 21.4887 15.874 21.6206 14.5276 21.5901C13.7076 21.5698 13.3837 21.9657 13.3837 22.7674C13.3837 24.7058 13.3837 26.6341 13.3837 28.5726L13.3735 28.5929Z" fill="#4EAEEA"/>
<path d="M15.4589 31.2822C15.4589 30.7849 15.4792 30.2978 15.4589 29.8005C15.4387 29.3641 15.5905 29.1713 16.0461 29.151C17.109 29.1205 18.1922 28.9581 19.2349 29.2829C20.308 29.6178 20.8647 30.7849 20.6623 31.7694C20.4598 32.7944 19.5082 33.515 18.425 33.5048C17.6759 33.5048 16.9167 33.515 16.1676 33.5353C15.631 33.5454 15.4792 33.4033 15.4589 32.8553C15.4387 32.3377 15.4589 31.81 15.4589 31.2822ZM17.6253 32.4899C17.9189 32.4899 18.2023 32.5001 18.4959 32.4899C19.1438 32.4696 19.5993 32.0637 19.6499 31.4954C19.7107 30.7443 19.4374 30.3485 18.7085 30.1963C18.0404 30.0542 17.352 30.1557 16.6838 30.1354C16.5016 30.1354 16.4308 30.2369 16.4308 30.4094C16.4308 31.0184 16.4308 31.6273 16.4308 32.2362C16.4308 32.4189 16.4915 32.5001 16.6838 32.4899C16.9977 32.4798 17.3216 32.4899 17.6354 32.4899H17.6253Z" fill="#4EAEEA"/>
<path d="M15.4589 25.335C15.4589 24.9697 15.4792 24.6043 15.4589 24.2491C15.4286 23.8127 15.6715 23.6097 16.0461 23.6097C16.7648 23.6097 17.4836 23.5387 18.2124 23.6605C18.8603 23.7721 19.5285 24.3912 19.6095 25.2031C19.6601 25.6699 19.488 26.4108 18.7996 26.8066C18.4756 26.9994 18.1517 27.0908 17.7873 27.0908C17.19 27.0908 16.6029 27.0806 16.0056 27.0908C15.631 27.0908 15.4792 26.9081 15.4691 26.563C15.4691 26.1571 15.4691 25.7511 15.4691 25.3452L15.4589 25.335ZM17.3722 24.6347C17.2609 24.6347 17.1698 24.6347 17.0888 24.6347C16.8964 24.6347 16.6332 24.5637 16.5421 24.6652C16.2789 24.9291 16.4611 25.3147 16.4308 25.6395C16.4206 25.7714 16.3295 25.9642 16.5522 26.0556C16.5624 26.0556 16.5826 26.0657 16.5927 26.0657C17.1394 26.0657 17.686 26.2078 18.2124 25.9642C18.668 25.741 18.7186 25.2335 18.3643 24.858C18.0606 24.5333 17.6962 24.6753 17.3722 24.6347Z" fill="#4EAEEA"/>
<path d="M6.05314 1.00803C6.23035 0.615924 6.78719 0.615924 6.9644 1.00803L8.45604 4.30854C8.50617 4.41945 8.59504 4.50828 8.70598 4.55835L12.0078 6.04864C12.4002 6.22576 12.4002 6.78299 12.0078 6.9601L8.70598 8.4504C8.59504 8.50047 8.50617 8.58929 8.45604 8.70021L6.9644 12.0007C6.78719 12.3928 6.23035 12.3928 6.05314 12.0007L4.5615 8.70021C4.51137 8.58929 4.42251 8.50047 4.31157 8.4504L1.00971 6.9601C0.617297 6.78299 0.617297 6.22576 1.00971 6.04864L4.31157 4.55835C4.42251 4.50828 4.51137 4.41945 4.5615 4.30854L6.05314 1.00803Z" fill="url(#paint0_linear_9_422)"/>
<path d="M47.8952 4.72483C48.0725 4.33272 48.6293 4.33272 48.8065 4.72483L49.7196 6.74511C49.7697 6.85603 49.8586 6.94485 49.9695 6.99493L51.9903 7.90701C52.3827 8.08413 52.3827 8.64136 51.9903 8.81847L49.9695 9.73056C49.8586 9.78063 49.7697 9.86946 49.7196 9.98037L48.8065 12.0007C48.6293 12.3928 48.0725 12.3928 47.8952 12.0007L46.9822 9.98037C46.9321 9.86946 46.8432 9.78063 46.7323 9.73056L44.7115 8.81847C44.319 8.64136 44.319 8.08413 44.7115 7.90701L46.7323 6.99493C46.8432 6.94485 46.9321 6.85603 46.9822 6.74511L47.8952 4.72483Z" fill="url(#paint1_linear_9_422)"/>
<ellipse cx="26.9649" cy="8.36282" rx="1.85965" ry="1.85843" fill="url(#paint2_linear_9_422)"/>
<ellipse cx="20.4561" cy="4.64589" rx="0.929825" ry="0.929214" fill="url(#paint3_linear_9_422)"/>
<ellipse cx="35.3333" cy="8.36281" rx="0.929825" ry="0.929214" fill="url(#paint4_linear_9_422)"/>
<defs>
<linearGradient id="paint0_linear_9_422" x1="6.50877" y1="-0.00012207" x2="6.50877" y2="13.0089" gradientUnits="userSpaceOnUse">
<stop stop-color="#B4E2FF"/>
<stop offset="1" stop-color="#4EAEEA"/>
</linearGradient>
<linearGradient id="paint1_linear_9_422" x1="48.3509" y1="3.71667" x2="48.3509" y2="13.0088" gradientUnits="userSpaceOnUse">
<stop stop-color="#B4E2FF"/>
<stop offset="1" stop-color="#4EAEEA"/>
</linearGradient>
<linearGradient id="paint2_linear_9_422" x1="26.9649" y1="6.50439" x2="26.9649" y2="10.2212" gradientUnits="userSpaceOnUse">
<stop stop-color="#B4E2FF"/>
<stop offset="1" stop-color="#4EAEEA"/>
</linearGradient>
<linearGradient id="paint3_linear_9_422" x1="20.4561" y1="3.71667" x2="20.4561" y2="5.5751" gradientUnits="userSpaceOnUse">
<stop stop-color="#B4E2FF"/>
<stop offset="1" stop-color="#4EAEEA"/>
</linearGradient>
<linearGradient id="paint4_linear_9_422" x1="35.3333" y1="7.43359" x2="35.3333" y2="9.29202" gradientUnits="userSpaceOnUse">
<stop stop-color="#B4E2FF"/>
<stop offset="1" stop-color="#4EAEEA"/>
</linearGradient>
</defs>
</svg>
