<svg width="57" height="49" viewBox="0 0 57 49" fill="none" xmlns="http://www.w3.org/2000/svg">
<path d="M51.5271 25.2015C51.5271 24.4044 51.2174 23.6789 50.6497 23.0965C49.9478 22.3914 49.091 22.0644 48.1001 22.136C47.8833 22.1564 47.8833 22.1155 47.8833 22.0133C47.8111 21.2061 47.3363 20.6441 46.4279 20.2967C45.4989 19.939 44.5389 19.9595 43.7132 20.0105C43.5067 20.0208 43.4964 19.9901 43.4654 19.8164C43.3312 19.05 43.1248 18.2632 42.9596 17.6399C42.6396 16.4035 42.0513 15.1773 41.1223 13.7876C40.0591 12.1935 38.6656 10.9264 36.8592 9.89439C34.9599 8.82146 32.9471 8.2288 30.6762 8.08574C29.1279 7.99378 27.5383 8.15727 25.9487 8.57622C24.7822 8.89299 23.6158 9.39369 22.4081 10.109C20.6327 11.1615 19.1979 12.6023 18.1657 14.3802C17.6393 15.2795 17.0509 16.3728 16.7103 17.6297C16.5245 18.3245 16.3284 19.0807 16.2045 19.8573C16.1838 19.9901 16.1735 20.0208 15.998 20.0105C15.389 19.9799 14.5839 19.9697 13.7685 20.1332C12.9117 20.3171 11.8795 20.92 11.7969 22.0236C11.7969 22.1053 11.7969 22.136 11.6421 22.136H11.6318C11.1879 22.136 10.806 22.1564 10.4137 22.2586C9.0925 22.6367 8.15317 23.8526 8.14285 25.2321C8.14285 27.2656 8.14285 29.299 8.14285 31.3325V35.614C8.14285 37.7394 8.14285 39.8648 8.14285 41.9902C8.14285 42.3989 8.19446 42.7361 8.30801 43.0631C8.65896 44.0747 9.77376 45.1579 11.1466 45.1579C11.1466 45.1579 11.1569 45.1579 11.1673 45.1579C13.7272 45.1375 16.2871 45.1375 18.8367 45.1477C20.4366 45.1477 22.0365 45.1477 23.6365 45.1477C23.9874 45.1477 24.0287 45.1783 24.0494 45.3929C24.0597 45.5564 24.101 45.7301 24.1629 45.9038C24.679 47.3242 26.0932 48.8161 28.0647 48.9387C28.6531 48.9795 29.2827 49 29.9846 49C30.3459 49 30.7382 49 31.1407 48.9795C31.6568 48.9693 32.4103 48.908 33.1226 48.5504C34.4541 47.8658 35.2593 46.9257 35.5586 45.6382C35.6343 45.318 35.8476 45.1579 36.1986 45.1579H48.2962C48.6575 45.1579 49.0394 45.1375 49.442 45.0148C50.5877 44.6572 51.5271 43.4412 51.5271 42.3172C51.5477 36.0533 51.5271 29.8917 51.5271 25.2219V25.2015ZM49.6897 33.6112C49.6897 35.1541 49.6897 36.6971 49.6897 38.2401V39.0575C49.6794 40.0385 49.6691 41.0603 49.7207 42.0617C49.7413 42.4602 49.6381 42.7975 49.4007 43.0427C49.1736 43.2879 48.8226 43.4106 48.3994 43.4106H48.3891C46.2111 43.3901 44.0331 43.3901 41.8552 43.3901H38.1598C37.6437 43.3901 37.1379 43.3901 36.6218 43.3901H36.1367C36.3741 43.2982 36.6115 43.2164 36.8489 43.1347L37.3134 42.9814C37.9224 42.777 38.5624 42.5727 39.192 42.4398L39.4914 42.3785C40.761 42.1128 42.0719 41.8267 43.3932 41.7961C43.6512 41.7961 43.9093 41.7961 44.1673 41.7858C44.7867 41.7858 45.4266 41.7858 46.0563 41.6939C47.1401 41.5406 47.9659 40.5188 47.9556 39.3539C47.9453 38.3014 47.9453 37.2387 47.9556 36.1862V24.1081C47.9556 23.965 47.9659 23.8731 47.9659 23.8629C48.0072 23.8424 48.1723 23.8629 48.2343 23.8629C48.8846 23.914 49.3697 24.057 49.6381 24.619C49.7413 24.8336 49.7413 25.0788 49.7413 25.3241C49.6897 28.083 49.7 30.8931 49.7 33.6112H49.6897ZM29.1692 46.5067C29.6234 46.8337 30.0569 46.8337 30.5214 46.5067C31.6878 45.6688 32.7716 45.0046 33.8245 44.463C33.8555 44.4426 33.8864 44.4324 33.9277 44.412C34.0206 45.5666 33.2671 46.7315 32.1833 47.0278C31.8736 47.1198 31.533 47.1607 31.1407 47.1607H28.3434C26.9705 47.1607 25.9383 46.241 25.7732 44.8616C25.7732 44.79 25.7525 44.7287 25.7422 44.6572C25.7216 44.5652 25.7009 44.463 25.7009 44.3711C26.9189 45.0046 28.0647 45.6995 29.1795 46.5169L29.1692 46.5067ZM9.93892 25.3139C9.93892 24.8438 10.0731 24.476 10.3415 24.2307C10.5995 23.9957 10.9815 23.8731 11.4356 23.8731C11.5182 23.8731 11.6111 23.8731 11.704 23.8833C11.7247 23.8833 11.735 23.8833 11.7453 23.8833C11.7453 23.8833 11.7453 23.9344 11.7453 23.965C11.7453 23.9957 11.7453 24.0264 11.7453 24.057C11.7453 25.6 11.7453 27.143 11.7453 28.6757V31.5573C11.7453 34.071 11.7453 36.5949 11.7453 39.1086C11.7453 40.3246 12.2201 41.1319 13.2111 41.561C13.6136 41.7347 14.0472 41.7552 14.4084 41.745C15.5232 41.745 16.9787 41.7654 18.4134 42.0106C19.5282 42.2048 20.5295 42.4296 21.4482 42.6851C22.0778 42.869 22.8107 43.0836 23.5436 43.3799H20.1992C17.2574 43.3799 14.3052 43.3799 11.3634 43.3799C10.6924 43.3799 10.3002 43.1755 10.0628 42.6953C9.9802 42.5216 9.9802 42.3172 9.9802 42.1128V41.98C9.9802 40.2735 9.9802 38.5773 9.9802 36.8708C9.9802 33.0798 9.99053 29.156 9.93892 25.2934V25.3139ZM19.0431 40.3451C18.4651 40.2429 17.8767 40.1713 17.2986 40.11C17.0819 40.0896 16.8651 40.0589 16.638 40.0385C16.1219 39.9772 15.5955 39.967 15.0794 39.967C14.9761 39.967 14.8729 39.967 14.7594 39.967C14.5529 39.967 14.3568 39.967 14.1504 39.967C13.6652 39.967 13.5001 39.7933 13.5001 39.313V22.4119C13.5001 22.0849 13.6239 21.9214 13.9233 21.8499C14.4084 21.7272 14.8936 21.7374 15.4097 21.7477C15.6161 21.7477 15.8329 21.7477 16.0497 21.7477C16.0497 21.7681 16.0497 21.7885 16.0497 21.7988C16.06 23.1374 16.2974 24.4862 16.7516 25.8146C17.6496 28.4407 19.2083 30.6274 21.3656 32.293C22.7281 33.3455 24.2661 34.1323 25.959 34.6228C27.1357 34.9702 28.0441 35.1439 28.9318 35.195C28.9524 35.195 28.9627 35.195 28.9731 35.195C28.9731 35.195 28.9731 35.2563 28.9731 35.3074C28.9731 35.8388 28.9731 36.3599 28.9731 36.8913V37.4226C28.9731 39.6706 28.9731 41.9085 28.9731 44.1565C28.9731 44.1871 28.9731 44.228 28.9731 44.2689C28.9421 44.2382 28.9111 44.2178 28.8905 44.1974C27.6105 43.3492 26.1861 42.6033 24.4106 41.8369C23.5539 41.4691 22.5939 41.1625 21.3037 40.8458L21.1798 40.8151C20.4779 40.6414 19.7553 40.4677 19.0328 40.3348L19.0431 40.3451ZM30.1085 9.7309C30.1085 9.7309 30.1911 9.7309 30.2324 9.7309C30.2633 9.7309 30.2943 9.7309 30.3149 9.7309C30.3459 9.7309 30.3666 9.7309 30.3666 9.7309C30.3666 9.75133 30.3459 9.80243 30.3149 9.88417C29.9021 10.7834 29.6853 11.8052 29.6646 13.0212C29.6337 14.7992 30.2014 16.4954 31.3368 18.0588C32.4929 19.6529 33.9484 20.7565 35.6412 21.3185C37.045 21.7885 38.4798 21.8907 39.8939 21.6353C40.6578 21.4922 41.2668 21.3287 41.8345 21.0937C41.8345 21.2572 41.8345 21.4002 41.8345 21.5535V21.7374C41.8036 22.7899 41.6178 23.8833 41.2874 25.0788C40.9468 26.305 40.441 27.3575 39.7701 28.2976C39.5327 28.6246 39.2746 28.9516 39.0062 29.2582C38.9649 29.3092 38.934 29.3297 38.934 29.3399C38.9237 29.3399 38.8927 29.3195 38.8411 29.2582L38.4695 28.8903C37.9018 28.3181 37.3134 27.7356 36.725 27.1736C35.5896 26.1007 34.4748 24.9767 33.391 23.8833C32.5961 23.0863 31.8117 22.2892 31.0065 21.5024C29.5098 20.031 28.0028 18.5698 26.5164 17.0881C25.9383 16.5159 25.3603 15.9436 24.7822 15.3612C23.9049 14.4824 23.0275 13.6139 22.1398 12.7453C22.0469 12.6533 22.0365 12.6125 22.0262 12.6125C22.0262 12.6125 22.0469 12.5716 22.1604 12.4796C23.5023 11.3965 24.8751 10.6608 26.3512 10.2418C27.6105 9.88417 28.8905 9.78199 30.0053 9.72068C30.0362 9.72068 30.0775 9.72068 30.1085 9.72068V9.7309ZM41.4526 19.3361C40.472 19.796 39.4914 20.0208 38.5624 19.9901H38.4695C36.6528 19.9901 35.1561 19.4485 33.8761 18.3347C32.6787 17.2823 31.9046 16.0356 31.5949 14.6459C31.2439 13.0723 31.4297 11.5395 32.1316 10.0885C32.1936 9.9557 32.2245 9.96592 32.3174 9.98636C34.0103 10.4155 35.249 10.9162 36.3431 11.6111C37.974 12.6636 39.2849 14.043 40.3378 15.8108C40.7713 16.5363 41.0913 17.3742 41.3803 18.4982C41.401 18.58 41.4216 18.6617 41.4423 18.7333C41.4836 18.8559 41.5145 18.9887 41.5352 19.1216C41.5558 19.2169 41.5214 19.285 41.432 19.3259L41.4526 19.3361ZM18.1451 23.9242C18.7438 23.5563 19.4353 23.3213 20.2095 23.2395C21.2417 23.1374 22.1191 23.1782 22.9139 23.3826C23.7294 23.587 24.5035 23.9446 25.1951 24.4351C26.3409 25.2423 27.1873 26.254 27.7137 27.4597C28.106 28.3589 28.1989 29.3297 28.2402 30.0756C28.1886 31.2712 27.9408 32.3032 27.4867 33.2331C27.466 33.274 27.4557 33.3046 27.2596 33.2433H27.208C24.741 32.5791 22.8417 31.5573 21.3966 30.0961C19.9721 28.6553 19.0431 27.2043 18.558 25.6511C18.3928 25.1299 18.2483 24.5986 18.0935 24.0161C18.0935 23.9855 18.0935 23.9753 18.0831 23.965C18.0831 23.965 18.1038 23.9446 18.1347 23.9242H18.1451ZM37.5818 30.4946C37.654 30.5661 37.6643 30.5968 37.6643 30.5968C37.6643 30.5968 37.6437 30.6376 37.5611 30.7092C36.6012 31.5573 35.4967 32.201 34.1961 32.6711C33.391 32.9572 32.6065 33.2331 31.8013 33.3455C30.8827 33.4783 30.0672 33.5192 29.324 33.4783V33.4681L29.3447 33.417C29.5511 32.9061 29.7059 32.4258 29.8092 31.9762C29.9846 31.2405 30.0466 30.4639 29.995 29.5851C29.8917 27.8174 29.2311 26.2131 27.9512 24.6599C26.8054 23.2804 25.35 22.2995 23.6158 21.7579C23.0997 21.5944 22.1501 21.3389 21.5101 21.4002C19.9721 21.4309 18.8883 21.6455 17.887 22.1155C17.8664 22.1155 17.8457 22.136 17.8354 22.136C17.8354 22.1257 17.8354 22.1053 17.8354 22.0849C17.8354 21.1754 17.918 20.2456 18.1141 19.234C18.3412 18.0486 18.7128 16.9859 19.2392 15.9845C19.6005 15.3101 20.065 14.6357 20.6327 13.9919C20.7256 13.8898 20.7566 13.8898 20.7566 13.8898C20.7566 13.8898 20.7875 13.8898 20.8908 13.9919C22.7797 15.8823 24.679 17.7727 26.5783 19.6529C27.817 20.8791 29.066 22.1053 30.3149 23.3417C31.2646 24.2818 32.2142 25.2219 33.1742 26.162C33.7316 26.7138 34.289 27.2656 34.8464 27.8174C35.7547 28.7166 36.6631 29.6158 37.5714 30.515L37.5818 30.4946ZM31.3265 43.8908C31.1407 44.0032 30.9652 44.1156 30.7794 44.2178C30.7485 44.2382 30.7175 44.2587 30.6969 44.2791C30.6969 44.2485 30.6969 44.2178 30.6969 44.1974C30.6969 41.5815 30.6969 38.9656 30.6969 36.3497V36.0227C30.6969 35.7775 30.6969 35.522 30.6969 35.2768C30.6969 35.2563 30.6969 35.2359 30.6969 35.2359C30.7072 35.2359 30.7278 35.2359 30.7588 35.2359C33.1535 35.0417 35.3935 34.2754 37.4269 32.9776C38.8927 32.0375 40.121 30.8522 41.0913 29.4727C42.0616 28.0728 42.7119 26.7649 43.0629 25.4569C43.4345 24.0877 43.6099 22.9534 43.6306 21.9112C43.6306 21.8805 43.6306 21.8601 43.6306 21.8294C43.6306 21.8192 43.6306 21.809 43.6306 21.7885C43.8577 21.7885 44.0641 21.7885 44.2912 21.7885C44.797 21.7783 45.2718 21.7681 45.7363 21.8805C46.0769 21.9623 46.1905 22.1155 46.1905 22.5038V33.1922C46.1905 35.1746 46.1905 37.1671 46.1905 39.1495C46.1905 39.5174 46.1389 39.7422 46.0047 39.8648C45.8808 39.9874 45.6537 40.0385 45.3028 40.0181C43.9506 39.9465 42.6087 40.1202 41.3391 40.294C39.6669 40.529 38.0979 40.9582 36.9005 41.3158C35.2902 41.7961 33.6284 42.5624 31.6775 43.7069C31.5639 43.7784 31.4401 43.8499 31.3265 43.9215V43.8908Z" fill="#E4002B"/>
<path d="M41.7829 12.8373C41.9171 13.011 42.0513 13.1949 42.1752 13.3788C42.8151 14.2883 43.29 15.3101 43.7648 16.3115C43.9196 16.6385 44.1673 16.802 44.508 16.802C44.5596 16.802 44.6112 16.802 44.6628 16.802C45.0344 16.7611 45.375 16.3524 45.3854 15.9641L45.3647 15.8619C45.3647 15.8619 45.3441 15.821 45.3441 15.8006C45.1789 15.1568 44.8796 14.5846 44.5802 14.0328L44.4048 13.6854C43.9093 12.7146 43.2383 11.8665 42.65 11.141C42.3713 10.7936 41.8242 10.7221 41.4733 10.998C41.0913 11.2841 41.0088 11.7337 41.2668 12.122C41.432 12.3672 41.6074 12.6125 41.7932 12.8475L41.7829 12.8373Z" fill="#E4002B"/>
<path d="M17.9283 30.423C17.7322 30.1777 17.5361 29.9325 17.3709 29.6668C16.8858 28.9005 16.4522 28.0728 16.029 27.1327C15.9155 26.8874 15.7194 26.4378 15.3065 26.4276C14.9452 26.4276 14.6355 26.5809 14.46 26.8363C14.2846 27.0918 14.2639 27.429 14.4084 27.7458C15.0794 29.3194 15.8432 30.6171 16.7516 31.7309C16.7825 31.7718 16.8238 31.8229 16.8548 31.8638C16.9477 31.9864 17.0509 32.1294 17.2057 32.2316C17.3709 32.3338 17.5464 32.3951 17.7115 32.3951C17.918 32.3951 18.1244 32.3134 18.2896 32.1499C18.6509 31.7922 18.6921 31.4653 18.4134 31.0565C18.2586 30.8317 18.0935 30.6171 17.9283 30.4128V30.423Z" fill="#E4002B"/>
<path d="M5.87844 9.9536C6.05635 9.56365 6.61032 9.56365 6.78823 9.9536L8.22541 13.1037C8.27593 13.2144 8.36511 13.3029 8.47622 13.3526L11.6458 14.7697C12.0403 14.9461 12.0403 15.5062 11.6457 15.6826L8.47622 17.0997C8.36511 17.1494 8.27593 17.2379 8.22541 17.3486L6.78823 20.4987C6.61032 20.8887 6.05635 20.8887 5.87844 20.4987L4.44126 17.3486C4.39074 17.2379 4.30156 17.1494 4.19044 17.0997L1.02092 15.6826C0.626359 15.5062 0.62636 14.9461 1.02092 14.7697L4.19045 13.3526C4.30156 13.3029 4.39074 13.2144 4.44126 13.1037L5.87844 9.9536Z" fill="url(#paint0_linear_13_88)"/>
<path d="M52.0213 10.8493C52.1992 10.4594 52.7532 10.4594 52.9311 10.8493L53.8053 12.7654C53.8558 12.8762 53.945 12.9647 54.0561 13.0144L55.9791 13.8741C56.3736 14.0505 56.3736 14.6106 55.9791 14.787L54.0561 15.6468C53.945 15.6965 53.8558 15.785 53.8053 15.8957L52.9311 17.8118C52.7532 18.2018 52.1992 18.2018 52.0213 17.8118L51.1471 15.8957C51.0966 15.785 51.0074 15.6965 50.8963 15.6468L48.9733 14.787C48.5787 14.6106 48.5787 14.0505 48.9733 13.8741L50.8963 13.0144C51.0074 12.9647 51.0966 12.8762 51.1471 12.7654L52.0213 10.8493Z" fill="url(#paint1_linear_13_88)"/>
<path d="M35.7356 0.997053C35.9135 0.607105 36.4675 0.607106 36.6454 0.997054L37.2381 2.29615C37.2886 2.40689 37.3778 2.49539 37.4889 2.54507L38.7886 3.12618C39.1832 3.30259 39.1832 3.86268 38.7886 4.03909L37.4889 4.6202C37.3778 4.66988 37.2886 4.75838 37.2381 4.86912L36.6454 6.16821C36.4675 6.55816 35.9135 6.55816 35.7356 6.16821L35.1429 4.86911C35.0924 4.75838 35.0032 4.66988 34.8921 4.6202L33.5923 4.03909C33.1978 3.86268 33.1978 3.30259 33.5923 3.12618L34.8921 2.54507C35.0032 2.49539 35.0924 2.40689 35.1429 2.29615L35.7356 0.997053Z" fill="url(#paint2_linear_13_88)"/>
<defs>
<linearGradient id="paint0_linear_13_88" x1="6.33333" y1="8.95654" x2="6.33333" y2="21.4958" gradientUnits="userSpaceOnUse">
<stop stop-color="#FFC2CD"/>
<stop offset="1" stop-color="#E4002B"/>
</linearGradient>
<linearGradient id="paint1_linear_13_88" x1="52.4762" y1="9.85229" x2="52.4762" y2="18.8089" gradientUnits="userSpaceOnUse">
<stop stop-color="#FFC2CD"/>
<stop offset="1" stop-color="#E4002B"/>
</linearGradient>
<linearGradient id="paint2_linear_13_88" x1="36.1905" y1="0" x2="36.1905" y2="7.16527" gradientUnits="userSpaceOnUse">
<stop stop-color="#FFC2CD"/>
<stop offset="1" stop-color="#E4002B"/>
</linearGradient>
</defs>
</svg>
