<svg width="52" height="51" viewBox="0 0 52 51" fill="none" xmlns="http://www.w3.org/2000/svg">
<path d="M50.4323 37.7028C49.8603 37.4927 49.3412 37.5977 48.8327 37.7028C48.6844 37.7343 48.5361 37.7658 48.3984 37.7868C48.123 37.8288 47.89 37.9654 47.7523 38.1649C47.6252 38.3435 47.5934 38.564 47.6358 38.7846C47.6781 38.9737 47.8052 39.1417 47.9853 39.2363C48.2078 39.3623 48.5044 39.3938 48.7798 39.3098C49.1293 39.2048 49.4259 39.1522 49.712 39.1522C50.1357 39.1522 50.4005 39.4043 50.4005 39.8139C50.4111 40.9168 50.4111 42.0091 50.4111 43.112V43.5426C50.4111 45.2757 50.4111 46.9982 50.4005 48.7313C50.4005 49.1199 50.1145 49.414 49.7543 49.414C49.1929 49.414 48.6315 49.414 48.0701 49.414C47.6358 49.414 47.212 49.414 46.7777 49.414C46.7142 49.414 46.693 49.414 46.693 49.414C46.693 49.414 46.6824 49.393 46.693 49.309C46.693 49.0779 46.693 48.8468 46.693 48.6263C46.693 48.4582 46.6824 48.2902 46.693 48.1221C46.7036 46.7462 45.8773 45.6118 44.5426 45.1392C44.4261 45.0971 44.4049 45.0761 44.4155 44.9606C44.4155 43.4691 44.4155 41.9776 44.4155 40.4757C44.4155 40.3286 44.4155 40.3076 44.5426 40.2866C44.7545 40.2446 44.9664 40.1816 45.1676 40.1185C45.2947 40.0765 45.4324 40.0345 45.5702 40.003C46.0998 39.8665 46.2905 39.5829 46.1739 39.0997C46.121 38.8791 45.9939 38.7006 45.8244 38.5956C45.6549 38.4905 45.4324 38.459 45.21 38.522C45.0299 38.564 44.8604 38.6166 44.6804 38.6586C44.4579 38.7216 44.2355 38.7846 44.0024 38.8371C43.6423 38.9212 43.3139 38.9002 43.0067 38.7636C42.9961 38.7636 42.9749 38.7531 42.9643 38.7426C42.9643 38.7426 42.9643 38.7426 42.9749 38.7321C43.6634 37.9759 43.9071 37.02 44.0448 36.1903C44.0977 35.8542 44.0448 35.5391 44.0024 35.224C43.9706 35.0559 43.9494 34.8879 43.9389 34.7198C43.9389 34.5518 43.9494 34.5202 44.0872 34.4782C44.9981 34.1841 45.8032 33.638 46.6294 32.7452C47.5404 31.7579 48.1018 30.55 48.2925 29.132C48.3878 28.3863 48.3561 27.7036 48.176 27.0944C47.89 26.0965 47.5298 25.3298 47.0214 24.6996C46.7883 24.4055 46.693 24.1744 46.8307 23.7333C47.3603 22.0317 46.5447 20.2882 44.8604 19.4899C44.7015 19.4164 44.6592 19.3429 44.638 19.1538C44.6274 19.0068 44.6168 18.8492 44.6062 18.7022C44.5744 18.2715 44.5426 17.8304 44.4367 17.3998C44.2249 16.5385 43.9918 15.7612 43.727 15.0155C43.388 14.0597 42.8902 13.1144 42.1804 12.022C41.4072 10.8457 40.4432 9.77431 39.3098 8.83951C37.8162 7.61062 36.2696 6.74934 34.5748 6.20317C33.6002 5.88807 32.3185 5.52045 30.9626 5.39441C29.2042 5.23686 27.3928 5.42592 25.5709 5.95109C23.7065 6.49726 21.9693 7.39005 20.4122 8.60844C19.2152 9.54324 18.2088 10.6146 17.4144 11.7805C16.5246 13.0829 15.9526 14.2172 15.603 15.3621C15.1687 16.7696 14.8721 17.9564 14.7874 19.2378C14.7874 19.3639 14.7768 19.3954 14.7026 19.4164C14.0247 19.6895 13.4844 20.1411 13.0819 20.7608C12.4146 21.7902 12.2768 22.8405 12.6794 23.8698C12.7853 24.1324 12.7535 24.3005 12.584 24.5105C11.9167 25.3088 11.4612 26.2856 11.2388 27.4305C11.0481 28.3758 11.154 29.3736 11.5354 30.487C12.1921 32.3986 13.4527 33.701 15.37 34.4782C15.5289 34.5413 15.5289 34.5518 15.5183 34.6358C15.5077 34.7198 15.4971 34.8038 15.4971 34.8879C15.4971 34.9614 15.4971 35.0349 15.4759 35.1084C15.3488 35.9382 15.4547 36.747 15.7725 37.5137C15.8784 37.7658 16.0585 37.9443 16.2915 38.0179C16.5034 38.0809 16.7364 38.0389 16.9377 37.9023C17.3826 37.5977 17.2979 37.1566 17.1919 36.8415C16.9377 36.0642 16.9695 35.2555 17.2873 34.4572C17.4038 34.1631 17.4144 33.9321 17.319 33.7325C17.2237 33.5329 17.033 33.3964 16.7258 33.3019C16.0797 33.1023 15.4971 32.9027 14.978 32.5666C14.2471 32.1045 13.6857 31.4743 13.2726 30.6445C12.7323 29.5627 12.5946 28.4493 12.8912 27.3254C13.1137 26.4537 13.5374 25.7184 14.1518 25.1197C14.692 24.5946 14.6391 24.4055 14.3425 23.7963C14.12 23.3342 13.9929 22.935 14.0882 22.4834C14.2895 21.5171 14.8191 20.9499 15.7301 20.7188C16.1432 20.6138 16.3551 20.3512 16.3657 19.9311V19.8575C16.3869 19.1118 16.4081 18.3451 16.5987 17.6308C16.8318 16.7486 17.1072 15.8032 17.4885 14.879C18.1453 13.314 19.141 11.896 20.4333 10.6566C21.4608 9.66928 22.6472 8.86052 23.9396 8.24082C25.359 7.56861 26.8314 7.14847 28.3144 7.01193C30.2635 6.82287 32.1702 7.04344 34.0028 7.65263C35.6553 8.20931 37.0535 8.97606 38.2717 9.98438C39.9771 11.4023 41.1953 13.0094 41.9898 14.879C42.7101 16.57 43.0808 18.1875 43.1126 19.805C43.1232 20.3092 43.1974 20.5613 43.8435 20.7188C44.4579 20.8659 44.9875 21.328 45.2418 21.9372C45.496 22.5359 45.4642 23.1871 45.1464 23.7228C44.7757 24.3425 44.871 24.6051 45.3265 25.0882C45.9833 25.7709 46.407 26.5902 46.6506 27.5985C47.0637 29.3001 46.068 31.6003 44.5215 32.5351C43.9283 32.8922 43.2609 33.1128 42.6783 33.2914C42.4241 33.3754 42.2228 33.5224 42.1381 33.722C42.0533 33.89 42.0533 34.0791 42.1381 34.2682C42.191 34.3837 42.2228 34.5097 42.2652 34.6358C42.297 34.7513 42.3287 34.8564 42.3711 34.9719C42.7631 35.9697 42.2016 37.6187 41.2695 38.2384C41.1741 38.3015 41.1106 38.3225 41.0152 38.291C40.7822 38.2384 40.5491 38.1859 40.3161 38.1229C39.5216 37.9338 38.6954 37.7343 37.8692 37.5872C37.0641 37.4402 36.312 37.7238 35.7188 38.417C35.5387 38.6271 35.4964 38.5956 35.3375 38.4905C34.49 37.9338 33.5579 37.6187 32.8481 37.3982C32.7422 37.3667 32.7422 37.3562 32.7422 37.2616C32.7422 36.978 32.7422 36.7365 32.7422 36.5054C32.7422 36.3898 32.7846 36.3268 32.9011 36.2953C33.7485 36.0852 34.5854 35.6756 35.5387 34.9824C37.4454 33.6065 38.7484 31.7158 39.3839 29.3421C39.4051 29.2581 39.4687 29.216 39.5746 29.216C39.6593 29.216 39.7335 29.216 39.8182 29.216C40.0407 29.2265 40.2737 29.216 40.5068 29.1425C41.4178 28.8694 42.2122 28.3443 42.9431 27.5355C43.727 26.6742 44.1825 25.7709 44.3414 24.7941C44.4367 24.2164 44.3732 23.6283 44.1401 23.0191C43.7376 21.9162 43.0173 21.1285 42.011 20.6663C41.386 20.3827 40.6657 20.2672 39.8288 20.3302C39.6911 20.3302 39.6488 20.3197 39.6488 20.3092C39.6488 20.3092 39.617 20.2672 39.6382 20.1621C39.6805 19.8155 39.5216 19.5214 39.3733 19.3114C39.0344 18.7967 37.6785 18.3451 37.0853 18.5341C36.8734 18.5971 36.7039 18.7757 36.6404 19.0068C36.5662 19.2378 36.6086 19.4689 36.7357 19.6475C36.9476 19.9206 37.2548 20.0781 37.6467 20.1096C37.9751 20.1411 38.0492 20.2252 38.0492 20.5718C38.028 22.1578 38.0386 23.7753 38.0386 25.3403V27.0629C38.0386 27.6721 37.9751 28.3128 37.8268 29.006C37.4666 30.7705 36.5133 32.2305 34.8078 33.6065C33.9604 34.2892 32.9541 34.6778 32.1808 34.9299C30.9202 35.3395 29.5432 35.4235 28.0814 35.161C26.5878 34.8984 25.306 34.2787 24.2574 33.3334C22.3189 31.5793 21.3867 29.5732 21.3867 27.1994C21.3867 24.8256 21.3867 22.4414 21.3761 20.6348C21.3761 20.5928 21.3761 20.5613 21.3761 20.5403C21.3973 20.5403 21.4291 20.5403 21.4714 20.5613L21.6727 20.6033C22.4989 20.7818 23.3464 20.9604 24.215 20.9814C25.7298 21.0234 27.0645 20.9079 28.325 20.6243C30.2741 20.1832 32.0855 19.2589 33.8757 17.8199C33.9392 17.7674 34.0663 17.6833 34.0981 17.6833C34.1193 17.6833 34.1617 17.7044 34.2464 17.8409C34.4794 18.2295 34.8502 18.3556 35.2104 18.177C35.6129 17.9879 35.7718 17.6518 35.6553 17.2632C35.6129 17.1267 35.5387 17.0111 35.4646 16.8956L35.401 16.8011C35.1786 16.4229 34.8396 16.1499 34.4477 16.0553C34.0875 15.9713 33.7062 16.0343 33.3778 16.2339C33.1553 16.3704 32.9541 16.5385 32.7634 16.7065C32.6787 16.7801 32.5939 16.8536 32.5092 16.9271C31.5982 17.6728 30.5707 18.261 29.4478 18.6812C28.3886 19.0803 27.2551 19.2799 26.2806 19.4164C24.7552 19.637 23.2934 19.3534 21.7998 19.0173C20.91 18.8177 20.0626 19.2799 19.8295 20.0991C19.766 20.3197 19.7024 20.3617 19.48 20.3407C18.5584 20.2567 17.7216 20.4457 16.9907 20.8974C15.7937 21.6431 15.1475 22.725 15.0628 24.1114C15.0098 24.9727 15.2217 25.7604 15.6772 26.4747C16.5564 27.8401 17.7428 29.2371 19.8613 29.2371H19.8825C19.9884 29.2371 19.9778 29.2371 20.0096 29.3421C20.4333 30.8126 21.0371 32.031 21.8528 33.0603C22.9968 34.4992 24.2997 35.4866 25.8357 36.0852C26.4077 36.3093 26.6796 36.7049 26.6513 37.2721C26.6513 37.3772 26.6513 37.3877 26.5454 37.4192C25.6026 37.7238 24.7552 38.0179 23.9925 38.5745C23.7277 38.7636 23.4947 38.9212 23.1239 38.9002C22.5413 38.8686 21.9587 38.8791 21.3973 38.8791C21.1219 38.8791 20.8571 38.8791 20.5816 38.8791H20.338C19.8507 38.8791 19.3741 38.8791 18.9186 38.7111C18.6961 38.6271 18.4419 38.6376 18.2194 38.7426C18.0288 38.8266 17.8911 38.9737 17.8487 39.1417C17.711 39.5724 17.9334 39.982 18.3783 40.1501C18.8762 40.3286 19.3635 40.4967 19.9037 40.4967C19.9461 40.4967 19.9884 40.4967 20.0308 40.4967C20.4863 40.4757 20.963 40.4862 21.4185 40.4967H21.8528C21.8528 40.4967 21.9057 40.4967 21.9375 40.4967C21.9375 40.5177 21.9163 40.5387 21.8952 40.5702C21.5244 41.0849 21.2066 41.673 20.9206 42.3453C20.7829 42.6814 20.6876 43.0175 20.6028 43.3536C20.5393 43.5742 20.4863 43.7947 20.4122 44.0153C20.4122 44.0363 20.4016 44.0678 20.391 44.0993C20.391 44.1203 20.3698 44.1518 20.3592 44.1518C20.0414 44.0783 19.7236 44.1098 19.427 44.1308C19.2469 44.1413 19.0775 44.1623 18.9186 44.1518C18.8974 44.1518 18.8656 44.1518 18.8338 44.1518C18.7491 44.1518 18.7491 44.1518 18.7173 44.1098C18.569 43.8682 18.4101 43.6267 18.2406 43.3956C18.1347 43.238 18.0288 43.0805 17.9228 42.9229C17.5627 42.3768 17.2131 41.8306 16.8635 41.2739C16.3657 40.5072 15.8678 39.7299 15.37 38.9632C14.8933 38.2279 14.406 37.5032 13.9293 36.768C13.601 36.2638 13.262 35.7596 12.9336 35.2555C12.6052 34.7618 12.2768 34.2577 11.9591 33.764C11.4506 32.9973 10.9527 32.22 10.4443 31.4533C10.1371 30.9806 9.6922 30.8861 9.2473 31.1697C8.89773 31.4007 8.86595 31.8419 9.17315 32.3145C9.385 32.6401 9.59686 32.9763 9.81931 33.3019C10.0312 33.6275 10.243 33.9636 10.4655 34.2892L11.8108 36.3373C12.4887 37.3667 13.1561 38.3855 13.8234 39.4148C14.173 39.9505 14.5119 40.4757 14.8615 41.0113C15.5924 42.1352 16.3445 43.2906 17.0966 44.4249C17.3084 44.7505 17.3084 44.8871 17.0648 45.1181C16.0055 46.1685 16.1326 47.5234 16.3233 48.4582C16.6411 50.0652 17.8381 50.9895 19.5965 50.9895C21.7892 50.9895 24.0031 51 26.1958 51C27.5729 51 28.9394 51 30.2847 51H34.3947C39.1827 51 43.9706 51 48.7586 51H48.7798C49.2247 51 49.7543 50.979 50.284 50.8425C51.195 50.6114 52 49.6346 52 48.7523C52 47.5759 52 46.3891 52 45.2022C52 43.3851 52 41.568 52 39.7509C52 38.8266 51.195 37.9759 50.4111 37.6818L50.4323 37.7028ZM39.2144 49.2565C39.2144 49.3615 39.2039 49.393 39.1933 49.393C39.1933 49.393 39.1509 49.4245 39.0344 49.414C38.8543 49.414 38.6742 49.414 38.4941 49.414C38.3882 49.414 38.2717 49.414 38.1658 49.414C37.9539 49.414 37.742 49.414 37.5302 49.414C37.0747 49.414 36.8205 49.1724 36.7781 48.7313C36.6933 47.8595 36.7039 46.9982 36.7145 46.095C36.7145 45.4648 36.7251 44.8135 36.7145 44.1518V40.2761C36.7145 39.4148 37.0429 39.2258 37.3713 39.1627C37.6043 39.1102 37.8268 39.1627 38.081 39.2468C38.7907 39.4463 39.5216 39.5934 40.2314 39.7404C41.047 39.9085 41.8838 40.0765 42.6889 40.3181C42.7948 40.3496 42.7948 40.3601 42.7948 40.4441V40.9378C42.7948 42.2507 42.7948 43.5742 42.7948 44.8871C42.7948 44.9816 42.7736 45.0026 42.7736 45.0131C42.7525 45.0341 42.6677 45.0236 42.583 45.0236C41.4283 44.9921 40.5703 45.3492 39.9136 46.137C39.3627 46.7987 39.2674 47.5654 39.225 48.2376C39.2039 48.5738 39.2039 48.9204 39.225 49.2775L39.2144 49.2565ZM40.814 48.0591C40.7716 47.702 40.8987 47.3344 41.1423 47.0508C41.4072 46.7462 41.7885 46.5676 42.1804 46.5571C42.4029 46.5571 42.6359 46.5466 42.8902 46.5466C43.2185 46.5466 43.5575 46.5571 43.9071 46.5886C44.4155 46.6306 45.0935 47.2923 45.0829 47.9015V48.1011C45.0829 48.4897 45.0829 48.8889 45.0829 49.288C45.0829 49.3825 45.0723 49.4035 45.0617 49.414C45.0617 49.414 45.0405 49.435 44.9134 49.435C44.4367 49.435 43.9706 49.435 43.494 49.435H42.9325H42.3923C41.9368 49.435 41.4601 49.435 40.9835 49.435C40.8775 49.435 40.8246 49.414 40.814 49.414C40.814 49.414 40.7822 49.372 40.7928 49.246C40.8246 48.8678 40.8457 48.4687 40.7928 48.0906L40.814 48.0591ZM22.8697 49.4035C22.8697 49.4035 22.9227 49.2775 22.965 49.1935C23.2616 48.5738 23.2616 47.9436 23.2404 47.1768C23.2087 46.1265 22.8061 45.3177 22.0011 44.7085C21.8422 44.5825 21.874 44.4459 21.9693 44.1833C21.9905 44.1203 22.0117 44.0573 22.0329 44.0048C22.4354 42.3873 23.1875 41.1479 24.3421 40.2446C24.5963 41.0849 24.9035 41.6835 25.3166 42.1877C26.2912 43.3641 27.4246 44.0363 28.7593 44.2359C28.8864 44.2569 28.9076 44.2779 28.9076 44.4144C28.897 44.9921 28.9076 45.5803 28.9076 46.1475C28.9076 46.4626 28.9924 46.7147 29.1618 46.8722C29.2995 47.0088 29.4902 47.0823 29.7233 47.0823H29.7339C30.2105 47.0823 30.5177 46.7252 30.5177 46.158V45.7273C30.5177 45.3282 30.5177 44.9186 30.5177 44.509C30.5177 44.3199 30.5495 44.2779 30.7508 44.2464C32.1596 44.0048 33.3248 43.2696 34.2252 42.0512C34.6595 41.4735 34.9243 40.8118 35.115 40.2656C35.1786 40.3496 35.1892 40.4547 35.1892 40.6122C35.1892 43.1015 35.1892 45.5908 35.1892 48.0801C35.1892 48.1536 35.1892 48.2376 35.1892 48.3112C35.1892 48.6788 35.1786 49.0569 35.2951 49.4245C35.2633 49.4245 35.2315 49.4245 35.1998 49.4245H35.1362C31.1321 49.4245 27.1174 49.4245 23.1133 49.4245C23.0392 49.4245 22.9544 49.4245 22.9015 49.4245L22.8697 49.4035ZM31.8206 38.8056C32.2338 38.8896 32.6469 39.0052 33.0388 39.1207L33.1659 39.1627C33.4625 39.2468 33.5896 39.3098 33.632 39.4043C33.6744 39.4988 33.6532 39.6564 33.5579 39.94C33.0812 41.3159 32.1914 42.2192 30.9097 42.6183H30.8673C30.4859 42.7444 30.094 42.8704 29.7339 42.8179H29.7127C27.7212 42.7969 26.0899 41.4315 25.7509 39.4988C25.7298 39.3623 25.7721 39.3413 25.931 39.2783C26.4077 39.0997 26.9162 38.9212 27.4458 38.8266C28.0496 38.7216 28.2614 38.4905 28.272 37.9128C28.272 37.5767 28.272 37.2301 28.272 36.894C28.272 36.8205 28.2826 36.7995 28.2826 36.7995C28.2826 36.7995 28.2932 36.7995 28.3356 36.7995C28.3462 36.7995 28.3674 36.7995 28.3886 36.7995C29.3101 36.915 30.1576 36.915 30.9838 36.7995C31.1109 36.7785 31.1427 36.7995 31.1533 36.7995C31.1533 36.7995 31.1851 36.8415 31.1851 36.9675C31.1851 37.1671 31.1851 37.3772 31.1851 37.5767C31.1851 37.7343 31.1851 37.9023 31.1851 38.0599C31.1851 38.459 31.4075 38.7321 31.81 38.8161L31.8206 38.8056ZM17.8805 47.4184C17.7957 46.6726 18.0288 46.1685 18.5902 45.8429C18.8338 45.7063 19.2152 45.6433 19.6177 45.6433C20.2427 45.6433 20.9206 45.8009 21.2384 46.074C21.4926 46.2945 21.6091 46.5886 21.6409 47.0613V47.2188C21.6939 47.8595 21.7257 48.4582 21.249 48.9519C20.9524 49.267 20.624 49.414 20.2427 49.414C20.2215 49.414 20.2003 49.414 20.1685 49.414C20.0202 49.414 19.8825 49.414 19.7342 49.414C19.4588 49.414 19.2046 49.435 18.9503 49.3615C18.2406 49.1514 17.8169 48.5738 17.8805 47.912C17.8805 47.8175 17.8805 47.7335 17.8805 47.6179C17.8805 47.5654 17.8805 47.4919 17.8805 47.4184ZM39.6699 25.6764C39.8182 25.1407 40.1678 24.7836 40.7292 24.5946C41.1318 24.458 41.3118 24.1534 41.2483 23.7648C41.1635 23.2921 40.9305 23.1136 40.3903 23.1661C40.189 23.1871 39.9665 23.1976 39.7865 23.3132C39.7017 23.3657 39.6593 23.3762 39.6276 23.3867C39.6276 23.3447 39.6276 23.2501 39.6276 23.1661C39.6276 22.8405 39.6488 22.4834 39.6276 22.1368C39.6276 22.0002 39.6593 21.9582 39.7971 21.9372C41.2165 21.8112 42.0215 22.1998 42.5724 23.2816C42.9219 23.9749 42.9008 24.7521 42.4876 25.5189C41.9474 26.5272 41.2377 27.1994 40.2949 27.5775L40.242 27.5985C40.242 27.5985 40.1466 27.6405 40.1042 27.651C39.9877 27.6721 39.7441 27.7141 39.6911 27.6615C39.6382 27.6195 39.6382 27.3675 39.6382 27.2519V26.6427C39.6488 26.5272 39.6382 26.4116 39.6382 26.2751C39.6382 26.0755 39.617 25.876 39.6699 25.6869V25.6764ZM19.7236 27.6721C19.7236 27.6721 19.7024 27.6721 19.6918 27.6721H19.6283C18.8974 27.6195 18.2724 27.2729 17.6262 26.5272C17.2237 26.0755 16.7576 25.4453 16.6729 24.6156C16.5564 23.4812 17.1072 22.5044 18.1135 22.0738C18.4101 21.9477 18.7279 21.9267 19.0457 21.9267C19.1198 21.9267 19.194 21.9267 19.2787 21.9267C19.3846 21.9267 19.48 21.9267 19.5859 21.9267C19.6177 21.9267 19.6601 21.9267 19.6812 21.9477C19.6918 21.9582 19.713 22.0002 19.713 22.1053C19.713 22.4309 19.713 22.767 19.713 23.1136V23.3237C19.5012 23.2396 19.2681 23.1661 19.0139 23.1451C18.5584 23.1031 18.2512 23.2921 18.1453 23.6808C18.0499 24.0379 18.2088 24.332 18.6431 24.5631C18.7279 24.6051 18.8126 24.6471 18.8974 24.6786C19.0351 24.7416 19.1728 24.7941 19.2787 24.8887C19.6071 25.1828 19.7448 25.5084 19.7236 25.9285C19.6918 26.5062 19.7236 27.0839 19.7448 27.63C19.7448 27.651 19.7448 27.6615 19.7448 27.6721H19.7236Z" fill="#FFA02F"/>
<path d="M26.9479 29.5311C27.7318 30.2243 28.6534 30.5814 29.7868 30.6025C30.8355 30.5814 31.7889 30.1823 32.5515 29.4576C32.9117 29.1215 32.9435 28.7118 32.6575 28.3442C32.4456 28.0711 31.9689 28.0396 31.5876 28.2812C31.5134 28.3232 31.4499 28.3757 31.3863 28.4388L31.3016 28.5018C30.9626 28.7539 30.6448 28.9114 30.3165 28.9849C29.3631 29.174 28.5792 28.9639 27.9013 28.3442C27.8165 28.2602 27.5411 28.0186 27.1598 28.1237C26.8314 28.2182 26.6301 28.4178 26.5666 28.7118C26.4924 29.09 26.7255 29.3526 26.9373 29.5416L26.9479 29.5311Z" fill="#FFA02F"/>
<path d="M45.0829 42.7444C45.1676 43.2276 45.6125 43.3116 46.0362 43.3116C46.0786 43.3116 46.121 43.3116 46.1528 43.3116H46.1739C46.4811 43.2381 46.7989 43.1751 47.1379 43.1015C47.8582 42.9545 48.6739 42.7864 49.4577 42.5344C49.9132 42.3873 50.1569 42.0512 50.0615 41.6836C49.945 41.2214 49.5848 40.9904 49.1188 41.0744C47.837 41.316 46.7142 41.568 45.6867 41.8516C45.2206 41.9777 44.9981 42.3033 45.0723 42.7444H45.0829Z" fill="#FFA02F"/>
<path d="M26.9585 23.187C26.9585 23.019 26.9479 22.8509 26.9162 22.6829C26.8632 22.3572 26.4289 22.0316 26.1217 22.0632C25.7615 22.1052 25.4014 22.4623 25.4014 22.7984C25.4014 23.208 25.4014 23.6282 25.4014 24.1008C25.4014 24.2794 25.4967 24.4684 25.6556 24.6155C25.7933 24.752 25.9734 24.8255 26.1429 24.8255H26.1641C26.5666 24.815 26.842 24.6155 26.9373 24.2584C27.0009 24.0378 26.9903 23.8172 26.9903 23.6071C26.9903 23.5441 26.9903 23.4706 26.9903 23.4076C26.9903 23.3236 26.9903 23.25 26.9797 23.187H26.9585Z" fill="#FFA02F"/>
<path d="M33.2613 24.8255C33.6002 24.8255 33.8651 24.626 33.9392 24.3004C34.0875 23.6912 34.0875 23.145 33.9604 22.6513C33.8545 22.2732 33.5367 22.0422 33.1447 22.0737C32.7846 22.0947 32.4668 22.4623 32.4562 22.8719C32.4562 22.998 32.4562 23.124 32.4562 23.25V24.0903C32.4562 24.4894 32.7104 24.7625 33.1342 24.815C33.1765 24.815 33.2189 24.815 33.2613 24.815V24.8255Z" fill="#FFA02F"/>
<path d="M9.60359 15.6651C8.88217 15.6651 8.16075 15.6651 7.43933 15.6651C7.0401 15.6651 6.80196 15.4217 6.79496 15.0252C6.79496 14.3504 6.63386 13.7174 6.1786 13.1957C5.89843 12.8757 5.60426 12.5697 5.36612 12.2149C5.12798 11.8601 4.95288 11.4776 4.8128 11.0741C4.68673 10.7054 4.59567 10.3229 4.55365 9.93331C4.51863 9.59246 4.51863 9.25162 4.57466 8.90381C4.65871 8.36819 4.79179 7.84649 5.01592 7.3526C5.31009 6.72656 5.73034 6.19789 6.24864 5.73879C6.73192 5.30751 7.28524 4.99449 7.8946 4.7719C8.2448 4.64669 8.60901 4.59104 8.98023 4.54235C9.29541 4.49365 9.60359 4.50061 9.91177 4.51452C10.6332 4.55626 11.3126 4.73016 11.957 5.07101C12.4613 5.33534 12.9095 5.66227 13.2947 6.07268C13.806 6.62221 14.1913 7.24131 14.4154 7.96474C14.5975 8.54905 14.7096 9.14032 14.6745 9.7455C14.6465 10.2394 14.5345 10.7193 14.3594 11.1924C14.1843 11.6723 13.9461 12.1106 13.6379 12.514C13.4208 12.7923 13.1757 13.0427 12.9515 13.3209C12.7064 13.627 12.5663 13.9818 12.4893 14.3643C12.4402 14.6217 12.4192 14.8721 12.4192 15.1365C12.4192 15.4356 12.1391 15.6721 11.8169 15.6721C11.0745 15.6721 10.339 15.6721 9.59659 15.6721L9.60359 15.6651ZM10.1989 7.26913C10.1639 7.01176 9.98882 6.73351 9.64562 6.71264C9.29541 6.69178 8.96622 6.76134 8.63703 6.87959C7.7195 7.20653 7.13816 7.83257 6.89301 8.76469C6.81597 9.0638 6.95605 9.33509 7.24322 9.4116C7.52338 9.49508 7.82456 9.4116 7.95763 9.10554C8.03468 8.92468 8.0767 8.72295 8.20278 8.55601C8.54598 8.08299 9.01525 7.84649 9.59659 7.82562C9.90477 7.81866 10.1989 7.54737 10.2059 7.26217L10.1989 7.26913Z" fill="url(#paint0_linear_15_136)"/>
<path d="M9.6106 16.7849C10.297 16.7849 10.9834 16.7849 11.6698 16.7849C11.8169 16.7849 11.8449 16.8266 11.8449 16.9658C11.8449 17.3484 11.8659 17.7309 11.6698 18.0787C11.4317 18.51 11.0745 18.8091 10.5842 18.9274C10.0098 19.0665 9.42849 19.0248 8.86116 18.9761C8.20278 18.9135 7.7195 18.5378 7.46735 17.8909C7.33427 17.5501 7.39731 17.2023 7.3763 16.8614C7.3763 16.7571 7.46735 16.7988 7.51638 16.7988C8.21678 16.7988 8.91019 16.7988 9.6106 16.7988V16.7849Z" fill="url(#paint1_linear_15_136)"/>
<path d="M10.1709 1.70424C10.1709 2.06596 10.1709 2.42767 10.1709 2.78939C10.1709 3.0259 10.0098 3.2624 9.82072 3.31805C9.52655 3.40153 9.2814 3.32501 9.14132 3.10241C9.07829 3.00503 9.05027 2.88678 9.05027 2.76852C9.05027 2.03813 9.05027 1.3147 9.05027 0.584311C9.05727 0.229551 9.28841 0 9.6176 0C9.93278 0 10.1709 0.250419 10.1709 0.605179C10.1709 0.973852 10.1709 1.34252 10.1709 1.70424Z" fill="url(#paint2_linear_15_136)"/>
<path d="M1.69598 10.0377C1.31776 10.0377 0.946548 10.0377 0.568327 10.0377C0.295168 10.0377 -0.0200154 9.78724 0.000996807 9.47422C0.0220091 9.20989 0.253144 8.95947 0.540311 8.95251C1.31776 8.95251 2.09522 8.95251 2.87967 8.95251C3.15984 8.95251 3.41899 9.21685 3.41899 9.48813C3.41899 9.77333 3.16684 10.0307 2.87267 10.0377C2.48044 10.0377 2.08821 10.0377 1.69598 10.0377Z" fill="url(#paint3_linear_15_136)"/>
<path d="M3.24389 2.64331C3.38397 2.64331 3.50304 2.69896 3.59409 2.78939C4.14041 3.31805 4.68673 3.83976 5.20503 4.38929C5.4992 4.70231 5.45017 4.89708 5.18402 5.18924C4.9879 5.39792 4.65871 5.36314 4.42057 5.13359C3.89527 4.61884 3.36295 4.10409 2.84465 3.58238C2.66255 3.40152 2.59951 3.21371 2.7466 2.93547C2.84465 2.74765 3.01976 2.65027 3.24389 2.65027V2.64331Z" fill="url(#paint4_linear_15_136)"/>
<path d="M15.9913 2.64331C16.2154 2.65027 16.3835 2.77548 16.4816 2.96329C16.6007 3.18589 16.5446 3.39457 16.3835 3.56847C16.0053 3.95801 15.6131 4.33364 15.2279 4.70927C15.0598 4.87621 14.9127 5.06403 14.7166 5.20315C14.4924 5.3701 14.1983 5.36314 14.0092 5.16837C13.785 4.93186 13.75 4.66058 13.9601 4.44494C14.3734 4.02062 14.7936 3.60325 15.2139 3.18589C15.389 3.01198 15.529 2.79634 15.7742 2.692C15.8442 2.66418 15.9073 2.64331 15.9843 2.64331H15.9913Z" fill="url(#paint5_linear_15_136)"/>
<defs>
<linearGradient id="paint0_linear_15_136" x1="9.60525" y1="4.50427" x2="9.60525" y2="15.6721" gradientUnits="userSpaceOnUse">
<stop stop-color="#FFE0BB"/>
<stop offset="1" stop-color="#FFA02F"/>
</linearGradient>
<linearGradient id="paint1_linear_15_136" x1="9.61092" y1="16.7849" x2="9.61092" y2="19.0222" gradientUnits="userSpaceOnUse">
<stop stop-color="#FFE0BB"/>
<stop offset="1" stop-color="#FFA02F"/>
</linearGradient>
<linearGradient id="paint2_linear_15_136" x1="9.6106" y1="0" x2="9.6106" y2="3.35097" gradientUnits="userSpaceOnUse">
<stop stop-color="#FFE0BB"/>
<stop offset="1" stop-color="#FFA02F"/>
</linearGradient>
<linearGradient id="paint3_linear_15_136" x1="1.70949" y1="8.95251" x2="1.70949" y2="10.0377" gradientUnits="userSpaceOnUse">
<stop stop-color="#FFE0BB"/>
<stop offset="1" stop-color="#FFA02F"/>
</linearGradient>
<linearGradient id="paint4_linear_15_136" x1="4.0352" y1="2.64331" x2="4.0352" y2="5.32749" gradientUnits="userSpaceOnUse">
<stop stop-color="#FFE0BB"/>
<stop offset="1" stop-color="#FFA02F"/>
</linearGradient>
<linearGradient id="paint5_linear_15_136" x1="15.1828" y1="2.64331" x2="15.1828" y2="5.32186" gradientUnits="userSpaceOnUse">
<stop stop-color="#FFE0BB"/>
<stop offset="1" stop-color="#FFA02F"/>
</linearGradient>
</defs>
</svg>
