<svg width="44" height="43" viewBox="0 0 44 43" fill="none" xmlns="http://www.w3.org/2000/svg">
<path d="M41.6305 24.0218C41.2241 23.3257 40.5961 22.8861 39.7465 22.7029C38.8476 22.5075 38.1334 22.8983 37.5546 23.3257C37.0374 22.0312 35.6213 21.3351 34.3038 21.7259C33.9344 21.8358 33.6019 21.9946 33.294 22.2144C33.0108 21.4694 32.3459 20.8466 31.5455 20.6024C30.7574 20.3581 29.9693 20.4924 29.3167 20.9687C28.8241 21.3229 28.3439 21.7259 27.8883 22.1045L27.1248 22.7273C26.5338 23.2158 25.9181 23.7043 25.3147 24.2661C24.6251 24.9011 24.1695 25.2675 23.4184 25.0355C23.3445 25.011 23.2706 25.011 23.2337 25.0233H19.0224H17.791C16.9167 25.0233 16.0301 25.0233 15.1558 25.0233C14.0722 25.0233 13.2102 25.121 12.4468 25.3041C11.1169 25.6095 9.84858 26.1957 8.66646 27.0261C7.61979 27.7711 6.70857 28.7114 5.89586 29.9205C5.71115 30.2013 5.56338 30.5067 5.42793 30.7998C5.29248 31.0684 5.18166 31.3249 5.02158 31.5691C4.72605 32.0088 4.38126 32.4362 4.03647 32.8392C3.91334 32.9858 3.77788 33.1445 3.65475 33.3033L0.280768 37.4677C-0.113273 37.9562 -0.0886456 38.4814 0.330023 38.8233C0.502416 38.9699 0.711751 39.0432 0.908771 39.0432C0.945713 39.0432 0.97034 39.0432 1.00728 39.0432C1.26587 39.0187 1.52446 38.8722 1.72148 38.6157L2.66964 37.4311C3.71632 36.1366 4.76299 34.8421 5.78503 33.5476C5.85891 33.4499 5.9328 33.3644 6.01899 33.2667C6.30221 32.9247 6.59774 32.5706 6.79476 32.1431C7.22575 31.1906 7.66904 30.47 8.19853 29.8838C9.28215 28.6626 10.6244 27.7833 12.1882 27.2704C13.2349 26.9284 14.3185 26.8796 15.3282 26.8673C17.8279 26.8673 20.3276 26.8673 22.8273 26.8673H23.0367C23.3322 26.8673 23.6031 26.8673 23.8863 26.904C24.2311 26.9528 24.5266 27.1727 24.7113 27.5146C24.9207 27.9176 24.933 28.3817 24.7483 28.7481C24.4897 29.2366 24.0833 29.4564 23.3938 29.4686C22.3963 29.4808 21.3989 29.4808 20.4015 29.493C19.5888 29.493 18.7761 29.493 17.9511 29.5052C17.3846 29.5052 16.9783 29.8716 16.9783 30.3723C16.9783 30.873 17.4093 31.2516 17.988 31.2638H20.4508C21.5221 31.2638 22.6057 31.2638 23.677 31.2638H23.6893C24.4651 31.2638 25.1669 30.9707 25.7334 30.4334C25.8811 30.2868 25.992 30.2624 26.2013 30.2624H27.1618C28.4424 30.2624 29.7354 30.2624 31.016 30.2624C31.4223 30.2624 31.9642 30.2136 32.469 29.8716C33.0231 29.493 33.528 29.0656 34.0206 28.6381L34.3284 28.3695C35.3012 27.539 36.2863 26.7208 37.2714 25.9026L38.6505 24.7546C38.9953 24.4615 39.648 24.4615 39.9189 24.7546C40.0543 24.8889 40.1282 25.1332 40.1159 25.3774C40.1036 25.6583 39.9927 25.927 39.808 26.0735C38.7983 26.965 37.7516 27.8321 36.7296 28.6748C36.2124 29.1022 35.6952 29.5297 35.178 29.9693C34.2668 30.7387 33.3556 31.4959 32.4444 32.2652L31.2007 33.3033C30.5234 33.8651 29.7846 34.4391 28.9103 34.7322C28.2454 34.952 27.5435 35.013 26.8047 35.0863L26.2752 35.1352C25.6841 35.1962 25.2778 35.6237 25.327 36.161C25.3516 36.3931 25.4502 36.6007 25.6349 36.7472C25.8442 36.9182 26.152 37.0037 26.4599 36.967C26.62 36.9548 26.7924 36.9182 26.9524 36.8938C27.1741 36.8571 27.3957 36.8205 27.6174 36.8083C29.0827 36.7228 30.4249 36.2099 31.607 35.2817C32.5183 34.5612 33.4295 33.7918 34.3038 33.0591L35.3012 32.2164C35.7445 31.85 36.1878 31.4714 36.6311 31.1051L37.6408 30.2502C37.9487 29.9937 38.2442 29.7373 38.552 29.4808C39.2662 28.8702 40.0174 28.2351 40.7685 27.6489C42.0245 26.6842 42.3693 25.2553 41.6305 24.0218ZM31.3977 23.7654C30.3757 24.6325 29.3413 25.4873 28.3193 26.3544L26.7062 27.71C26.6077 27.075 26.3614 26.5376 25.955 26.0735C27.1741 25.0721 28.3932 24.0585 29.5999 23.0448C29.6738 22.9838 29.7354 22.9227 29.8092 22.8617C30.0801 22.6174 30.3141 22.4098 30.6343 22.3487C30.9667 22.2877 31.41 22.4709 31.5209 22.7151C31.7056 23.0937 31.6563 23.5333 31.3854 23.7654H31.3977ZM35.609 24.9011C34.4762 25.8659 33.3433 26.8307 32.2104 27.7833C32.0996 27.881 32.0011 27.9665 31.9149 28.0397C31.4593 28.4305 31.4593 28.4183 30.3634 28.4305H29.6984H28.701L30.0186 27.3314C30.3387 27.0627 30.6712 26.7941 30.9914 26.5254C31.7179 25.927 32.4813 25.3041 33.1955 24.6569C33.5649 24.3272 33.9713 23.9974 34.5377 23.5822C34.8702 23.3379 35.4736 23.4479 35.7691 23.8142C36.0031 24.1073 35.9292 24.6447 35.609 24.9134V24.9011Z" fill="#0056B1"/>
<path d="M5.35405 14.4962C5.35405 14.8381 5.4033 15.1801 5.50182 15.5342C5.77272 16.499 6.2899 17.3417 7.02873 18.05C8.03846 19.0026 9.20827 19.5033 10.5012 19.5399C10.9322 19.5399 11.3632 19.5399 11.7942 19.5399H12.102C12.102 19.5399 12.102 19.5399 12.1389 19.5399C12.2498 19.9185 12.4222 20.2605 12.5822 20.5902C12.7054 20.8222 12.8162 21.0665 12.9147 21.3107C13.2102 22.1167 13.7397 22.3488 14.1338 22.3976C14.22 22.3976 14.3185 22.4098 14.4047 22.4098C14.9834 22.4098 15.4144 22.1412 15.6976 21.616C15.9316 21.1886 16.1163 20.7367 16.2887 20.2971L16.3872 20.0406C16.5268 19.6987 16.7854 19.5277 17.163 19.5277H17.8895C18.4805 19.5277 19.0716 19.5277 19.6627 19.5277H19.6873C20.1922 19.5277 20.3892 19.1858 20.5493 18.9293C20.7709 18.5507 20.537 18.2454 20.4261 18.1111L20.3769 18.05C20.2045 17.8058 19.9089 17.6836 19.5026 17.6836H16.2887C15.7469 17.6836 15.3405 17.9401 15.1435 18.4164C15.0327 18.685 14.8972 18.9537 14.7741 19.2224C14.6386 19.5033 14.5032 19.7842 14.3801 20.0773C14.2323 19.7842 14.1092 19.4911 13.986 19.198C13.8998 18.9904 13.8136 18.7827 13.7151 18.5751C13.358 17.7935 13.1856 17.6836 12.336 17.6836H11.905C11.5725 17.6836 11.2524 17.6714 10.9199 17.6836C10.2057 17.7325 9.51611 17.5493 8.86348 17.1463C7.79218 16.4868 7.25037 15.5709 7.22575 14.4229C7.20112 12.3224 7.20112 10.2218 7.20112 8.12128V5.50782C7.20112 4.97047 7.275 4.53082 7.43508 4.10338C7.91532 2.83329 9.3314 1.83187 10.6613 1.83187H15.7099C18.7638 1.83187 21.8299 1.83187 24.8837 1.83187C25.9058 1.83187 26.8416 2.21045 27.5435 2.89435C28.2331 3.57825 28.6148 4.51861 28.6148 5.54445V6.75349C28.6148 9.17155 28.6148 11.5896 28.6148 14.0077C28.6148 14.3252 28.5655 14.6672 28.4917 15.0213C28.1099 16.6089 26.7062 17.7325 25.0561 17.6714C24.4281 17.6714 23.8001 17.6714 23.1721 17.6714H22.6549C22.5564 17.6714 22.4579 17.6836 22.3594 17.6958H22.2609C21.7683 17.7569 21.4728 18.1111 21.4728 18.6362C21.4728 19.1491 21.8668 19.5033 22.4456 19.5033C22.7165 19.5033 22.9751 19.5033 23.246 19.5033C23.7139 19.5033 24.1941 19.5033 24.6621 19.5155C26.152 19.5766 27.4696 19.1491 28.5409 18.221C29.723 17.1951 30.351 15.9861 30.4003 14.6183C30.4619 12.8719 30.4496 11.1133 30.4372 9.40359C30.4372 8.18234 30.4372 6.9611 30.4372 5.73985C30.4619 4.29878 30.1048 3.1386 29.3659 2.19824C28.2208 0.744959 26.6446 0 24.6867 0H19.3302C16.5965 0 13.8506 0 11.1169 0C10.5382 0 10.0949 0.0366374 9.70082 0.122125C8.33399 0.427436 7.22575 1.11133 6.42535 2.17382C5.69884 3.1386 5.35405 4.1156 5.35405 5.15365C5.35405 7.75491 5.35405 10.3684 5.35405 12.9696V14.4351V14.4962Z" fill="#0056B1"/>
<path d="M13.9737 5.97183C13.358 5.59325 12.9517 6.10617 12.7793 6.32599C12.1759 7.08316 11.9296 8.01131 11.8065 8.63415C11.5233 10.0019 11.7326 11.3331 12.4099 12.5666C13.555 14.6671 15.3775 15.7784 17.8279 15.8761C17.9511 15.8883 18.0865 15.9006 18.2096 15.9006C18.8253 15.9006 19.4533 15.754 20.1675 15.4609C21.6698 14.8259 22.7411 13.8366 23.443 12.4444C24.2803 10.7713 24.3173 9.08601 23.5785 7.44954C23.5661 7.4129 23.5538 7.38848 23.5415 7.37626C23.5415 7.37626 23.5661 7.35184 23.6031 7.3152C24.0956 6.85113 24.5759 6.38706 25.0684 5.91077L25.4625 5.53218C25.6472 5.349 25.7457 5.14139 25.7457 4.93377C25.7457 4.71395 25.6472 4.49413 25.4378 4.29873C25.0807 3.94457 24.6621 3.92014 24.268 4.22545C23.8863 4.51855 23.5415 4.8605 23.2214 5.19023C23.0613 5.349 22.9135 5.49555 22.7165 5.67873C22.6672 5.72758 22.618 5.77643 22.5687 5.81307C22.5195 5.77643 22.4702 5.71537 22.4086 5.66652C20.537 3.84687 18.382 3.28509 15.9932 4.01784C15.8454 4.06669 15.6976 4.12775 15.5499 4.18881L15.4021 4.24988C14.6017 4.57961 14.6756 5.12917 14.7495 5.349C14.8357 5.61767 15.0081 5.82528 15.242 5.93519C15.4021 6.00847 15.6853 6.06953 16.0424 5.93519C16.5719 5.71537 17.1137 5.59325 17.6802 5.58103C19.0962 5.51997 20.266 5.99626 21.2019 7.0221C21.2142 7.04653 21.2265 7.05874 21.2388 7.05874C21.2388 7.05874 21.2142 7.08316 21.2019 7.09538C20.0198 8.1945 18.85 9.30583 17.6802 10.4294C17.6063 10.3561 17.5447 10.2828 17.4831 10.2096C17.3354 10.0386 17.1753 9.85539 16.9413 9.72105C16.498 9.44017 15.9932 9.53787 15.6607 9.97752C15.3898 10.3317 15.439 10.7225 15.7715 11.0522C15.9439 11.2232 16.104 11.3942 16.2764 11.5651C16.535 11.846 16.7936 12.1147 17.0768 12.3712C17.4092 12.6765 17.9264 12.6765 18.2958 12.3589C18.7022 11.9926 19.0962 11.614 19.4903 11.2232L20.3399 10.3927C20.9064 9.84318 21.4728 9.30583 22.0885 8.73185C22.2239 9.28141 22.3101 9.80654 22.2239 10.3439C22.0639 11.4064 21.5467 12.3223 20.6355 13.1161C20.0567 13.629 19.3548 13.9466 18.616 14.0443C17.4216 14.1908 16.4365 14.0076 15.5868 13.4703C14.4416 12.7497 13.7644 11.675 13.5673 10.2828C13.4442 9.36689 13.6659 8.45096 14.2815 7.37626C14.614 6.80228 14.5155 6.33821 13.986 6.02068L13.9737 5.97183Z" fill="#0056B1"/>
<path d="M23.5415 35.465C23.1967 35.4405 22.8519 35.4894 22.5318 35.5382L22.3471 35.5627C20.8571 35.7703 19.3671 35.9535 17.9018 36.1244C17.5201 36.1733 17.0398 36.271 16.695 36.7229C16.498 36.9793 16.2887 37.2358 16.067 37.48L15.5006 38.1395C14.5648 39.2508 13.6166 40.3622 12.6808 41.4735C12.336 41.8887 12.3729 42.365 12.7916 42.7436C12.9886 42.9146 13.1856 43.0001 13.3826 43.0001C13.6043 43.0001 13.8259 42.8901 14.023 42.6703C14.2446 42.4261 14.4663 42.1818 14.6756 41.9254L15.5868 40.8262C16.2148 40.0813 16.8305 39.3363 17.4585 38.6036C17.5078 38.5425 17.5693 38.4814 17.6186 38.4082C17.8895 38.0784 18.0742 37.8708 18.3944 37.8708C18.3944 37.8708 18.4067 37.8708 18.419 37.8708C18.616 37.8708 18.8007 37.8464 18.9977 37.822C19.0716 37.822 19.1578 37.7975 19.2317 37.7853C19.6873 37.7365 20.1306 37.6876 20.5739 37.6266C21.4605 37.5167 22.3717 37.4067 23.2829 37.3579C23.9356 37.3213 24.4035 36.9305 24.4158 36.3931C24.4158 35.8802 24.0464 35.4894 23.5169 35.4528L23.5415 35.465Z" fill="#0056B1"/>
<ellipse cx="39.9998" cy="4.03321" rx="2.00011" ry="1.9983" fill="url(#paint0_linear_15_762)"/>
<ellipse cx="35.9996" cy="9.02893" rx="1.00006" ry="0.999149" fill="url(#paint1_linear_15_762)"/>
<ellipse cx="41.9999" cy="13.0255" rx="2.00011" ry="1.9983" fill="url(#paint2_linear_15_762)"/>
<defs>
<linearGradient id="paint0_linear_15_762" x1="39.9998" y1="2.03491" x2="39.9998" y2="6.03151" gradientUnits="userSpaceOnUse">
<stop stop-color="#7CBCFF"/>
<stop offset="1" stop-color="#0056B1"/>
</linearGradient>
<linearGradient id="paint1_linear_15_762" x1="35.9996" y1="8.02979" x2="35.9996" y2="10.0281" gradientUnits="userSpaceOnUse">
<stop stop-color="#7CBCFF"/>
<stop offset="1" stop-color="#0056B1"/>
</linearGradient>
<linearGradient id="paint2_linear_15_762" x1="41.9999" y1="11.0272" x2="41.9999" y2="15.0238" gradientUnits="userSpaceOnUse">
<stop stop-color="#7CBCFF"/>
<stop offset="1" stop-color="#0056B1"/>
</linearGradient>
</defs>
</svg>
