<svg width="55" height="19" viewBox="0 0 55 19" fill="none" xmlns="http://www.w3.org/2000/svg">
<path d="M6.18146 0.902736L0.594618 7.79635C-0.198206 8.77508 -0.198206 10.228 0.594618 11.2067L6.18431 18.0973C6.64917 18.6717 7.32506 19 8.03518 19H52.5531C53.9049 19 55 17.8328 55 16.3921V2.6079C55 1.16717 53.9049 0 52.5531 0H8.03518C7.32506 0 6.64917 0.328268 6.18431 0.902736H6.18146ZM7.0028 12.3465C5.14622 12.6687 3.56913 10.9848 3.87428 9.01216C4.05966 7.81763 4.9637 6.8541 6.08449 6.65654C7.93537 6.33131 9.51531 8.01216 9.21301 9.99088C9.03049 11.1884 8.12359 12.155 6.99995 12.3495L7.0028 12.3465Z" fill="#0056B1"/>
</svg>
