<svg width="12" height="14" viewBox="0 0 12 14" fill="none" xmlns="http://www.w3.org/2000/svg">
<path d="M9.17969 1.62905V0.528914C9.17969 0.239774 8.95206 0 8.67756 0C8.40306 0 8.17543 0.239774 8.17543 0.528914V1.58674H3.82365V0.528914C3.82365 0.239774 3.59602 0 3.32152 0C3.04703 0 2.8194 0.239774 2.8194 0.528914V1.62905C1.01173 1.80536 0.134682 2.94076 0.000781097 4.62623C-0.012609 4.83075 0.148072 5 0.335533 5H11.6635C11.8577 5 12.0184 4.8237 11.9983 4.62623C11.8644 2.94076 10.9873 1.80536 9.17969 1.62905Z" fill="#2D2D2D"/>
<path d="M11.3333 6H0.666667C0.3 6 0 6.29605 0 6.65789V10.7105C0 12.6842 1 14 3.33333 14H8.66667C11 14 12 12.6842 12 10.7105V6.65789C12 6.29605 11.7 6 11.3333 6ZM7.89333 9.38816L7.56 9.72368H7.55333L5.53333 11.7171C5.44667 11.8026 5.26667 11.8947 5.14 11.9079L4.24 12.0395C3.91333 12.0855 3.68667 11.8553 3.73333 11.5395L3.86 10.6447C3.88 10.5197 3.96667 10.3487 4.05333 10.2566L6.08 8.26316L6.41333 7.92763C6.63333 7.71053 6.88 7.55263 7.14667 7.55263C7.37333 7.55263 7.62 7.65789 7.89333 7.92763C8.49333 8.51974 8.3 8.98684 7.89333 9.38816Z" fill="#2D2D2D"/>
</svg>
