<svg width="30" height="30" viewBox="0 0 30 30" fill="none" xmlns="http://www.w3.org/2000/svg">
<circle cx="15" cy="15" r="15" fill="#F2F2F2"/>
<path d="M21.75 22.5H8.25C7.9425 22.5 7.6875 22.245 7.6875 21.9375C7.6875 21.63 7.9425 21.375 8.25 21.375H21.75C22.0575 21.375 22.3125 21.63 22.3125 21.9375C22.3125 22.245 22.0575 22.5 21.75 22.5Z" fill="#979797"/>
<path d="M20.2649 8.61024C18.8099 7.15524 17.3849 7.11774 15.8924 8.61024L14.9849 9.51774C14.9099 9.59274 14.8799 9.71274 14.9099 9.81774C15.4799 11.8052 17.0699 13.3952 19.0574 13.9652C19.0874 13.9727 19.1174 13.9802 19.1474 13.9802C19.2299 13.9802 19.3049 13.9502 19.3649 13.8902L20.2649 12.9827C21.0074 12.2477 21.3674 11.5352 21.3674 10.8152C21.3749 10.0727 21.0149 9.35274 20.2649 8.61024Z" fill="#979797"/>
<path d="M17.7075 14.6476C17.49 14.5426 17.28 14.4376 17.0775 14.3176C16.9125 14.2201 16.755 14.1151 16.5975 14.0026C16.47 13.9201 16.32 13.8001 16.1775 13.6801C16.1625 13.6726 16.11 13.6276 16.05 13.5676C15.8025 13.3576 15.525 13.0876 15.2775 12.7876C15.255 12.7726 15.2175 12.7201 15.165 12.6526C15.09 12.5626 14.9625 12.4126 14.85 12.2401C14.76 12.1276 14.655 11.9626 14.5575 11.7976C14.4375 11.5951 14.3325 11.3926 14.2275 11.1826C14.0898 10.8876 13.7026 10.8 13.4724 11.0302L9.255 15.2476C9.1575 15.3451 9.06749 15.5326 9.04499 15.6601L8.63999 18.5326C8.56499 19.0426 8.7075 19.5226 9.0225 19.8451C9.2925 20.1076 9.66749 20.2501 10.0725 20.2501C10.1625 20.2501 10.2525 20.2426 10.3425 20.2276L13.2225 19.8226C13.3575 19.8001 13.545 19.7101 13.635 19.6126L17.8594 15.3882C18.085 15.1626 18.0002 14.7744 17.7075 14.6476Z" fill="#979797"/>
</svg>
