<svg width="20" height="16" viewBox="0 0 20 16" fill="none" xmlns="http://www.w3.org/2000/svg">
<path fill-rule="evenodd" clip-rule="evenodd" d="M1.12868 1.3883C0.25 2.26698 0.25 3.6812 0.25 6.50963V9.67629C0.25 12.5047 0.25 13.9189 1.12868 14.7976C2.00736 15.6763 3.42157 15.6763 6.25 15.6763H13.75C16.5784 15.6763 17.9926 15.6763 18.8713 14.7976C19.75 13.9189 19.75 12.5047 19.75 9.67629V6.50962C19.75 3.6812 19.75 2.26698 18.8713 1.3883C17.9926 0.509624 16.5784 0.509624 13.75 0.509624H6.25C3.42157 0.509624 2.00736 0.509624 1.12868 1.3883ZM4.0547 4.01091C3.59517 3.70456 2.9743 3.82873 2.66795 4.28826C2.3616 4.74779 2.48577 5.36866 2.9453 5.67501L8.8906 9.63854C9.5624 10.0864 10.4376 10.0864 11.1094 9.63854L17.0547 5.67501C17.5142 5.36866 17.6384 4.74779 17.3321 4.28826C17.0257 3.82873 16.4048 3.70456 15.9453 4.01091L10 7.97444L4.0547 4.01091Z" fill="#E4002B"/>
</svg>
