<svg width="21" height="14" viewBox="0 0 21 14" fill="none" xmlns="http://www.w3.org/2000/svg">
<path d="M1.46312 7.6113C1.33618 7.42646 1.27271 7.33404 1.23718 7.1915C1.21049 7.08443 1.21049 6.91557 1.23718 6.8085C1.27271 6.66596 1.33618 6.57354 1.46312 6.3887C2.51212 4.86129 5.63457 1 10.393 1C15.1514 1 18.2739 4.86129 19.3229 6.3887C19.4498 6.57354 19.5133 6.66596 19.5488 6.8085C19.5755 6.91557 19.5755 7.08443 19.5488 7.1915C19.5133 7.33404 19.4498 7.42646 19.3229 7.6113C18.2739 9.13871 15.1514 13 10.393 13C5.63458 13 2.51213 9.13871 1.46312 7.6113Z" stroke="#2D2D2D" stroke-width="1.3" stroke-linecap="round" stroke-linejoin="round"/>
<path d="M10.393 9.57143C11.9374 9.57143 13.1893 8.42016 13.1893 7C13.1893 5.57984 11.9374 4.42857 10.393 4.42857C8.84863 4.42857 7.59667 5.57984 7.59667 7C7.59667 8.42016 8.84863 9.57143 10.393 9.57143Z" stroke="#2D2D2D" stroke-width="1.3" stroke-linecap="round" stroke-linejoin="round"/>
</svg>
