<svg width="28" height="29" viewBox="0 0 28 29" fill="none" xmlns="http://www.w3.org/2000/svg">
<path d="M28 14.5C28 6.76719 21.7328 0.5 14 0.5C6.26719 0.5 0 6.76719 0 14.5C0 21.4885 5.11656 27.2805 11.8136 28.331V18.5502H8.26164V14.5H11.8136V11.4162C11.8136 7.91016 13.8999 5.96984 17.0991 5.96984C18.6331 5.96984 20.2366 6.24602 20.2366 6.24602V9.69023H18.4723C16.7311 9.69023 16.1941 10.772 16.1941 11.8766V14.5H20.0758L19.4545 18.5502H16.1941V28.331C22.8834 27.2805 28 21.4885 28 14.5Z" fill="#7D7D7D"/>
<path d="M19.4462 18.55L20.068 14.4999H16.1863V11.8765C16.1863 10.7718 16.731 9.69012 18.4646 9.69012H20.2288V6.2459C20.2288 6.2459 18.6254 5.96973 17.0914 5.96973C13.8927 5.96973 11.8059 7.91059 11.8059 11.4161V14.4999H8.25391V18.55H11.8059V28.3309C12.5195 28.4457 13.248 28.4999 13.9923 28.4999C14.7366 28.4999 15.465 28.4386 16.1787 28.3309V18.55H19.4462Z" fill="white"/>
</svg>
