<svg width="20" height="20" viewBox="0 0 20 20" fill="none" xmlns="http://www.w3.org/2000/svg">
<path d="M4.52393 11.8966L3.84073 14.2593L1.34363 14.3082C0.597366 13.026 0.174072 11.559 0.174072 10C0.174072 8.49253 0.569842 7.07094 1.27137 5.8192H1.27191L3.49502 6.19675L4.46888 8.24377C4.26506 8.79423 4.15396 9.38514 4.15396 10C4.15404 10.6674 4.28453 11.3067 4.52393 11.8966Z" fill="#FBBB00"/>
<path d="M19.6301 8.30167C19.7428 8.8516 19.8015 9.41953 19.8015 9.99996C19.8015 10.6508 19.7277 11.2857 19.5869 11.8981C19.1092 13.982 17.8609 15.8017 16.1317 17.0894L16.1311 17.0889L13.331 16.9565L12.9347 14.6648C14.0821 14.0414 14.9789 13.0659 15.4512 11.8981H10.2036V8.30167H15.5278H19.6301Z" fill="#518EF8"/>
<path d="M16.1311 17.0889L16.1316 17.0894C14.4498 18.3417 12.3134 19.0909 9.9878 19.0909C6.25049 19.0909 3.00119 17.1559 1.34363 14.3082L4.52393 11.8966C5.35269 13.9456 7.48637 15.4041 9.9878 15.4041C11.063 15.4041 12.0703 15.1349 12.9346 14.6649L16.1311 17.0889Z" fill="#28B446"/>
<path d="M16.2519 3.00199L13.0727 5.41307C12.1782 4.8951 11.1207 4.59588 9.98786 4.59588C7.42981 4.59588 5.25622 6.12134 4.46898 8.24375L1.27196 5.81917H1.27142C2.90472 2.90209 6.195 0.909088 9.98786 0.909088C12.369 0.909088 14.5523 1.69481 16.2519 3.00199Z" fill="#F14336"/>
</svg>
