<svg width="16" height="16" viewBox="0 0 16 16" fill="none" xmlns="http://www.w3.org/2000/svg">
<path d="M5.62036 0C3.52864 0 1.82812 1.70052 1.82812 3.79224C1.82812 5.84404 3.43284 7.50464 5.52456 7.57649C5.58843 7.56851 5.6523 7.56851 5.7002 7.57649C5.71617 7.57649 5.72415 7.57649 5.74012 7.57649C5.7481 7.57649 5.7481 7.57649 5.75609 7.57649C7.7999 7.50464 9.40462 5.84404 9.4126 3.79224C9.4126 1.70052 7.71208 0 5.62036 0Z" fill="#4EAEEA"/>
<path d="M9.6762 9.70002C7.44875 8.21506 3.81619 8.21506 1.57278 9.70002C0.558856 10.3786 0 11.2968 0 12.2787C0 13.2607 0.558856 14.1709 1.5648 14.8415C2.68251 15.592 4.1515 15.9672 5.6205 15.9672C7.08949 15.9672 8.55848 15.592 9.6762 14.8415C10.6821 14.1629 11.241 13.2528 11.241 12.2628C11.233 11.2808 10.6821 10.3707 9.6762 9.70002Z" fill="#4EAEEA"/>
<path d="M14.3946 4.26325C14.5223 5.81208 13.4206 7.1693 11.8957 7.35292C11.8877 7.35292 11.8877 7.35292 11.8797 7.35292H11.8558C11.8079 7.35292 11.76 7.35292 11.7201 7.36889C10.9456 7.40881 10.2351 7.16132 9.7002 6.70625C10.5225 5.97175 10.9935 4.87001 10.8977 3.67246C10.8419 3.02578 10.6183 2.43499 10.283 1.93202C10.5864 1.78033 10.9377 1.68453 11.2969 1.65259C12.8617 1.51687 14.2589 2.68248 14.3946 4.26325Z" fill="#4EAEEA"/>
<path d="M15.9912 11.6482C15.9273 12.4226 15.4323 13.0932 14.602 13.5483C13.8037 13.9874 12.7977 14.195 11.7998 14.171C12.3746 13.6521 12.7099 13.0054 12.7738 12.3188C12.8536 11.3289 12.3826 10.3788 11.4405 9.62035C10.9056 9.19722 10.2829 8.8619 9.60425 8.61441C11.3686 8.10346 13.5881 8.44675 14.9533 9.5485C15.6878 10.1393 16.063 10.8818 15.9912 11.6482Z" fill="#4EAEEA"/>
</svg>
