<svg width="15" height="12" viewBox="0 0 15 12" fill="none" xmlns="http://www.w3.org/2000/svg">
<path d="M2.25 5.21429C3.07734 5.21429 3.75 4.5096 3.75 3.64286C3.75 2.77612 3.07734 2.07143 2.25 2.07143C1.42266 2.07143 0.75 2.77612 0.75 3.64286C0.75 4.5096 1.42266 5.21429 2.25 5.21429ZM12.75 5.21429C13.5773 5.21429 14.25 4.5096 14.25 3.64286C14.25 2.77612 13.5773 2.07143 12.75 2.07143C11.9227 2.07143 11.25 2.77612 11.25 3.64286C11.25 4.5096 11.9227 5.21429 12.75 5.21429ZM13.5 6H12C11.5875 6 11.2148 6.17433 10.943 6.4567C11.8875 6.99933 12.5578 7.97902 12.7031 9.14286H14.25C14.6648 9.14286 15 8.79174 15 8.35714V7.57143C15 6.70469 14.3273 6 13.5 6ZM7.5 6C8.95078 6 10.125 4.76987 10.125 3.25C10.125 1.73013 8.95078 0.5 7.5 0.5C6.04922 0.5 4.875 1.73013 4.875 3.25C4.875 4.76987 6.04922 6 7.5 6ZM9.3 6.78571H9.10547C8.61797 7.03125 8.07656 7.17857 7.5 7.17857C6.92344 7.17857 6.38438 7.03125 5.89453 6.78571H5.7C4.20937 6.78571 3 8.05268 3 9.61429V10.3214C3 10.9721 3.50391 11.5 4.125 11.5H10.875C11.4961 11.5 12 10.9721 12 10.3214V9.61429C12 8.05268 10.7906 6.78571 9.3 6.78571ZM4.05703 6.4567C3.78516 6.17433 3.4125 6 3 6H1.5C0.672656 6 0 6.70469 0 7.57143V8.35714C0 8.79174 0.335156 9.14286 0.75 9.14286H2.29453C2.44219 7.97902 3.1125 6.99933 4.05703 6.4567Z" fill="#E4002B"/>
</svg>
