<svg width="12" height="14" viewBox="0 0 12 14" fill="none" xmlns="http://www.w3.org/2000/svg">
<path d="M8.51992 0.333252H3.47992C0.959919 0.333252 0.333252 1.00659 0.333252 3.69325V11.1999C0.333252 12.9733 1.30659 13.3933 2.48659 12.1266L2.49325 12.1199C3.03992 11.5399 3.87325 11.5866 4.34659 12.2199L5.01992 13.1199C5.55992 13.8333 6.43325 13.8333 6.97325 13.1199L7.64659 12.2199C8.12659 11.5799 8.95992 11.5333 9.50659 12.1199C10.6933 13.3866 11.6599 12.9666 11.6599 11.1933V3.69325C11.6666 1.00659 11.0399 0.333252 8.51992 0.333252ZM7.89325 5.65992L7.55992 5.99992H7.55325L5.53325 8.01992C5.44659 8.10659 5.26659 8.19992 5.13992 8.21325L4.23992 8.34659C3.91325 8.39325 3.68659 8.15992 3.73325 7.83992L3.85992 6.93325C3.87992 6.80659 3.96659 6.63325 4.05325 6.53992L6.07992 4.51992L6.41325 4.17992C6.63325 3.95992 6.87992 3.79992 7.14659 3.79992C7.37325 3.79992 7.61992 3.90659 7.89325 4.17992C8.49325 4.77992 8.29992 5.25325 7.89325 5.65992Z" fill="#2D2D2D"/>
</svg>
