<svg width="16" height="18" viewBox="0 0 16 18" fill="none" xmlns="http://www.w3.org/2000/svg">
<path d="M12.2396 2.0945V0.680032C12.2396 0.308281 11.9361 0 11.5701 0C11.2041 0 10.9006 0.308281 10.9006 0.680032V2.0401H5.0982V0.680032C5.0982 0.308281 4.79469 0 4.4287 0C4.0627 0 3.75919 0.308281 3.75919 0.680032V2.0945C1.34898 2.32118 0.179576 3.78098 0.00104146 5.94802C-0.016812 6.21096 0.197429 6.42857 0.447378 6.42857H15.5514C15.8103 6.42857 16.0245 6.20189 15.9977 5.94802C15.8192 3.78098 14.6498 2.32118 12.2396 2.0945Z" fill="#FFB761"/>
<path d="M15.1111 7.55347H0.888889C0.4 7.55347 0 7.93411 0 8.39933V13.6099C0 16.1475 1.33333 17.8392 4.44444 17.8392H11.5556C14.6667 17.8392 16 16.1475 16 13.6099V8.39933C16 7.93411 15.6 7.55347 15.1111 7.55347ZM5.52 14.6334C5.47556 14.6672 5.43111 14.7095 5.38667 14.7349C5.33333 14.7687 5.28 14.7941 5.22667 14.811C5.17333 14.8364 5.12 14.8533 5.06667 14.8617C5.00444 14.8702 4.95111 14.8787 4.88889 14.8787C4.77333 14.8787 4.65778 14.8533 4.55111 14.811C4.43556 14.7687 4.34667 14.7095 4.25778 14.6334C4.09778 14.4726 4 14.2527 4 14.0328C4 13.8129 4.09778 13.5929 4.25778 13.4322C4.34667 13.3561 4.43556 13.2969 4.55111 13.2546C4.71111 13.1869 4.88889 13.17 5.06667 13.2038C5.12 13.2123 5.17333 13.2292 5.22667 13.2546C5.28 13.2715 5.33333 13.2969 5.38667 13.3307C5.43111 13.3646 5.47556 13.3984 5.52 13.4322C5.68 13.5929 5.77778 13.8129 5.77778 14.0328C5.77778 14.2527 5.68 14.4726 5.52 14.6334ZM5.52 11.6728C5.35111 11.8251 5.12 11.9181 4.88889 11.9181C4.65778 11.9181 4.42667 11.8251 4.25778 11.6728C4.09778 11.5121 4 11.2922 4 11.0723C4 10.8523 4.09778 10.6324 4.25778 10.4717C4.50667 10.2349 4.89778 10.1587 5.22667 10.2941C5.34222 10.3364 5.44 10.3956 5.52 10.4717C5.68 10.6324 5.77778 10.8523 5.77778 11.0723C5.77778 11.2922 5.68 11.5121 5.52 11.6728ZM8.63111 14.6334C8.46222 14.7856 8.23111 14.8787 8 14.8787C7.76889 14.8787 7.53778 14.7856 7.36889 14.6334C7.20889 14.4726 7.11111 14.2527 7.11111 14.0328C7.11111 13.8129 7.20889 13.5929 7.36889 13.4322C7.69778 13.1193 8.30222 13.1193 8.63111 13.4322C8.79111 13.5929 8.88889 13.8129 8.88889 14.0328C8.88889 14.2527 8.79111 14.4726 8.63111 14.6334ZM8.63111 11.6728C8.58667 11.7067 8.54222 11.7405 8.49778 11.7743C8.44444 11.8082 8.39111 11.8335 8.33778 11.8505C8.28444 11.8758 8.23111 11.8928 8.17778 11.9012C8.11556 11.9097 8.06222 11.9181 8 11.9181C7.76889 11.9181 7.53778 11.8251 7.36889 11.6728C7.20889 11.5121 7.11111 11.2922 7.11111 11.0723C7.11111 10.8523 7.20889 10.6324 7.36889 10.4717C7.44889 10.3956 7.54667 10.3364 7.66222 10.2941C7.99111 10.1587 8.38222 10.2349 8.63111 10.4717C8.79111 10.6324 8.88889 10.8523 8.88889 11.0723C8.88889 11.2922 8.79111 11.5121 8.63111 11.6728ZM11.7422 14.6334C11.5733 14.7856 11.3422 14.8787 11.1111 14.8787C10.88 14.8787 10.6489 14.7856 10.48 14.6334C10.32 14.4726 10.2222 14.2527 10.2222 14.0328C10.2222 13.8129 10.32 13.5929 10.48 13.4322C10.8089 13.1193 11.4133 13.1193 11.7422 13.4322C11.9022 13.5929 12 13.8129 12 14.0328C12 14.2527 11.9022 14.4726 11.7422 14.6334ZM11.7422 11.6728C11.6978 11.7067 11.6533 11.7405 11.6089 11.7743C11.5556 11.8082 11.5022 11.8335 11.4489 11.8505C11.3956 11.8758 11.3422 11.8928 11.2889 11.9012C11.2267 11.9097 11.1644 11.9181 11.1111 11.9181C10.88 11.9181 10.6489 11.8251 10.48 11.6728C10.32 11.5121 10.2222 11.2922 10.2222 11.0723C10.2222 10.8523 10.32 10.6324 10.48 10.4717C10.5689 10.3956 10.6578 10.3364 10.7733 10.2941C10.9333 10.2264 11.1111 10.2095 11.2889 10.2433C11.3422 10.2518 11.3956 10.2687 11.4489 10.2941C11.5022 10.311 11.5556 10.3364 11.6089 10.3702C11.6533 10.404 11.6978 10.4379 11.7422 10.4717C11.9022 10.6324 12 10.8523 12 11.0723C12 11.2922 11.9022 11.5121 11.7422 11.6728Z" fill="#FFB761"/>
</svg>
