<svg width="16" height="16" viewBox="0 0 16 16" fill="none" xmlns="http://www.w3.org/2000/svg">
<path d="M15.457 7.85593L15.3253 7.67993C15.0948 7.40793 14.8231 7.19193 14.5103 7.03193C14.0905 6.79993 13.613 6.67993 13.1191 6.67993H2.87045C2.37654 6.67993 1.90732 6.79993 1.47926 7.03193C1.15822 7.19993 0.870104 7.43193 0.63138 7.71993C0.162163 8.30393 -0.0600975 9.02393 0.0139893 9.74394L0.318569 13.4799C0.425583 14.6079 0.565524 15.9999 3.17503 15.9999H12.8228C15.4323 15.9999 15.564 14.6079 15.6792 13.4719L15.9838 9.75193C16.0579 9.07993 15.8768 8.40793 15.457 7.85593ZM9.96632 12.2719H6.02325C5.70221 12.2719 5.44702 12.0159 5.44702 11.7119C5.44702 11.4079 5.70221 11.1519 6.02325 11.1519H9.96632C10.2874 11.1519 10.5426 11.4079 10.5426 11.7119C10.5426 12.0239 10.2874 12.2719 9.96632 12.2719Z" fill="#FC4D32"/>
<path d="M15.0281 5.11567C15.0759 5.49485 14.6639 5.75354 14.2965 5.64842C13.9226 5.54148 13.5319 5.48801 13.1274 5.48801H2.87049C2.46069 5.48801 2.05654 5.54563 1.67458 5.65606C1.31189 5.76092 0.903076 5.51186 0.903076 5.13431V3.728C0.903076 0.872001 1.80035 0 4.73913 0H5.71049C6.88765 0 7.25808 0.368001 7.73553 0.968001L8.72335 2.248C8.92915 2.52 8.93738 2.536 9.29958 2.536H11.2588C13.7637 2.536 14.7829 3.17082 15.0281 5.11567Z" fill="#FC4D32"/>
</svg>
