<svg width="13" height="12" viewBox="0 0 13 12" fill="none" xmlns="http://www.w3.org/2000/svg">
<path d="M9.75 0.333008H3.25C1.3 0.333008 0 1.3036 0 3.5683V8.09771C0 10.3624 1.3 11.333 3.25 11.333H9.75C11.7 11.333 13 10.3624 13 8.09771V3.5683C13 1.3036 11.7 0.333008 9.75 0.333008ZM2.7625 7.45065C2.7625 7.71595 2.5415 7.93595 2.275 7.93595C2.0085 7.93595 1.7875 7.71595 1.7875 7.45065V4.21536C1.7875 3.95007 2.0085 3.73007 2.275 3.73007C2.5415 3.73007 2.7625 3.95007 2.7625 4.21536V7.45065ZM6.5 7.77418C5.421 7.77418 4.55 6.90713 4.55 5.83301C4.55 4.75889 5.421 3.89183 6.5 3.89183C7.579 3.89183 8.45 4.75889 8.45 5.83301C8.45 6.90713 7.579 7.77418 6.5 7.77418ZM11.2125 7.45065C11.2125 7.71595 10.9915 7.93595 10.725 7.93595C10.4585 7.93595 10.2375 7.71595 10.2375 7.45065V4.21536C10.2375 3.95007 10.4585 3.73007 10.725 3.73007C10.9915 3.73007 11.2125 3.95007 11.2125 4.21536V7.45065Z" fill="#2D2D2D"/>
</svg>
