<svg width="16" height="19" viewBox="0 0 16 19" fill="none" xmlns="http://www.w3.org/2000/svg">
<path fill-rule="evenodd" clip-rule="evenodd" d="M8.35181 18.2848C9.94782 17.4953 15.9285 14.1639 15.9285 8.57813C15.9285 4.33001 12.3628 0.88623 7.96427 0.88623C3.56572 0.88623 0 4.33001 0 8.57813C0 14.1639 5.98071 17.4953 7.57673 18.2848C7.82404 18.4072 8.10449 18.4072 8.35181 18.2848ZM7.96392 11.8747C9.84901 11.8747 11.3772 10.3988 11.3772 8.57815C11.3772 6.75753 9.84901 5.28162 7.96392 5.28162C6.07883 5.28162 4.55067 6.75753 4.55067 8.57815C4.55067 10.3988 6.07883 11.8747 7.96392 11.8747Z" fill="#4EAEEA"/>
</svg>
