<svg width="16" height="16" viewBox="0 0 16 16" fill="none" xmlns="http://www.w3.org/2000/svg">
<path d="M3.33366 9C1.86033 9 0.666992 10.1933 0.666992 11.6667C0.666992 12.1667 0.806992 12.64 1.05366 13.04C1.51366 13.8133 2.36033 14.3333 3.33366 14.3333C4.30699 14.3333 5.15366 13.8133 5.61366 13.04C5.86033 12.64 6.00033 12.1667 6.00033 11.6667C6.00033 10.1933 4.80699 9 3.33366 9ZM4.64699 11.4467L3.22699 12.76C3.13366 12.8467 3.00699 12.8933 2.88699 12.8933C2.76033 12.8933 2.63366 12.8467 2.53366 12.7467L1.87366 12.0867C1.68033 11.8933 1.68033 11.5733 1.87366 11.38C2.06699 11.1867 2.38699 11.1867 2.58033 11.38L2.90033 11.7L3.96699 10.7133C4.16699 10.5267 4.48699 10.54 4.67366 10.74C4.86033 10.94 4.84699 11.26 4.64699 11.4467Z" fill="#E4002B"/>
<path d="M11.5 1.62H5.16667C3.26667 1.62 2 2.88666 2 4.78666V7.75999C2 7.99333 2.24 8.15999 2.46667 8.09999C2.74667 8.03333 3.03333 7.99999 3.33333 7.99999C5.24 7.99999 6.81333 9.54666 6.98667 11.42C7 11.6067 7.15333 11.7533 7.33333 11.7533H7.7L10.52 13.6333C10.9333 13.9133 11.5 13.6067 11.5 13.1V11.7533C12.4467 11.7533 13.24 11.4333 13.7933 10.8867C14.3467 10.3267 14.6667 9.53333 14.6667 8.58666V4.78666C14.6667 2.88666 13.4 1.62 11.5 1.62ZM10.5533 7.20666H6.11333C5.85333 7.20666 5.64 6.99333 5.64 6.73333C5.64 6.46666 5.85333 6.25333 6.11333 6.25333H10.5533C10.8133 6.25333 11.0267 6.46666 11.0267 6.73333C11.0267 6.99333 10.8133 7.20666 10.5533 7.20666Z" fill="#E4002B"/>
</svg>
