<svg width="12" height="13" viewBox="0 0 12 13" fill="none" xmlns="http://www.w3.org/2000/svg">
<path d="M6 0.666504C2.685 0.666504 0 3.3515 0 6.6665C0 7.7915 0.315 8.8565 0.87 9.7565C1.905 11.4965 3.81 12.6665 6 12.6665C8.19 12.6665 10.095 11.4965 11.13 9.7565C11.685 8.8565 12 7.7915 12 6.6665C12 3.3515 9.315 0.666504 6 0.666504ZM8.955 6.1715L5.76 9.1265C5.55 9.3215 5.265 9.4265 4.995 9.4265C4.71 9.4265 4.425 9.32151 4.2 9.09651L2.715 7.6115C2.28 7.1765 2.28 6.4565 2.715 6.0215C3.15 5.5865 3.87 5.5865 4.305 6.0215L5.025 6.7415L7.425 4.5215C7.875 4.1015 8.595 4.1315 9.015 4.5815C9.435 5.0315 9.405 5.7515 8.955 6.1715Z" fill="#2D2D2D"/>
</svg>
