<svg width="32" height="32" viewBox="0 0 32 32" fill="none" xmlns="http://www.w3.org/2000/svg">
<circle cx="16" cy="16" r="16" fill="#F2F2F2"/>
<path d="M10 11.3846L16 6M16 6L22 11.3846M16 6L16 13" stroke="#979797" stroke-width="1.5" stroke-linecap="round" stroke-linejoin="round"/>
<path fill-rule="evenodd" clip-rule="evenodd" d="M15 15V18.9375C15 19.4898 15.4477 19.9375 16 19.9375C16.5523 19.9375 17 19.4898 17 18.9375V15H23C24.1046 15 25 15.8954 25 17V22C25 23.1046 24.1046 24 23 24H9C7.89543 24 7 23.1046 7 22V17C7 15.8954 7.89543 15 9 15H15Z" fill="#979797"/>
</svg>
