<svg width="30" height="31" viewBox="0 0 30 31" fill="none" xmlns="http://www.w3.org/2000/svg">
<circle cx="15" cy="15.5" r="15" fill="#E4002B" fill-opacity="0.1"/>
<path d="M19.1667 8.0249H10.8334C8.33341 8.0249 6.66675 9.69157 6.66675 12.1916V17.1916C6.66675 19.6916 8.33341 21.3582 10.8334 21.3582V23.1332C10.8334 23.7999 11.5751 24.1999 12.1251 23.8249L15.8334 21.3582H19.1667C21.6667 21.3582 23.3334 19.6916 23.3334 17.1916V12.1916C23.3334 9.69157 21.6667 8.0249 19.1667 8.0249ZM15.0001 18.1666C14.6501 18.1666 14.3751 17.8832 14.3751 17.5416C14.3751 17.1999 14.6501 16.9166 15.0001 16.9166C15.3501 16.9166 15.6251 17.1999 15.6251 17.5416C15.6251 17.8832 15.3501 18.1666 15.0001 18.1666ZM16.0501 14.7082C15.7251 14.9249 15.6251 15.0666 15.6251 15.2999V15.4749C15.6251 15.8166 15.3417 16.0999 15.0001 16.0999C14.6584 16.0999 14.3751 15.8166 14.3751 15.4749V15.2999C14.3751 14.3332 15.0834 13.8582 15.3501 13.6749C15.6584 13.4666 15.7584 13.3249 15.7584 13.1082C15.7584 12.6916 15.4167 12.3499 15.0001 12.3499C14.5834 12.3499 14.2417 12.6916 14.2417 13.1082C14.2417 13.4499 13.9584 13.7332 13.6167 13.7332C13.2751 13.7332 12.9917 13.4499 12.9917 13.1082C12.9917 11.9999 13.8917 11.0999 15.0001 11.0999C16.1084 11.0999 17.0084 11.9999 17.0084 13.1082C17.0084 14.0582 16.3084 14.5332 16.0501 14.7082Z" fill="#E4002B"/>
</svg>
