<svg width="20" height="21" viewBox="0 0 20 21" fill="none" xmlns="http://www.w3.org/2000/svg">
<path d="M6.2334 15.9582L8.81673 17.9582C9.15006 18.2915 9.90006 18.4582 10.4001 18.4582H13.5667C14.5667 18.4582 15.6501 17.7082 15.9001 16.7082L17.9001 10.6249C18.3167 9.45818 17.5667 8.45818 16.3167 8.45818H12.9834C12.4834 8.45818 12.0667 8.04152 12.1501 7.45818L12.5667 4.79152C12.7334 4.04152 12.2334 3.20818 11.4834 2.95818C10.8167 2.70818 9.9834 3.04152 9.65006 3.54152L6.2334 8.62485" stroke="white" stroke-miterlimit="10"/>
<path d="M1.9834 15.9581V7.79146C1.9834 6.6248 2.4834 6.20813 3.65007 6.20813H4.4834C5.65006 6.20813 6.15007 6.6248 6.15007 7.79146V15.9581C6.15007 17.1248 5.65006 17.5415 4.4834 17.5415H3.65007C2.4834 17.5415 1.9834 17.1248 1.9834 15.9581Z" stroke="white" stroke-linecap="round" stroke-linejoin="round"/>
</svg>
