<svg width="18" height="25" viewBox="0 0 18 25" fill="none" xmlns="http://www.w3.org/2000/svg">
<path d="M18 11.8274C18 15.5549 18 19.2895 18 23.0171C18 23.8579 17.5467 24.4535 16.7323 24.8178C16.4096 24.958 16.0408 25 15.6796 25C11.7458 25 6.27532 25 2.34148 25C1.47327 25 0.758724 24.6987 0.290044 23.998C0.167111 23.8089 0.074912 23.5987 0.0595454 23.3814C0.0441789 23.0802 0.00576246 22.7789 0.00576246 22.4706C-0.00192082 15.3517 -0.00192082 9.62724 0.00576246 2.50841C0.00576246 2.03896 -0.0249707 1.54148 0.228578 1.09305C0.474442 0.651626 0.858606 0.350336 1.3657 0.161155C1.75755 0.0140135 2.16476 0 2.56429 0C6.3752 0 11.7304 0 15.5414 0C16.0561 0 16.5479 0.0700673 17.0012 0.322309C17.3392 0.511491 17.5851 0.763733 17.7695 1.07904C17.9539 1.40835 18 1.75168 18 2.11603C18 5.81558 18 8.1208 18 11.8203V11.8274ZM1.54242 10.3629C1.54242 13.1446 1.54242 15.9263 1.54242 18.715C1.54242 18.8481 1.58083 18.8901 1.7345 18.8901C2.95614 18.8831 4.94611 18.8761 6.16007 18.8761C9.24875 18.8761 13.1134 18.8761 16.2021 18.8831C16.4403 18.8831 16.448 18.799 16.448 18.6379C16.448 16.3467 16.448 14.0555 16.448 11.7573C16.448 8.54821 16.448 6.73346 16.448 3.52438C16.448 3.2301 16.448 3.2301 16.1253 3.2301C15.6643 3.2301 14.435 3.2301 13.9663 3.2301C10.1861 3.2301 5.63761 3.2301 1.85743 3.2301C1.68072 3.2301 1.54242 3.21609 1.54242 3.46132C1.5501 6.22898 1.54242 7.59529 1.54242 10.37V10.3629ZM9.01056 2.11603C9.98634 2.11603 10.9621 2.11603 11.9379 2.11603C12.0916 2.11603 12.1684 2.05998 12.2375 1.94787C12.3221 1.81474 12.3374 1.67461 12.3221 1.52747C12.2913 1.2472 12.1761 1.15611 11.8764 1.15611C9.96329 1.15611 8.04247 1.15611 6.12934 1.15611C5.83737 1.15611 5.68371 1.31726 5.68371 1.63257C5.68371 1.93386 5.84505 2.10902 6.12934 2.10902C7.08975 2.10902 8.05015 2.10902 9.01056 2.10902V2.11603ZM9.02593 23.0942C9.80194 23.0802 10.3321 22.6037 10.3551 21.917C10.3782 21.2024 9.87878 20.7119 9.19496 20.6558C8.11162 20.5577 7.66599 21.2584 7.65831 21.847C7.65831 22.5547 8.17309 23.0872 9.02593 23.1012V23.0942Z" fill="#E4002B"/>
</svg>
