<svg width="26" height="26" viewBox="0 0 26 26" fill="none" xmlns="http://www.w3.org/2000/svg">
<path d="M8.59 14.51L15.42 18.49M15.41 7.51L8.59 11.49M21 6C21 7.65685 19.6569 9 18 9C16.3431 9 15 7.65685 15 6C15 4.34315 16.3431 3 18 3C19.6569 3 21 4.34315 21 6ZM9 13C9 14.6569 7.65685 16 6 16C4.34315 16 3 14.6569 3 13C3 11.3431 4.34315 10 6 10C7.65685 10 9 11.3431 9 13ZM21 20C21 21.6569 19.6569 23 18 23C16.3431 23 15 21.6569 15 20C15 18.3431 16.3431 17 18 17C19.6569 17 21 18.3431 21 20Z" stroke="#2D2D2D" stroke-width="1.5" stroke-linecap="round" stroke-linejoin="round"/>
</svg>
