<svg width="26" height="26" viewBox="0 0 26 26" fill="none" xmlns="http://www.w3.org/2000/svg">
<path d="M22.1391 18.8025C22.1391 19.1325 22.0658 19.4717 21.91 19.8017C21.7541 20.1317 21.5525 20.4434 21.2866 20.7367C20.8375 21.2317 20.3425 21.5892 19.7833 21.8184C19.2333 22.0475 18.6375 22.1667 17.9958 22.1667C17.0608 22.1667 16.0616 21.9467 15.0075 21.4975C13.9533 21.0484 12.8991 20.4434 11.8541 19.6825C10.8 18.9125 9.80081 18.06 8.84748 17.1159C7.90331 16.1625 7.05081 15.1634 6.28998 14.1184C5.53831 13.0734 4.93331 12.0284 4.49331 10.9925C4.05331 9.94754 3.83331 8.94837 3.83331 7.99504C3.83331 7.37171 3.94331 6.77587 4.16331 6.22587C4.38331 5.66671 4.73165 5.15337 5.21748 4.69504C5.80415 4.11754 6.44581 3.83337 7.12415 3.83337C7.38081 3.83337 7.63748 3.88837 7.86665 3.99837C8.10498 4.10837 8.31581 4.27337 8.48081 4.51171L10.6075 7.50921C10.7725 7.73837 10.8916 7.94921 10.9741 8.15087C11.0566 8.34337 11.1025 8.53587 11.1025 8.71004C11.1025 8.93004 11.0383 9.15004 10.91 9.36087C10.7908 9.57171 10.6166 9.79171 10.3966 10.0117L9.69998 10.7359C9.59915 10.8367 9.55331 10.9559 9.55331 11.1025C9.55331 11.1759 9.56248 11.24 9.58081 11.3134C9.60831 11.3867 9.63581 11.4417 9.65415 11.4967C9.81915 11.7992 10.1033 12.1934 10.5066 12.67C10.9191 13.1467 11.3591 13.6325 11.8358 14.1184C12.3308 14.6042 12.8075 15.0534 13.2933 15.4659C13.77 15.8692 14.1641 16.1442 14.4758 16.3092C14.5216 16.3275 14.5766 16.355 14.6408 16.3825C14.7141 16.41 14.7875 16.4192 14.87 16.4192C15.0258 16.4192 15.145 16.3642 15.2458 16.2634L15.9425 15.5759C16.1716 15.3467 16.3916 15.1725 16.6025 15.0625C16.8133 14.9342 17.0241 14.87 17.2533 14.87C17.4275 14.87 17.6108 14.9067 17.8125 14.9892C18.0141 15.0717 18.225 15.1909 18.4541 15.3467L21.4883 17.5009C21.7266 17.6659 21.8916 17.8584 21.9925 18.0875C22.0841 18.3167 22.1391 18.5459 22.1391 18.8025Z" stroke="#2D2D2D" stroke-width="1.5" stroke-miterlimit="10"/>
<path d="M18.9583 10.2501C18.9583 9.70008 18.5275 8.85675 17.8858 8.16925C17.2992 7.53675 16.52 7.04175 15.75 7.04175" stroke="#2D2D2D" stroke-width="1.5" stroke-linecap="round" stroke-linejoin="round"/>
<path d="M22.1667 10.25C22.1667 6.70254 19.2975 3.83337 15.75 3.83337" stroke="#2D2D2D" stroke-width="1.5" stroke-linecap="round" stroke-linejoin="round"/>
</svg>
