<svg width="26" height="26" viewBox="0 0 26 26" fill="none" xmlns="http://www.w3.org/2000/svg">
<path d="M21 13.5V7.8C21 6.11984 21 5.27976 20.673 4.63803C20.3854 4.07354 19.9265 3.6146 19.362 3.32698C18.7202 3 17.8802 3 16.2 3H9.8C8.11984 3 7.27976 3 6.63803 3.32698C6.07354 3.6146 5.6146 4.07354 5.32698 4.63803C5 5.27976 5 6.11984 5 7.8V18.2C5 19.8802 5 20.7202 5.32698 21.362C5.6146 21.9265 6.07354 22.3854 6.63803 22.673C7.27976 23 8.1198 23 9.79986 23H13.5M15 12H9M11 16H9M17 8H9M16 20L19 23M19 23L22 20M19 23V17" stroke="#2D2D2D" stroke-width="1.5" stroke-linecap="round" stroke-linejoin="round"/>
</svg>
