<svg width="26" height="26" viewBox="0 0 26 26" fill="none" xmlns="http://www.w3.org/2000/svg">
<path d="M20.735 21.125C22.6525 19.175 23.8334 16.4884 23.8334 13.5417C23.8334 7.56171 18.98 2.70837 13 2.70837C7.02002 2.70837 2.16669 7.56171 2.16669 13.5417C2.16669 16.4884 3.33668 19.1534 5.24335 21.1142" stroke="#2D2D2D" stroke-width="1.5" stroke-miterlimit="10" stroke-linecap="round" stroke-linejoin="round"/>
<path d="M13 23.2917C15.0223 23.2917 16.6617 21.6523 16.6617 19.6301C16.6617 17.6078 15.0223 15.9684 13 15.9684C10.9777 15.9684 9.33832 17.6078 9.33832 19.6301C9.33832 21.6523 10.9777 23.2917 13 23.2917Z" stroke="#2D2D2D" stroke-width="1.5" stroke-miterlimit="10" stroke-linecap="round" stroke-linejoin="round"/>
<path d="M16.5208 13H17.3333C18.2216 13 18.9583 12.2742 18.9583 11.375C18.9583 10.4867 18.2216 9.75 17.3333 9.75C16.445 9.75 15.7083 10.4758 15.7083 11.375V12.1875C15.7083 12.6317 16.0766 13 16.5208 13Z" stroke="#2D2D2D" stroke-width="1.5" stroke-miterlimit="10" stroke-linecap="round" stroke-linejoin="round"/>
</svg>
