<svg width="26" height="26" viewBox="0 0 26 26" fill="none" xmlns="http://www.w3.org/2000/svg">
<path d="M22.5104 6.47881L19.5917 3.51227C18.6852 2.59094 17.9006 2.62994 16.8616 3.65215L14.2218 6.24945C13.1828 7.27165 13.1311 8.05556 14.0376 8.97688L16.9499 11.9369C17.8628 12.8648 18.641 12.8192 19.68 11.797L22.3198 9.19971C23.3652 8.18404 23.4169 7.40014 22.5104 6.47881Z" stroke="#292D32" stroke-width="1.5" stroke-linecap="round" stroke-linejoin="round"/>
<path d="M22.1667 20.1225V16.4192C22.1667 14.9617 21.58 14.375 20.1225 14.375H16.4192C14.9617 14.375 14.375 14.9617 14.375 16.4192V20.1225C14.375 21.58 14.9617 22.1667 16.4192 22.1667H20.1225C21.58 22.1667 22.1667 21.58 22.1667 20.1225Z" stroke="#292D32" stroke-width="1.5" stroke-linecap="round" stroke-linejoin="round"/>
<path d="M11.625 9.81004V5.64837C11.625 4.35587 11.0383 3.83337 9.58081 3.83337H5.87748C4.41998 3.83337 3.83331 4.35587 3.83331 5.64837V9.80087C3.83331 11.1025 4.41998 11.6159 5.87748 11.6159H9.58081C11.0383 11.625 11.625 11.1025 11.625 9.81004Z" stroke="#292D32" stroke-width="1.5" stroke-linecap="round" stroke-linejoin="round"/>
<path d="M11.625 20.1225V16.4192C11.625 14.9617 11.0383 14.375 9.58081 14.375H5.87748C4.41998 14.375 3.83331 14.9617 3.83331 16.4192V20.1225C3.83331 21.58 4.41998 22.1667 5.87748 22.1667H9.58081C11.0383 22.1667 11.625 21.58 11.625 20.1225Z" stroke="#292D32" stroke-width="1.5" stroke-linecap="round" stroke-linejoin="round"/>
</svg>
