<svg width="26" height="26" viewBox="0 0 26 26" fill="none" xmlns="http://www.w3.org/2000/svg">
<path d="M21.25 8.41671V17.5834C21.25 20.3334 19.875 22.1667 16.6667 22.1667H9.33333C6.125 22.1667 4.75 20.3334 4.75 17.5834V8.41671C4.75 5.66671 6.125 3.83337 9.33333 3.83337H16.6667C19.875 3.83337 21.25 5.66671 21.25 8.41671Z" stroke="#2D2D2D" stroke-width="1.5" stroke-miterlimit="10" stroke-linecap="round" stroke-linejoin="round"/>
<path d="M16.2084 3.83337V11.0384C16.2084 11.4417 15.7317 11.6434 15.4383 11.3775L13.3117 9.4159C13.1375 9.2509 12.8625 9.2509 12.6883 9.4159L10.5617 11.3775C10.2684 11.6434 9.79169 11.4417 9.79169 11.0384V3.83337H16.2084Z" stroke="#2D2D2D" stroke-width="1.5" stroke-miterlimit="10" stroke-linecap="round" stroke-linejoin="round"/>
<path d="M14.1458 14.8334H18.0416" stroke="#2D2D2D" stroke-width="1.5" stroke-miterlimit="10" stroke-linecap="round" stroke-linejoin="round"/>
<path d="M10.25 18.5H18.0417" stroke="#2D2D2D" stroke-width="1.5" stroke-miterlimit="10" stroke-linecap="round" stroke-linejoin="round"/>
</svg>
