<svg width="14" height="14" viewBox="0 0 14 14" fill="none" xmlns="http://www.w3.org/2000/svg">
<path d="M9.8 0H4.2C1.4 0 0 1.4 0 4.2V13.3C0 13.685 0.315 14 0.7 14H9.8C12.6 14 14 12.6 14 9.8V4.2C14 1.4 12.6 0 9.8 0ZM6.377 10.262C6.202 10.437 5.88 10.598 5.642 10.633L4.186 10.836C4.13 10.843 4.074 10.85 4.025 10.85C3.78 10.85 3.556 10.766 3.395 10.605C3.199 10.409 3.115 10.122 3.164 9.814L3.367 8.358C3.402 8.12 3.563 7.791 3.738 7.623L6.377 4.984C6.419 5.11 6.475 5.236 6.538 5.376C6.601 5.502 6.664 5.628 6.734 5.747C6.79 5.845 6.853 5.943 6.909 6.013C6.979 6.118 7.049 6.209 7.098 6.258C7.126 6.3 7.154 6.328 7.161 6.342C7.315 6.517 7.476 6.685 7.63 6.811C7.672 6.853 7.7 6.874 7.707 6.881C7.798 6.951 7.882 7.028 7.966 7.077C8.057 7.147 8.155 7.21 8.253 7.266C8.372 7.336 8.498 7.406 8.631 7.469C8.764 7.532 8.89 7.581 9.016 7.623L6.377 10.262ZM10.185 6.461L9.639 7.007C9.604 7.042 9.555 7.063 9.506 7.063C9.492 7.063 9.464 7.063 9.45 7.056C8.246 6.713 7.287 5.754 6.944 4.55C6.923 4.487 6.944 4.417 6.993 4.368L7.546 3.815C8.449 2.912 9.303 2.933 10.185 3.815C10.633 4.263 10.857 4.697 10.85 5.145C10.85 5.586 10.633 6.013 10.185 6.461Z" fill="#4EAEEA"/>
</svg>
