<svg width="30" height="30" viewBox="0 0 30 30" fill="none" xmlns="http://www.w3.org/2000/svg">
<path d="M25.7571 17.8175L24.2724 15.3219C23.944 14.7777 23.6549 13.729 23.6549 13.0918V10.6095C23.6549 5.79093 19.779 1.875 15.0228 1.875C10.2534 1.88827 6.37745 5.79093 6.37745 10.6095V13.0785C6.37745 13.7157 6.0884 14.7644 5.77307 15.3086L4.28839 17.8042C3.72342 18.7732 3.59204 19.875 3.94678 20.8308C4.30153 21.7998 5.10299 22.5697 6.15409 22.9148C7.57308 23.3927 9.0052 23.7378 10.4636 23.99C10.6081 24.0166 10.7527 24.0299 10.8972 24.0564C11.0811 24.083 11.2782 24.1095 11.4753 24.1361C11.8169 24.1892 12.1585 24.229 12.5132 24.2555C13.341 24.3352 14.1819 24.375 15.0228 24.375C15.8505 24.375 16.6782 24.3352 17.4928 24.2555C17.795 24.229 18.0972 24.2024 18.3863 24.1626C18.6228 24.1361 18.8593 24.1095 19.0958 24.0697C19.2403 24.0564 19.3848 24.0299 19.5293 24.0033C21.0009 23.7644 22.4593 23.3927 23.8783 22.9148C24.89 22.5697 25.6651 21.7998 26.033 20.8175C26.4009 19.8219 26.2958 18.7334 25.7571 17.8175ZM15.9819 12.4281C15.9819 12.9856 15.5352 13.4369 14.9833 13.4369C14.4315 13.4369 13.9848 12.9856 13.9848 12.4281V8.31305C13.9848 7.75553 14.4315 7.3042 14.9833 7.3042C15.5352 7.3042 15.9819 7.75553 15.9819 8.31305V12.4281Z" fill="#E4002B"/>
<path d="M18.75 25.3266C18.1925 26.9578 16.719 28.125 14.9934 28.125C13.9447 28.125 12.9093 27.675 12.1792 26.8734C11.7544 26.4516 11.4358 25.8891 11.25 25.3125C11.4226 25.3406 11.5951 25.3547 11.781 25.3828C12.0863 25.425 12.4049 25.4672 12.7235 25.4953C13.4801 25.5656 14.25 25.6078 15.0199 25.6078C15.7765 25.6078 16.5332 25.5656 17.2765 25.4953C17.5553 25.4672 17.8341 25.4531 18.0996 25.4109C18.3119 25.3828 18.5243 25.3547 18.75 25.3266Z" fill="#E4002B"/>
</svg>
