<svg width="16" height="23" viewBox="0 0 16 23" fill="none" xmlns="http://www.w3.org/2000/svg">
<path d="M16 10.8812C16 14.3105 16 17.7464 16 21.1757C16 21.9493 15.5971 22.4972 14.8731 22.8324C14.5863 22.9613 14.2585 23 13.9375 23C10.4407 23 5.57806 23 2.08131 23C1.30957 23 0.674421 22.7228 0.257817 22.0782C0.148543 21.9041 0.0665884 21.7108 0.0529293 21.5109C0.0392701 21.2337 0.00512219 20.9566 0.00512219 20.6729C-0.0017074 14.1236 -0.0017074 8.85706 0.00512219 2.30774C0.00512219 1.87584 -0.0221961 1.41816 0.20318 1.00561C0.421727 0.599495 0.763206 0.322309 1.21396 0.148262C1.56227 0.0128924 1.92423 0 2.27937 0C5.66684 0 10.4271 0 13.8145 0C14.2721 0 14.7092 0.0644619 15.1122 0.296525C15.4127 0.470572 15.6312 0.702635 15.7951 0.992713C15.959 1.29568 16 1.61155 16 1.94675C16 5.35034 16 7.47113 16 10.8747V10.8812ZM1.37104 9.53391C1.37104 12.093 1.37104 14.6522 1.37104 17.2178C1.37104 17.3402 1.40519 17.3789 1.54178 17.3789C2.62768 17.3725 4.39654 17.366 5.47562 17.366C8.22111 17.366 11.6564 17.366 14.4019 17.3725C14.6136 17.3725 14.6204 17.2951 14.6204 17.1469C14.6204 15.039 14.6204 12.9311 14.6204 10.8167C14.6204 7.86435 14.6204 6.19479 14.6204 3.24243C14.6204 2.97169 14.6204 2.97169 14.3336 2.97169C13.9238 2.97169 12.8311 2.97169 12.4145 2.97169C9.05432 2.97169 5.0112 2.97169 1.65105 2.97169C1.49397 2.97169 1.37104 2.9588 1.37104 3.18442C1.37787 5.73066 1.37104 6.98767 1.37104 9.54036V9.53391ZM8.00939 1.94675C8.87675 1.94675 9.7441 1.94675 10.6115 1.94675C10.7481 1.94675 10.8163 1.89518 10.8778 1.79204C10.9529 1.66956 10.9666 1.54064 10.9529 1.40527C10.9256 1.14742 10.8232 1.06362 10.5568 1.06362C8.85626 1.06362 7.14886 1.06362 5.4483 1.06362C5.18877 1.06362 5.05218 1.21188 5.05218 1.50196C5.05218 1.77915 5.1956 1.9403 5.4483 1.9403C6.302 1.9403 7.15569 1.9403 8.00939 1.9403V1.94675ZM8.02305 21.2466C8.71284 21.2337 9.18408 20.7954 9.20457 20.1637C9.22506 19.5062 8.78113 19.0549 8.1733 19.0034C7.21033 18.9131 6.81421 19.5577 6.80738 20.0992C6.80738 20.7503 7.26497 21.2402 8.02305 21.2531V21.2466Z" fill="#E4002B"/>
</svg>
