<svg width="11" height="10" viewBox="0 0 11 10" fill="none" xmlns="http://www.w3.org/2000/svg">
<path d="M4.46066 1.32835C4.85351 0.710079 5.75587 0.710078 6.14872 1.32835L7.01485 2.69149C7.16144 2.92219 7.39607 3.08284 7.66418 3.13605L9.203 3.44151C9.98137 3.59602 10.2783 4.55212 9.72438 5.12038L8.7729 6.09651C8.56414 6.31067 8.4622 6.60703 8.49504 6.9043L8.6476 8.28556C8.73067 9.03764 7.98069 9.60595 7.2791 9.32255L5.67923 8.67629C5.43897 8.57924 5.17041 8.57924 4.93015 8.67629L3.33027 9.32255C2.62869 9.60595 1.8787 9.03764 1.96178 8.28556L2.11434 6.9043C2.14717 6.60703 2.04523 6.31067 1.83647 6.09651L0.884995 5.12038C0.331079 4.55212 0.628003 3.59602 1.40638 3.44151L2.9452 3.13605C3.2133 3.08284 3.44794 2.92219 3.59452 2.69149L4.46066 1.32835Z" fill="#FFB761"/>
</svg>
