<svg width="16" height="16" viewBox="0 0 16 16" fill="none" xmlns="http://www.w3.org/2000/svg">
<path d="M12.1928 10.4357C12.7744 10.0509 13.5383 10.4707 13.5383 11.1703V12.2985C13.5383 13.4092 12.6789 14.5986 11.6459 14.9484L8.87667 15.8754C8.39053 16.0416 7.60056 16.0416 7.12311 15.8754L4.35388 14.9484C3.31216 14.5986 2.46143 13.4092 2.46143 12.2985V11.1616C2.46143 10.4707 3.22535 10.0509 3.7983 10.4269L5.58658 11.5988C6.27237 12.0623 7.14047 12.2897 8.00857 12.2897C8.87667 12.2897 9.74476 12.0623 10.4306 11.5988L12.1928 10.4357Z" fill="#FC4D32"/>
<path d="M14.7945 3.57769L9.70074 0.426918C8.78233 -0.142306 7.26865 -0.142306 6.35023 0.426918L1.23093 3.57769C-0.41031 4.57985 -0.41031 6.84872 1.23093 7.8589L2.59154 8.69269L6.35023 11.0017C7.26865 11.5709 8.78233 11.5709 9.70074 11.0017L13.4339 8.69269L14.5989 7.97114V10.4244C14.5989 10.7531 14.8881 11.0257 15.2367 11.0257C15.5854 11.0257 15.8745 10.7531 15.8745 10.4244V6.47993C16.2147 5.44571 15.866 4.24312 14.7945 3.57769Z" fill="#FC4D32"/>
</svg>
