<svg width="128" height="128" viewBox="0 0 128 128" fill="none" xmlns="http://www.w3.org/2000/svg">
<circle cx="64" cy="64" r="48" fill="#E4002B" fill-opacity="0.06"/>
<path d="M42.2127 60.7092L62.8042 76.1528C63.2226 76.4667 63.8123 76.405 64.1567 76.0113L100.879 34.0426" stroke="#E4002B" stroke-width="6" stroke-linecap="round"/>
<path d="M112 64C112 74.0293 108.858 83.8067 103.017 91.9589C97.1748 100.111 88.9261 106.229 79.4291 109.453C69.9321 112.676 59.6638 112.844 50.0663 109.933C40.4689 107.022 32.0245 101.177 25.919 93.2205C19.8136 85.2638 16.3538 75.5944 16.0257 65.5705C15.6976 55.5466 18.5175 45.6717 24.0895 37.3326C29.6614 28.9936 37.7055 22.6093 47.092 19.0765C56.4785 15.5437 66.7358 15.0398 76.4233 17.6356" stroke="#E4002B" stroke-width="6" stroke-linecap="round"/>
</svg>
