<svg width="30" height="31" viewBox="0 0 30 31" fill="none" xmlns="http://www.w3.org/2000/svg">
<circle cx="15" cy="15.5" r="15" fill="#E4002B" fill-opacity="0.1"/>
<path d="M18.4917 7.6665H11.5084C8.47508 7.6665 6.66675 9.47484 6.66675 12.5082V19.4832C6.66675 22.5248 8.47508 24.3332 11.5084 24.3332H18.4834C21.5167 24.3332 23.3251 22.5248 23.3251 19.4915V12.5082C23.3334 9.47484 21.5251 7.6665 18.4917 7.6665ZM14.5834 20.3748C14.5834 20.6748 14.2834 20.8748 14.0084 20.7582C13.0001 20.3248 11.6834 19.9248 10.7667 19.8082L10.6084 19.7915C10.1001 19.7248 9.68341 19.2498 9.68341 18.7332V12.3165C9.68341 11.6748 10.2001 11.1998 10.8334 11.2498C11.8751 11.3332 13.4167 11.8332 14.3834 12.3832C14.5167 12.4582 14.5834 12.5998 14.5834 12.7415V20.3748ZM20.3167 18.7248C20.3167 19.2415 19.9001 19.7165 19.3917 19.7832L19.2167 19.7998C18.3084 19.9248 17.0001 20.3165 15.9917 20.7415C15.7167 20.8582 15.4167 20.6582 15.4167 20.3582V12.7332C15.4167 12.5832 15.4917 12.4415 15.6251 12.3665C16.5917 11.8248 18.1001 11.3415 19.1251 11.2498H19.1584C19.8001 11.2498 20.3167 11.7665 20.3167 12.4082V18.7248Z" fill="#E4002B"/>
</svg>
