<svg width="30" height="31" viewBox="0 0 30 31" fill="none" xmlns="http://www.w3.org/2000/svg">
<circle cx="15" cy="15.5" r="15" fill="#E4002B" fill-opacity="0.1"/>
<path d="M11.2499 15.5002C11.2499 14.9969 11.3522 14.5167 11.5359 14.0762C11.723 13.6277 11.6909 13.0912 11.3473 12.7476L9.42519 10.8255C9.01513 10.4154 8.33795 10.4368 8.01733 10.92C7.14529 12.2343 6.6416 13.8091 6.6416 15.5002C6.6416 17.1897 7.14433 18.7632 8.01036 20.0767C8.33 20.5615 9.0082 20.5845 9.41934 20.1744L11.3457 18.2529C11.6901 17.9094 11.7226 17.3723 11.5355 16.9233C11.352 16.483 11.2499 16.0032 11.2499 15.5002Z" fill="#E4002B"/>
<path d="M15 11.7498C15.5034 11.7498 15.9836 11.8521 16.4241 12.0358C16.8726 12.2229 17.4091 12.1908 17.7527 11.8472L19.6519 9.94794C20.0612 9.53867 20.0409 8.863 19.5591 8.54227C18.2491 7.6702 16.673 7.1665 14.975 7.1665C13.2858 7.1665 11.718 7.66911 10.4066 8.53492C9.92204 8.85488 9.89909 9.5331 10.3092 9.94424L12.2169 11.8568C12.5628 12.2036 13.1047 12.234 13.5557 12.0431C13.9998 11.8552 14.4868 11.7498 15 11.7498Z" fill="#E4002B"/>
<path d="M21.6296 10.4931C21.4544 10.2616 21.1168 10.2497 20.9112 10.4548L18.3424 13.017C18.169 13.1899 18.1497 13.4614 18.2697 13.6749C18.5735 14.2152 18.7501 14.8356 18.7501 15.5002C18.7501 16.1649 18.5734 16.7855 18.2695 17.326C18.1495 17.5392 18.1686 17.8104 18.3416 17.9834L20.9112 20.553C21.1167 20.7585 21.4547 20.7468 21.6299 20.515C22.6847 19.12 23.3084 17.382 23.3084 15.5002C23.3084 13.6182 22.6846 11.8869 21.6296 10.4931Z" fill="#E4002B"/>
<path d="M15.0001 19.2498C14.3353 19.2498 13.7148 19.0732 13.1743 18.7692C12.961 18.6493 12.6899 18.6684 12.5169 18.8414L9.92229 21.436C9.7168 21.6415 9.72846 21.9794 9.96026 22.1547C11.3553 23.2094 13.0932 23.8332 14.9751 23.8332C16.8656 23.8332 18.6051 23.2087 19.9944 22.1467C20.2243 21.9709 20.2348 21.6346 20.0302 21.43L17.4556 18.8553C17.2838 18.6835 17.0149 18.6634 16.8023 18.781C16.2642 19.0786 15.6515 19.2498 15.0001 19.2498Z" fill="#E4002B"/>
</svg>
