<svg width="16" height="16" viewBox="0 0 16 16" fill="none" xmlns="http://www.w3.org/2000/svg">
<path d="M11.0769 1.48317V4.4495H9.73155V1.48317C9.73155 1.2724 9.51629 1.17092 9.37278 1.17092C9.32793 1.17092 9.28309 1.17873 9.23824 1.19434L2.12569 3.52838C1.65033 3.6845 1.34538 4.07481 1.34538 4.51976V5.04277C0.529181 5.57359 0 6.42446 0 7.38462V4.51976C0 3.59083 0.654749 2.76338 1.65033 2.43552L8.77185 0.0936739C8.96917 0.0312247 9.17546 0 9.37278 0C10.2697 0 11.0769 0.632298 11.0769 1.48317Z" fill="#4EAEEA"/>
<path d="M16.0001 10.1539V10.7693C16.0001 10.9354 15.8281 11.0708 15.5987 11.077H14.4025C13.9683 11.077 13.5751 10.837 13.5423 10.517C13.5177 10.3262 13.6161 10.1477 13.7799 10.0247C13.9274 9.90773 14.1322 9.84619 14.3534 9.84619H15.5905C15.8281 9.85235 16.0001 9.98773 16.0001 10.1539Z" fill="#4EAEEA"/>
<path d="M14.2989 8.18349H15.1579C15.6211 8.18349 16 7.79482 16 7.31979V6.93976C16 5.15191 14.5768 3.69226 12.8337 3.69226H3.16632C2.45053 3.69226 1.79368 3.9341 1.26316 4.34867C0.496842 4.93599 0 5.87742 0 6.93976V12.7524C0 14.5403 1.42316 16 3.16632 16H12.8337C14.5768 16 16 14.5403 16 12.7524V12.5883C16 12.1133 15.6211 11.7246 15.1579 11.7246H14.4253C13.6168 11.7246 12.8421 11.2151 12.6316 10.4118C12.4547 9.75542 12.6653 9.12492 13.0863 8.70171C13.3979 8.3735 13.8274 8.18349 14.2989 8.18349ZM9.68421 8.01075H3.78947C3.44421 8.01075 3.15789 7.71709 3.15789 7.36298C3.15789 7.00886 3.44421 6.7152 3.78947 6.7152H9.68421C10.0295 6.7152 10.3158 7.00886 10.3158 7.36298C10.3158 7.71709 10.0295 8.01075 9.68421 8.01075Z" fill="#4EAEEA"/>
</svg>
