<svg width="28" height="29" viewBox="0 0 28 29" fill="none" xmlns="http://www.w3.org/2000/svg">
<circle cx="14" cy="14.5" r="14" fill="#7D7D7D"/>
<path d="M5.6001 14.5001H22.4001M5.6001 14.5001C5.6001 19.1393 9.36091 22.9001 14.0001 22.9001M5.6001 14.5001C5.6001 9.86091 9.36091 6.1001 14.0001 6.1001M22.4001 14.5001C22.4001 19.1393 18.6393 22.9001 14.0001 22.9001M22.4001 14.5001C22.4001 9.86091 18.6393 6.1001 14.0001 6.1001M14.0001 6.1001C16.1012 8.40031 17.2952 11.3854 17.3601 14.5001C17.2952 17.6148 16.1012 20.5999 14.0001 22.9001M14.0001 6.1001C11.899 8.40031 10.705 11.3854 10.6401 14.5001C10.705 17.6148 11.899 20.5999 14.0001 22.9001" stroke="white" stroke-width="1.3" stroke-linecap="round" stroke-linejoin="round"/>
</svg>
