<svg width="20" height="20" viewBox="0 0 20 20" fill="none" xmlns="http://www.w3.org/2000/svg">
<path d="M18.1585 17.3002L17.5585 16.7002C17.8668 16.2335 18.0502 15.6668 18.0502 15.0668C18.0502 13.4168 16.7168 12.0835 15.0668 12.0835C13.4168 12.0835 12.0835 13.4168 12.0835 15.0668C12.0835 16.7168 13.4168 18.0502 15.0668 18.0502C15.6752 18.0502 16.2335 17.8668 16.7002 17.5585L17.3002 18.1585C17.4168 18.2752 17.5752 18.3335 17.7252 18.3335C17.8835 18.3335 18.0335 18.2752 18.1502 18.1585C18.3918 17.9168 18.3918 17.5335 18.1585 17.3002Z" fill="#E4002B"/>
<path d="M1.69147 12.1919C1.69147 12.2169 1.6748 12.2502 1.6748 12.2752C2.44147 13.8086 3.69147 15.0669 5.2248 15.8252C5.2498 15.8252 5.28314 15.8086 5.30814 15.8086C5.0248 14.8419 4.80814 13.8502 4.6498 12.8586C3.6498 12.6919 2.65814 12.4752 1.69147 12.1919Z" fill="#E4002B"/>
<path d="M15.8916 5.35837C15.1082 3.7167 13.7832 2.3917 12.1499 1.6167C12.4499 2.60837 12.6999 3.62503 12.8666 4.6417C13.8832 4.80837 14.8999 5.05003 15.8916 5.35837Z" fill="#E4002B"/>
<path d="M1.6084 5.35811C2.6084 5.05811 3.62507 4.80811 4.64173 4.64144C4.8084 3.64977 5.01673 2.66644 5.30007 1.69977C5.27507 1.69977 5.24173 1.68311 5.21673 1.68311C3.65007 2.45811 2.37507 3.76644 1.6084 5.35811Z" fill="#E4002B"/>
<path d="M11.5167 4.46683C11.3167 3.3835 11.0667 2.30016 10.7084 1.25016C10.6917 1.19183 10.6917 1.14183 10.6834 1.07516C10.0667 0.925163 9.41673 0.833496 8.75007 0.833496C8.07507 0.833496 7.4334 0.925163 6.8084 1.0835C6.80007 1.14183 6.8084 1.19183 6.79173 1.2585C6.44173 2.3085 6.1834 3.3835 5.9834 4.46683C7.82507 4.26683 9.67507 4.26683 11.5167 4.46683Z" fill="#E4002B"/>
<path d="M4.46683 5.9834C3.37516 6.1834 2.3085 6.44173 1.25016 6.79173C1.19183 6.8084 1.14183 6.8084 1.0835 6.81673C0.925163 7.4334 0.833496 8.0834 0.833496 8.75007C0.833496 9.42507 0.925163 10.0667 1.0835 10.6917C1.14183 10.7001 1.19183 10.6917 1.2585 10.7084C2.3085 11.0584 3.3835 11.3167 4.47516 11.5167C4.26683 9.67507 4.26683 7.82507 4.46683 5.9834Z" fill="#E4002B"/>
<path d="M16.4166 6.81673C16.3582 6.81673 16.3082 6.8084 16.2416 6.79173C15.1916 6.44173 14.1082 6.1834 13.0249 5.9834C13.2332 7.82507 13.2332 9.67507 13.0249 11.5084C14.1082 11.3084 15.1916 11.0584 16.2416 10.7001C16.2999 10.6834 16.3499 10.6917 16.4166 10.6834C16.5666 10.0584 16.6666 9.41673 16.6666 8.74173C16.6666 8.0834 16.5749 7.44173 16.4166 6.81673Z" fill="#E4002B"/>
<path d="M5.9834 13.0332C6.1834 14.1249 6.4334 15.1999 6.79173 16.2499C6.8084 16.3082 6.80007 16.3582 6.8084 16.4249C7.4334 16.5749 8.07507 16.6666 8.75007 16.6666C9.41673 16.6666 10.0667 16.5749 10.6834 16.4166C10.6917 16.3582 10.6917 16.3082 10.7084 16.2416C11.0584 15.1916 11.3167 14.1166 11.5167 13.0249C10.6001 13.1249 9.67507 13.1999 8.75007 13.1999C7.82507 13.1999 6.90007 13.1332 5.9834 13.0332Z" fill="#E4002B"/>
<path d="M5.7915 5.7915C5.5415 7.75817 5.5415 9.7415 5.7915 11.7165C7.75817 11.9665 9.7415 11.9665 11.7165 11.7165C11.9665 9.74984 11.9665 7.7665 11.7165 5.7915C9.7415 5.5415 7.75817 5.5415 5.7915 5.7915Z" fill="#E4002B"/>
</svg>
