<svg width="28" height="29" viewBox="0 0 28 29" fill="none" xmlns="http://www.w3.org/2000/svg">
<circle cx="14" cy="14.5" r="14" fill="#7D7D7D"/>
<path fill-rule="evenodd" clip-rule="evenodd" d="M21.9102 9.16436C22.1896 9.44373 22.3909 9.79141 22.4941 10.1728C23.0884 12.5647 22.951 16.3424 22.5057 18.8266C22.4025 19.208 22.2012 19.5557 21.9218 19.8351C21.6424 20.1144 21.2947 20.3157 20.9134 20.4189C19.5172 20.7997 13.898 20.7997 13.898 20.7997C13.898 20.7997 8.27874 20.7997 6.88259 20.4189C6.50121 20.3157 6.15353 20.1144 5.87416 19.8351C5.59479 19.5557 5.39348 19.208 5.29028 18.8266C4.69259 16.4451 4.85643 12.6651 5.27874 10.1843C5.38194 9.80295 5.58325 9.45526 5.86262 9.17589C6.14199 8.89652 6.48967 8.69521 6.87105 8.59202C8.2672 8.21124 13.8864 8.19971 13.8864 8.19971C13.8864 8.19971 19.5057 8.19971 20.9018 8.58047C21.2832 8.68368 21.6309 8.88499 21.9102 9.16436ZM16.7595 14.4997L12.098 17.1997V11.7997L16.7595 14.4997Z" fill="white"/>
</svg>
